<svg xmlns="http://www.w3.org/2000/svg" xmlns:xlink="http://www.w3.org/1999/xlink" width="242.762" height="93.543" viewBox="0 0 242.762 93.543">
  <defs>
    <filter id="Path_2255" x="0" y="0" width="242.762" height="93.543" filterUnits="userSpaceOnUse">
      <feOffset dy="3" input="SourceAlpha"/>
      <feGaussianBlur stdDeviation="3" result="blur"/>
      <feFlood flood-opacity="0.161"/>
      <feComposite operator="in" in2="blur"/>
      <feComposite in="SourceGraphic"/>
    </filter>
  </defs>
  <g id="Group_1462" data-name="Group 1462" transform="translate(-499.891 -466.136)">
    <g id="Group_107" data-name="Group 107" transform="translate(525.976 484.873)">
      <path id="Path_323" data-name="Path 323" d="M175.449,1015.355a36.658,36.658,0,0,1-3.312,6.184c-2.156,3.275-5.183,7.357-8.939,7.388-3.339.03-4.2-2.173-8.726-2.149s-5.476,2.187-8.816,2.156c-3.756-.034-6.629-3.718-8.781-6.992-6.015-9.157-6.645-19.9-2.934-25.618a13.312,13.312,0,0,1,10.706-6.436c3.982,0,6.485,2.184,9.778,2.184,3.193,0,5.14-2.187,9.744-2.187a12.992,12.992,0,0,1,9.791,5.172,11.207,11.207,0,0,0,1.491,20.3Z" transform="translate(-131.637 -977.95)" fill="#fff"/>
      <g id="Group_106" data-name="Group 106" transform="translate(21.112 0)">
        <path id="Path_324" data-name="Path 324" d="M188.179,970.632a11.175,11.175,0,0,0,2.481-8.277,12.077,12.077,0,0,0-7.8,4.193,10.375,10.375,0,0,0-2.547,8.074,10.192,10.192,0,0,0,7.861-3.99Z" transform="translate(-180.249 -962.355)" fill="#fff"/>
      </g>
    </g>
    <g id="Group_108" data-name="Group 108" transform="translate(579.498 502.697)">
      <path id="Path_325" data-name="Path 325" d="M263.7,1004.42l-8.617,25.37h3.946L261.6,1022h8.346l2.646,7.789h4.059L268,1004.42Zm2.045,4.171c.29,1.131.605,2.307,1.015,3.578l2.323,6.723h-6.619l2.29-6.77C265.1,1011.028,265.436,1009.842,265.744,1008.591Z" transform="translate(-255.082 -1004.005)" fill="#fff"/>
      <path id="Path_326" data-name="Path 326" d="M317.778,1019.587a7.18,7.18,0,0,0-6.1,2.927l-.154-2.523h-3.51l.02.322c.1,1.572.147,3.3.147,5.784v19.552h3.839v-9.125a6.738,6.738,0,0,0,5.247,2.254,7.912,7.912,0,0,0,5.815-2.472,10.484,10.484,0,0,0,2.568-7.381,10.21,10.21,0,0,0-2.23-6.74,7.3,7.3,0,0,0-5.64-2.6Zm-.956,3.171c3.425,0,4.947,3.171,4.947,6.31,0,4.05-1.954,6.566-5.1,6.566a4.653,4.653,0,0,1-4.521-3.561,4.9,4.9,0,0,1-.136-1.242v-3.086a5.776,5.776,0,0,1,.127-.948c.019-.105.039-.209.055-.311a4.86,4.86,0,0,1,4.628-3.722Z" transform="translate(-285.064 -1012.598)" fill="#fff"/>
      <path id="Path_327" data-name="Path 327" d="M363.359,1019.587a7.183,7.183,0,0,0-6.1,2.926l-.153-2.523h-3.5l.019.322c.1,1.573.148,3.3.148,5.784v19.552h3.839v-9.125a6.737,6.737,0,0,0,5.244,2.254,7.923,7.923,0,0,0,5.817-2.472,10.5,10.5,0,0,0,2.566-7.382,10.21,10.21,0,0,0-2.231-6.74,7.3,7.3,0,0,0-5.644-2.6Zm-.955,3.171c3.425,0,4.947,3.171,4.947,6.31,0,4.05-1.955,6.566-5.1,6.566a4.653,4.653,0,0,1-4.521-3.561,4.9,4.9,0,0,1-.136-1.242v-3.086a5.7,5.7,0,0,1,.127-.95c.019-.1.038-.207.056-.308a4.857,4.857,0,0,1,4.624-3.722Z" transform="translate(-310.882 -1012.598)" fill="#fff"/>
      <path id="Path_328" data-name="Path 328" d="M421.281,1014.642c-3.581-1.386-4.729-2.478-4.729-4.493,0-1.7,1.348-3.409,4.362-3.409a8.722,8.722,0,0,1,4.506,1.132l.325.2,1.083-3.2-.214-.127a11.123,11.123,0,0,0-5.589-1.253c-4.894,0-8.313,2.89-8.313,7.025,0,3.335,2.14,5.667,6.736,7.337,3.258,1.218,4.469,2.465,4.469,4.6,0,2.42-1.87,3.921-4.878,3.921a10.5,10.5,0,0,1-5.532-1.569l-.332-.213-1.03,3.276.189.127a13.144,13.144,0,0,0,6.486,1.667c6.6,0,8.934-4.021,8.934-7.465C427.754,1018.646,425.879,1016.457,421.281,1014.642Z" transform="translate(-344.048 -1003.48)" fill="#fff"/>
      <path id="Path_329" data-name="Path 329" d="M455.564,1010.439l-3.764,1.181v3.189h-2.755v3.068H451.8v9.395a7.18,7.18,0,0,0,1.329,4.869,4.92,4.92,0,0,0,3.713,1.457,9.045,9.045,0,0,0,2.967-.458l.216-.076-.184-3.072-.368.113a5.781,5.781,0,0,1-1.785.207c-1.487,0-2.122-.941-2.122-3.15v-9.287h4.63v-3.067h-4.63Z" transform="translate(-364.949 -1007.415)" fill="#fff"/>
      <path id="Path_330" data-name="Path 330" d="M484.781,1019.587c-5.37,0-9.12,4.008-9.12,9.743,0,5.564,3.628,9.449,8.825,9.449h.036c4.393,0,9.119-3.06,9.119-9.78a9.7,9.7,0,0,0-2.446-6.788,8.54,8.54,0,0,0-6.415-2.624Zm-.11,3.029c3.453,0,5.025,3.365,5.025,6.495,0,3.847-2.145,6.639-5.1,6.639h-.037c-2.91,0-5.023-2.746-5.023-6.528,0-3.288,1.587-6.607,5.131-6.607Z" transform="translate(-380.025 -1012.597)" fill="#fff"/>
      <path id="Path_331" data-name="Path 331" d="M531.764,1019.764l-.23-.058a3.694,3.694,0,0,0-.954-.119,5.475,5.475,0,0,0-4.812,3.09l-.113-2.686h-3.444l.022.322c.1,1.522.145,3.225.145,5.526l-.036,12.537h3.837v-9.78a9.891,9.891,0,0,1,.105-1.488,4.242,4.242,0,0,1,4.038-3.868,9.811,9.811,0,0,1,1.03.065l.411.043Z" transform="translate(-406.393 -1012.597)" fill="#fff"/>
      <path id="Path_332" data-name="Path 332" d="M552.808,1019.5c-5.108,0-8.677,4.082-8.677,9.927,0,5.629,3.552,9.267,9.045,9.267a14.719,14.719,0,0,0,6.076-1.166l.231-.1-.737-2.86-.32.127a11.894,11.894,0,0,1-4.808.86,5.335,5.335,0,0,1-5.748-5.564l12.387.037.049-.245a8.533,8.533,0,0,0,.116-1.6C560.422,1024.178,558.426,1019.5,552.808,1019.5Zm-.254,2.918a3.788,3.788,0,0,1,2.817,1.074,5.465,5.465,0,0,1,1.322,3.572H547.94c.355-2.211,1.742-4.646,4.612-4.646Z" transform="translate(-418.809 -1012.55)" fill="#fff"/>
    </g>
    <text id="Consíguelo_en_el" data-name="Consíguelo en el" transform="translate(582.054 496.301)" fill="#fff" font-size="17" font-family="Helvetica"><tspan x="0" y="0">Consíguelo en el</tspan></text>
    <g transform="matrix(1, 0, 0, 1, 499.89, 466.14)" filter="url(#Path_2255)">
      <path id="Path_2255-2" data-name="Path 2255" d="M318.4,358.811a9.8,9.8,0,0,1-9.8,9.8H106.444a9.8,9.8,0,0,1-9.8-9.8V305.875a9.8,9.8,0,0,1,9.8-9.8H308.6a9.8,9.8,0,0,1,9.8,9.8Z" transform="translate(-86.14 -288.57)" fill="none" stroke="#fff" stroke-width="3"/>
    </g>
  </g>
</svg>
