<svg xmlns="http://www.w3.org/2000/svg" width="126.6" height="34.865" viewBox="0 0 126.6 34.865">
  <g id="Group_666" data-name="Group 666" transform="translate(-9.844 -5.676)">
    <g id="Group_107" data-name="Group 107" transform="translate(9.844 7.463)">
      <path id="Path_323" data-name="Path 323" d="M160.062,1006.409a23.776,23.776,0,0,1-2.149,4.012c-1.4,2.125-3.363,4.773-5.8,4.793-2.166.02-2.722-1.41-5.661-1.394s-3.553,1.419-5.72,1.4c-2.437-.022-4.3-2.412-5.7-4.536-3.9-5.941-4.311-12.914-1.9-16.62a8.637,8.637,0,0,1,6.946-4.176c2.583,0,4.207,1.417,6.344,1.417,2.071,0,3.335-1.419,6.321-1.419a8.429,8.429,0,0,1,6.352,3.355,7.271,7.271,0,0,0,.967,13.169Z" transform="translate(-131.637 -982.141)" fill="#fff"/>
      <g id="Group_106" data-name="Group 106" transform="translate(13.697 0)">
        <path id="Path_324" data-name="Path 324" d="M185.394,967.725a7.25,7.25,0,0,0,1.61-5.37,7.835,7.835,0,0,0-5.057,2.72,6.731,6.731,0,0,0-1.653,5.238,6.612,6.612,0,0,0,5.1-2.588Z" transform="translate(-180.249 -962.355)" fill="#fff"/>
      </g>
    </g>
    <g id="Group_108" data-name="Group 108" transform="translate(44.568 19.027)">
      <path id="Path_325" data-name="Path 325" d="M260.673,1004.42l-5.591,16.46h2.56l1.669-5.053h5.414l1.717,5.053h2.634l-5.614-16.46Zm1.327,2.706c.188.734.393,1.5.658,2.322l1.507,4.362H259.87l1.485-4.392C261.584,1008.707,261.8,1007.937,262,1007.126Z" transform="translate(-255.082 -1004.151)" fill="#fff"/>
      <path id="Path_326" data-name="Path 326" d="M314.348,1019.585a4.658,4.658,0,0,0-3.959,1.9l-.1-1.637h-2.277l.013.209c.068,1.02.1,2.14.1,3.753v12.685h2.49v-5.92a4.372,4.372,0,0,0,3.4,1.463,5.133,5.133,0,0,0,3.773-1.6,6.8,6.8,0,0,0,1.666-4.789,6.624,6.624,0,0,0-1.447-4.373A4.737,4.737,0,0,0,314.348,1019.585Zm-.621,2.057c2.222,0,3.21,2.057,3.21,4.094,0,2.628-1.267,4.26-3.308,4.26a3.019,3.019,0,0,1-2.933-2.31,3.175,3.175,0,0,1-.088-.806v-2a3.747,3.747,0,0,1,.082-.615c.012-.068.026-.136.035-.2a3.153,3.153,0,0,1,3-2.415Z" transform="translate(-293.124 -1015.051)" fill="#fff"/>
      <path id="Path_327" data-name="Path 327" d="M359.931,1019.585a4.66,4.66,0,0,0-3.959,1.9l-.1-1.637H353.6l.012.209c.067,1.021.1,2.14.1,3.753v12.685h2.49v-5.92a4.37,4.37,0,0,0,3.4,1.462,5.14,5.14,0,0,0,3.774-1.6,6.812,6.812,0,0,0,1.665-4.789,6.624,6.624,0,0,0-1.448-4.373A4.736,4.736,0,0,0,359.931,1019.585Zm-.62,2.057c2.222,0,3.21,2.057,3.21,4.094,0,2.628-1.268,4.26-3.307,4.26a3.019,3.019,0,0,1-2.933-2.31,3.181,3.181,0,0,1-.088-.806v-2a3.7,3.7,0,0,1,.082-.617c.012-.067.025-.134.036-.2a3.151,3.151,0,0,1,3-2.415Z" transform="translate(-325.886 -1015.05)" fill="#fff"/>
      <path id="Path_328" data-name="Path 328" d="M418.072,1010.722c-2.323-.9-3.068-1.607-3.068-2.915,0-1.1.875-2.211,2.83-2.211a5.658,5.658,0,0,1,2.923.734l.211.13.7-2.078-.139-.082a7.217,7.217,0,0,0-3.626-.813c-3.175,0-5.393,1.875-5.393,4.558,0,2.164,1.388,3.676,4.37,4.76,2.113.79,2.9,1.6,2.9,2.986,0,1.57-1.213,2.544-3.164,2.544a6.814,6.814,0,0,1-3.589-1.018l-.216-.138-.668,2.126.123.082a8.528,8.528,0,0,0,4.208,1.081c4.28,0,5.8-2.609,5.8-4.843C422.272,1013.32,421.056,1011.9,418.072,1010.722Z" transform="translate(-367.965 -1003.48)" fill="#fff"/>
      <path id="Path_329" data-name="Path 329" d="M453.274,1010.439l-2.442.766v2.069h-1.788v1.99h1.788v6.1a4.659,4.659,0,0,0,.862,3.159,3.191,3.191,0,0,0,2.409.946,5.865,5.865,0,0,0,1.925-.3l.14-.049-.119-1.993-.239.073a3.752,3.752,0,0,1-1.158.134c-.965,0-1.377-.611-1.377-2.043v-6.025h3v-1.99h-3Z" transform="translate(-394.485 -1008.477)" fill="#fff"/>
      <path id="Path_330" data-name="Path 330" d="M481.578,1019.586c-3.484,0-5.917,2.6-5.917,6.321,0,3.61,2.354,6.13,5.726,6.13h.023c2.85,0,5.917-1.985,5.917-6.345a6.29,6.29,0,0,0-1.587-4.4,5.541,5.541,0,0,0-4.162-1.7Zm-.072,1.965c2.24,0,3.26,2.183,3.26,4.214,0,2.5-1.392,4.307-3.307,4.307h-.024c-1.888,0-3.259-1.782-3.259-4.235,0-2.133,1.03-4.286,3.329-4.286Z" transform="translate(-413.615 -1015.051)" fill="#fff"/>
      <path id="Path_331" data-name="Path 331" d="M528.409,1019.7l-.149-.038a2.4,2.4,0,0,0-.619-.078,3.552,3.552,0,0,0-3.122,2l-.073-1.742h-2.234l.014.209c.067.988.094,2.092.094,3.585l-.023,8.134h2.49v-6.345a6.419,6.419,0,0,1,.068-.965,2.752,2.752,0,0,1,2.62-2.509,6.4,6.4,0,0,1,.668.042l.267.028Z" transform="translate(-447.071 -1015.051)" fill="#fff"/>
      <path id="Path_332" data-name="Path 332" d="M549.76,1019.5c-3.314,0-5.629,2.648-5.629,6.441,0,3.652,2.3,6.012,5.868,6.012a9.547,9.547,0,0,0,3.942-.756l.15-.068-.478-1.856-.207.082a7.719,7.719,0,0,1-3.119.558,3.462,3.462,0,0,1-3.729-3.61l8.037.024.032-.159a5.527,5.527,0,0,0,.075-1.039C554.7,1022.535,553.405,1019.5,549.76,1019.5Zm-.165,1.893a2.457,2.457,0,0,1,1.828.7,3.545,3.545,0,0,1,.858,2.318H546.6c.23-1.434,1.13-3.015,2.992-3.015Z" transform="translate(-462.825 -1014.991)" fill="#fff"/>
    </g>
    <text id="Consíguelo_en_el" data-name="Consíguelo en el" transform="translate(46.431 14.676)" fill="#fff" font-size="11" font-family="Helvetica"><tspan x="0" y="0">Consíguelo en el</tspan></text>
  </g>
</svg>
