<svg xmlns="http://www.w3.org/2000/svg" xmlns:xlink="http://www.w3.org/1999/xlink" width="300.727" height="300.726" viewBox="0 0 300.727 300.726">
  <defs>
    <filter id="Ellipse_80" x="35.494" y="37.195" width="229.565" height="229.565" filterUnits="userSpaceOnUse">
      <feOffset dy="3" input="SourceAlpha"/>
      <feGaussianBlur stdDeviation="10" result="blur"/>
      <feFlood flood-color="#6f2ec3" flood-opacity="0.384"/>
      <feComposite operator="in" in2="blur"/>
      <feComposite in="SourceGraphic"/>
    </filter>
    <filter id="Path_1451" x="0" y="0" width="300.727" height="300.726" filterUnits="userSpaceOnUse">
      <feOffset dy="3" input="SourceAlpha"/>
      <feGaussianBlur stdDeviation="10" result="blur-2"/>
      <feFlood flood-color="#6f2ec3" flood-opacity="0.384"/>
      <feComposite operator="in" in2="blur-2"/>
      <feComposite in="SourceGraphic"/>
    </filter>
    <filter id="Path_1445" x="104.427" y="107.708" width="92.214" height="92.205" filterUnits="userSpaceOnUse">
      <feOffset dy="3" input="SourceAlpha"/>
      <feGaussianBlur stdDeviation="10" result="blur-3"/>
      <feFlood flood-color="#6f2ec3" flood-opacity="0.384"/>
      <feComposite operator="in" in2="blur-3"/>
      <feComposite in="SourceGraphic"/>
    </filter>
    <filter id="Path_1446" x="103.888" y="107.166" width="93.291" height="93.29" filterUnits="userSpaceOnUse">
      <feOffset dy="3" input="SourceAlpha"/>
      <feGaussianBlur stdDeviation="10" result="blur-4"/>
      <feFlood flood-color="#6f2ec3" flood-opacity="0.384"/>
      <feComposite operator="in" in2="blur-4"/>
      <feComposite in="SourceGraphic"/>
    </filter>
    <filter id="Path_1447" x="113.11" y="116.466" width="74.003" height="74.013" filterUnits="userSpaceOnUse">
      <feOffset dy="3" input="SourceAlpha"/>
      <feGaussianBlur stdDeviation="10" result="blur-5"/>
      <feFlood flood-color="#6f2ec3" flood-opacity="0.384"/>
      <feComposite operator="in" in2="blur-5"/>
      <feComposite in="SourceGraphic"/>
    </filter>
    <filter id="Path_1501" x="87.813" y="67.427" width="125.446" height="168.742" filterUnits="userSpaceOnUse">
      <feOffset dy="3" input="SourceAlpha"/>
      <feGaussianBlur stdDeviation="10" result="blur-6"/>
      <feFlood flood-color="#6f2ec3" flood-opacity="0.384"/>
      <feComposite operator="in" in2="blur-6"/>
      <feComposite in="SourceGraphic"/>
    </filter>
    <filter id="Path_1502" x="88.373" y="68.52" width="123.667" height="166.555" filterUnits="userSpaceOnUse">
      <feOffset dy="3" input="SourceAlpha"/>
      <feGaussianBlur stdDeviation="10" result="blur-7"/>
      <feFlood flood-color="#6f2ec3" flood-opacity="0.384"/>
      <feComposite operator="in" in2="blur-7"/>
      <feComposite in="SourceGraphic"/>
    </filter>
    <filter id="Path_1503" x="99.09" y="68.584" width="102.622" height="75.296" filterUnits="userSpaceOnUse">
      <feOffset dy="3" input="SourceAlpha"/>
      <feGaussianBlur stdDeviation="10" result="blur-8"/>
      <feFlood flood-color="#6f2ec3" flood-opacity="0.384"/>
      <feComposite operator="in" in2="blur-8"/>
      <feComposite in="SourceGraphic"/>
    </filter>
    <filter id="Path_1504" x="100.169" y="69.148" width="100.729" height="74.824" filterUnits="userSpaceOnUse">
      <feOffset dy="3" input="SourceAlpha"/>
      <feGaussianBlur stdDeviation="10" result="blur-9"/>
      <feFlood flood-color="#6f2ec3" flood-opacity="0.384"/>
      <feComposite operator="in" in2="blur-9"/>
      <feComposite in="SourceGraphic"/>
    </filter>
  </defs>
  <g id="Group_1467" data-name="Group 1467" transform="translate(-1439.902 -992.085)">
    <g transform="matrix(1, 0, 0, 1, 1439.9, 992.09)" filter="url(#Ellipse_80)">
      <circle id="Ellipse_80-2" data-name="Ellipse 80" cx="84.783" cy="84.783" r="84.783" transform="translate(65.49 64.19)" fill="#7024c0"/>
    </g>
    <g transform="matrix(1, 0, 0, 1, 1439.9, 992.09)" filter="url(#Path_1451)">
      <path id="Path_1451-2" data-name="Path 1451" d="M-5785.846,2653.49a120.5,120.5,0,0,1-120.363-120.363,120.5,120.5,0,0,1,120.363-120.364,120.5,120.5,0,0,1,120.364,120.364A120.5,120.5,0,0,1-5785.846,2653.49Zm0-237.5a117.268,117.268,0,0,0-117.136,117.136,117.268,117.268,0,0,0,117.136,117.135,117.268,117.268,0,0,0,117.136-117.135A117.268,117.268,0,0,0-5785.846,2415.991Z" transform="translate(5936.21 -2385.76)" fill="#7024c0"/>
    </g>
    <g transform="matrix(1, 0, 0, 1, 1439.9, 992.09)" filter="url(#Path_1445)">
      <path id="Path_1445-2" data-name="Path 1445" d="M-5779.223,2528.985c0,.4-.017.8-.047,1.2q-.021.276-.054.553c0,.039-.01.079-.014.117-.018.159.033-.228.01-.07-.015.1-.03.206-.046.307a14.862,14.862,0,0,1-.537,2.216c-.114.352-.245.7-.381,1.038-.107.268.067-.146-.017.042-.037.081-.072.161-.109.243-.08.172-.161.343-.245.511a14.969,14.969,0,0,1-1.145,1.9c-.1.143-.208.282-.311.424-.09.123.14-.171.041-.055-.024.029-.046.062-.07.089q-.105.13-.213.26-.349.418-.725.808t-.782.752c-.139.125-.281.248-.425.369l-.174.142-.117.094c-.162.132.14-.1.025-.019a18.469,18.469,0,0,1-1.857,1.209q-.481.263-.979.492l-.243.108c-.184.084.2-.08-.042.017-.176.071-.354.141-.533.207a14.822,14.822,0,0,1-2.185.614c-.178.036-.357.068-.536.1l-.272.041c-.071.011-.21,0,.071-.01a1.2,1.2,0,0,0-.156.02c-.394.046-.791.076-1.187.09a15.146,15.146,0,0,1-2.314-.09.655.655,0,0,1-.156-.02c.016.01.284.041.071.01l-.271-.041c-.192-.031-.384-.067-.575-.105-.367-.074-.729-.163-1.09-.264s-.733-.223-1.093-.355c-.167-.062-.332-.127-.5-.194-.245-.1.146.067-.041-.017l-.278-.124a14.939,14.939,0,0,1-1.943-1.079c-.147-.1-.292-.195-.435-.3a2.1,2.1,0,0,1-.453-.333c.013.016.212.168.054.041l-.087-.07-.2-.166c-.154-.128-.3-.258-.453-.393a15,15,0,0,1-1.5-1.563c-.056-.068-.112-.136-.167-.2-.031-.039-.061-.079-.093-.117-.08-.1.067.085.062.083a2.223,2.223,0,0,1-.355-.483q-.314-.445-.595-.914t-.528-.958q-.119-.237-.23-.478c-.043-.091-.083-.184-.124-.276-.014-.031-.075-.143,0,0,.086.161-.014-.036-.03-.073a14.9,14.9,0,0,1-.688-2.151q-.131-.548-.22-1.105c-.014-.09-.027-.181-.041-.271-.019-.131.015.112.015.108a1.253,1.253,0,0,0-.02-.156c-.023-.2-.042-.393-.057-.59a15.1,15.1,0,0,1,0-2.359c.015-.184.033-.369.053-.553a.66.66,0,0,1,.02-.157s-.034.241-.015.11.034-.232.053-.349q.092-.555.226-1.106a15.489,15.489,0,0,1,.7-2.149c.078-.191-.1.222.02-.041.037-.081.072-.162.109-.242.079-.172.161-.342.246-.511q.245-.488.531-.956c.193-.323.4-.636.618-.942a2.036,2.036,0,0,1,.312-.423c-.016.013-.167.212-.041.054.023-.029.047-.062.071-.087.063-.079.126-.156.19-.232a15.139,15.139,0,0,1,1.536-1.585c.13-.117.263-.229.4-.341q.1-.084.2-.167l.117-.093c.119-.1-.176.131-.054.042.3-.223.605-.444.922-.648a14.835,14.835,0,0,1,1.949-1.068l.209-.094c.184-.083-.044.013-.061.026a.953.953,0,0,1,.141-.057c.177-.072.354-.14.533-.206q.522-.188,1.059-.339.558-.156,1.128-.269.268-.052.538-.1l.272-.041c.13-.02-.112.015-.109.015a1.784,1.784,0,0,0,.2-.023,15.172,15.172,0,0,1,2.355-.083q.574.023,1.147.092c.3.034-.164-.027.046,0l.271.042c.192.031.385.065.576.1a14.917,14.917,0,0,1,2.182.62c.167.061.333.126.5.192.268.109-.146-.066.042.019.1.046.208.091.311.141.331.154.657.32.976.5s.631.366.934.565q.236.155.465.318l.184.132.124.089c.031.023.2.163.062.047s.079.062.119.1l.2.167c.144.121.285.243.424.369.279.25.547.511.806.781s.49.533.721.813c.056.067.111.134.166.2a.646.646,0,0,1,.092.117s-.139-.184-.062-.083c.109.153.224.3.333.454a15.034,15.034,0,0,1,1.139,1.9c.08.158.156.317.229.479.037.081.072.161.108.242s.1.134-.026-.062a.862.862,0,0,1,.057.141q.217.529.391,1.076a15,15,0,0,1,.525,2.221c.014.089.023.185.04.271,0,0-.03-.241-.017-.11.006.053.013.1.019.157.021.183.039.368.054.553.029.386.042.773.043,1.16a1.158,1.158,0,0,0,1.145,1.145,1.167,1.167,0,0,0,1.144-1.145,16.09,16.09,0,0,0-2.942-9.276,16.413,16.413,0,0,0-7.692-5.875,16.15,16.15,0,0,0-9.891-.345,16.1,16.1,0,0,0-7.952,5.186,16.331,16.331,0,0,0-3.691,9.111,16.1,16.1,0,0,0,2.273,9.535,16.132,16.132,0,0,0,7.054,6.3,16.41,16.41,0,0,0,10.025,1.138,16.078,16.078,0,0,0,8.334-4.621,16.035,16.035,0,0,0,4.26-8.557,17.487,17.487,0,0,0,.216-2.6,1.157,1.157,0,0,0-1.145-1.145A1.168,1.168,0,0,0-5779.223,2528.985Z" transform="translate(5943.57 -2378.17)" fill="#fff"/>
    </g>
    <g transform="matrix(1, 0, 0, 1, 1439.9, 992.09)" filter="url(#Path_1446)">
      <path id="Path_1446-2" data-name="Path 1446" d="M-5792.98,2545.668a16.81,16.81,0,0,1-6.971-1.516,16.618,16.618,0,0,1-7.293-6.509,16.544,16.544,0,0,1-2.349-9.853,16.786,16.786,0,0,1,3.812-9.412,16.575,16.575,0,0,1,8.22-5.36,16.581,16.581,0,0,1,10.22.355,16.883,16.883,0,0,1,7.948,6.07,16.538,16.538,0,0,1,3.042,9.587q0,.076-.009.152a18.146,18.146,0,0,1-.222,2.527,16.506,16.506,0,0,1-4.4,8.843,16.537,16.537,0,0,1-8.613,4.774A17.015,17.015,0,0,1-5792.98,2545.668Zm-.016-32.214a15.577,15.577,0,0,0-4.271.6,15.493,15.493,0,0,0-7.687,5.011,15.709,15.709,0,0,0-3.567,8.809,15.468,15.468,0,0,0,2.2,9.214,15.543,15.543,0,0,0,6.818,6.087,15.758,15.758,0,0,0,9.693,1.1,15.457,15.457,0,0,0,8.052-4.464,15.426,15.426,0,0,0,4.117-8.271q.071-.452.12-.908a1.7,1.7,0,0,1-.5.084,1.734,1.734,0,0,1-.692-.154l-.045.351a.844.844,0,0,1-.016.1l-.032.211a15.38,15.38,0,0,1-.555,2.294c-.063.195-.131.386-.2.577l.02.007-.236.561c-.013.029-.027.057-.041.082l-.069.154c-.083.18-.167.355-.254.53a15.553,15.553,0,0,1-1.139,1.9l.018.016-.705.9-.012-.009q-.33.387-.679.75-.391.405-.81.78c-.095.085-.192.17-.29.254l.014.019-.917.7-.014-.015c-.465.322-.944.625-1.435.9-.25.136-.5.266-.752.387l.007.016-1.009.433-.01-.016-.111.041a15.389,15.389,0,0,1-2.267.637c-.185.037-.37.071-.555.1l-.6.086-.012-.01c-.363.039-.683.061-1,.073a16.014,16.014,0,0,1-2.328-.088.972.972,0,0,1-.243-.028l-.032-.008-.172-.026c-.2-.032-.4-.069-.6-.109-.38-.077-.757-.168-1.128-.273s-.76-.23-1.132-.367l-.014-.005-.008.016-1.044-.441.006-.019a15.465,15.465,0,0,1-1.81-1.02c-.152-.1-.3-.2-.448-.307a1.346,1.346,0,0,1-.173-.1l-.086.017-.463-.465c-.161-.135-.317-.269-.471-.406a15.686,15.686,0,0,1-1.557-1.621l-.171-.208a2.747,2.747,0,0,1-.441-.6c-.183-.254-.389-.57-.583-.893s-.376-.653-.547-.991c-.082-.165-.162-.329-.238-.495l-.118-.266a.8.8,0,0,1-.071-.171,15.775,15.775,0,0,1-.689-2.165c-.089-.38-.166-.76-.227-1.146l-.027-.183h0a1.108,1.108,0,0,1-.025-.172l-.008-.116c-.021-.185-.036-.333-.046-.481a15.7,15.7,0,0,1,0-2.443c.015-.192.033-.382.056-.573a.851.851,0,0,1,.029-.216l.031-.2c.063-.384.141-.767.234-1.146a16.162,16.162,0,0,1,.515-1.686l-.021-.009.231-.541a.773.773,0,0,1,.066-.125l-.005,0,.074-.167c.083-.18.167-.355.255-.529.17-.338.354-.67.552-.994s.414-.657.641-.974c.022-.043.049-.087.08-.134l-.018-.083.5-.506a15.476,15.476,0,0,1,1.589-1.641c.084-.075.169-.148.254-.22l-.012-.016.909-.7.014.014c.163-.115.324-.227.487-.332a15.73,15.73,0,0,1,2.019-1.107l.1-.044a.848.848,0,0,1,.274-.115c.141-.058.313-.123.484-.186q.544-.2,1.1-.352c.386-.109.777-.2,1.171-.278.183-.036.368-.069.555-.1l.188-.028a1.19,1.19,0,0,1,.168-.022l.077-.007a16.1,16.1,0,0,1,2.388-.082c.218.01.437.023.654.042l0-.02,1.115.15v.014c.12.021.237.044.354.068a15.418,15.418,0,0,1,2.261.643l.015,0,.007-.017,1.052.446-.005.017q.421.2.832.431c.332.185.654.38.968.587.161.105.323.215.481.328l.334.242.028.021h0l.009.007c.049.038.1.08.15.123l.2.163c.15.127.3.252.442.384q.43.389.833.808c.221.23.432.468.638.711l.016-.009.285.37a1.092,1.092,0,0,1,.1.135l.262.359a15.571,15.571,0,0,1,1.181,1.973c.082.166.162.329.238.495l.063.141a.841.841,0,0,1,.142.344c.119.3.24.634.349.974a15.443,15.443,0,0,1,.544,2.3l.024.159h0l.007.05c0,.025.009.052.012.077h0c.012.1.022.2.031.284a1.707,1.707,0,0,1,.666-.147,1.718,1.718,0,0,1,.543.094,15.479,15.479,0,0,0-2.764-7.37,15.821,15.821,0,0,0-7.439-5.681A15.569,15.569,0,0,0-5793,2513.454Zm-1.743,28.752a15.51,15.51,0,0,0,2.278.089c.277-.01.555-.029.832-.055l.01-.022.438-.029h.01l.188-.027c.172-.029.345-.06.518-.094a14.575,14.575,0,0,0,2.106-.592c.17-.063.343-.131.515-.2l.262-.116q.481-.219.945-.474a18,18,0,0,0,1.784-1.161l.252-.206c.14-.116.277-.236.412-.356.261-.233.512-.474.753-.726s.476-.51.7-.778l.525-.684a14.214,14.214,0,0,0,1.1-1.833q.123-.244.238-.494l.105-.238.005-.011,0-.013c.13-.327.259-.662.37-1a14.42,14.42,0,0,0,.516-2.137l.034-.223,0-.02.01-.087c.021-.178.039-.356.053-.534.03-.387.045-.77.045-1.156v-.011c0-.042,0-.083.007-.124,0-.327-.017-.653-.042-.978-.014-.177-.03-.355-.051-.532l-.026-.195a14.5,14.5,0,0,0-.521-2.242c-.112-.352-.237-.7-.375-1.036l0,0-.135-.3q-.106-.233-.221-.461a14.55,14.55,0,0,0-1.1-1.834l-.235-.323a.912.912,0,0,1-.117-.153l-.148-.178c-.226-.274-.457-.536-.7-.788s-.509-.512-.777-.754c-.134-.123-.271-.24-.41-.356l-.655-.5q-.225-.16-.45-.308c-.292-.194-.593-.374-.9-.544s-.623-.333-.942-.481l-.327-.148c-.2-.077-.337-.133-.479-.186a14.441,14.441,0,0,0-2.105-.6c-.186-.038-.371-.071-.555-.1l-.3-.043c-.367-.043-.737-.073-1.106-.088a13.94,13.94,0,0,0-2.27.081c-.082.012-.14.02-.188.023l-.151.022c-.168.027-.341.057-.513.093q-.552.108-1.09.258-.514.145-1.02.327c-.171.063-.343.129-.514.2v0l-.27.121a14.385,14.385,0,0,0-1.875,1.028c-.3.2-.593.409-.883.621l-.056.041v0l-.2.162c-.129.109-.257.219-.384.332a14.464,14.464,0,0,0-1.479,1.527l-.435.537c-.014.022-.026.045-.04.068-.243.346-.441.649-.628.959s-.354.608-.511.92c-.081.163-.161.328-.237.494l-.07.155c-.011.025-.022.05-.035.071l-.013.034a14.867,14.867,0,0,0-.675,2.076q-.13.528-.217,1.064l-.04.258-.008.044-.006.051c-.023.228-.04.391-.052.552a14.627,14.627,0,0,0,0,2.275q.021.284.055.57c.009.057.015.1.02.144l.022.153c.057.355.127.711.211,1.064a14.433,14.433,0,0,0,.665,2.072c.011.024.021.046.031.069h0l.014.038.1.22c.072.155.146.31.223.462q.239.473.508.922t.574.88c.032.057.063.109.094.156l.175.212v0l.094.123,0,0,.162.2a14.569,14.569,0,0,0,1.448,1.507c.144.13.29.256.438.38l.525.424c.025.016.051.031.078.045.19.131.33.225.473.318a14.2,14.2,0,0,0,1.873,1.041l.292.129c.161.066.32.129.483.188.347.128.7.243,1.054.342s.7.183,1.051.255c.184.037.369.071.555.1l.172.026C-5794.817,2542.192-5794.779,2542.2-5794.739,2542.206Zm-12.509-11.327h0Zm27.429-.146v.017l0-.016Zm1.18-1.786v.082a.624.624,0,0,0,.612.61.624.624,0,0,0,.593-.526v-.093a.621.621,0,0,0-.612-.6A.625.625,0,0,0-5778.64,2528.947Zm-2.026-5.542.32.206Zm.493-.245-.027.355.341-.234A.632.632,0,0,0-5780.174,2523.16Z" transform="translate(5943.53 -2378.21)" fill="#fff"/>
    </g>
    <g transform="matrix(1, 0, 0, 1, 1439.9, 992.09)" filter="url(#Path_1447)">
      <path id="Path_1447-2" data-name="Path 1447" d="M-5800.515,2530.845l4.664,3.53.669.507a1.151,1.151,0,0,0,1.566-.411l2.164-3.967,3.447-6.319.788-1.446a1.163,1.163,0,0,0-.41-1.566,1.162,1.162,0,0,0-1.566.411l-2.164,3.967-3.447,6.32-.789,1.446,1.565-.41-4.663-3.53-.67-.507a1.146,1.146,0,0,0-1.565.411,1.179,1.179,0,0,0,.41,1.565Z" transform="translate(5944.18 -2377.56)" fill="#fff"/>
    </g>
    <g transform="matrix(1, 0, 0, 1, 1439.9, 992.09)" filter="url(#Path_1501)">
      <path id="Path_1501-2" data-name="Path 1501" d="M-5773.429,2584.182h-38.465a12.644,12.644,0,0,1-8.994-3.758,12.644,12.644,0,0,1-3.7-9.011V2488.2a12.741,12.741,0,0,1,12.685-12.76h40.07a12.744,12.744,0,0,1,12.691,12.767v.035l-1.6,83.222a12.609,12.609,0,0,1-3.7,8.962A12.636,12.636,0,0,1-5773.429,2584.182Zm1.59-104.438h-40.054a8.433,8.433,0,0,0-8.389,8.451v83.227a8.369,8.369,0,0,0,2.448,5.971,8.366,8.366,0,0,0,5.947,2.487h38.453a8.366,8.366,0,0,0,5.94-2.486,8.36,8.36,0,0,0,2.448-5.962l1.6-83.253A8.433,8.433,0,0,0-5771.839,2479.743Z" transform="translate(5942.4 -2381.01)" fill="#fff"/>
    </g>
    <g transform="matrix(1, 0, 0, 1, 1439.9, 992.09)" filter="url(#Path_1502)">
      <path id="Path_1502-2" data-name="Path 1502" d="M-5773.69,2583.01h-38.694a11.692,11.692,0,0,1-11.68-11.679v-83.2a11.693,11.693,0,0,1,11.68-11.681h40.307a11.693,11.693,0,0,1,11.68,11.681v9.757h-2.151v-9.757a9.54,9.54,0,0,0-9.529-9.529h-40.307a9.54,9.54,0,0,0-9.528,9.529v83.2a9.539,9.539,0,0,0,9.528,9.527h38.694a9.539,9.539,0,0,0,9.529-9.527v-3.692h2.152v3.692A11.693,11.693,0,0,1-5773.69,2583.01Z" transform="translate(5942.44 -2380.94)" fill="#fff"/>
    </g>
    <g transform="matrix(1, 0, 0, 1, 1439.9, 992.09)" filter="url(#Path_1503)">
      <path id="Path_1503-2" data-name="Path 1503" d="M-5783.792,2491.811h-18a8.612,8.612,0,0,1-7.579-4.512l-4.734-8.734,3.783-2.051,4.735,8.734a4.311,4.311,0,0,0,3.795,2.259h18a4.31,4.31,0,0,0,3.794-2.259l4.735-8.734,3.784,2.051-4.735,8.734A8.612,8.612,0,0,1-5783.792,2491.811Z" transform="translate(5943.19 -2380.93)" fill="#fff"/>
    </g>
    <g transform="matrix(1, 0, 0, 1, 1439.9, 992.09)" filter="url(#Path_1504)">
      <path id="Path_1504-2" data-name="Path 1504" d="M-5812.9,2479.324l4.417,8.148a8.057,8.057,0,0,0,6.417,4.341c.957.093,1.945.029,2.9.029h11.7c1.121,0,2.243,0,3.364,0a7.934,7.934,0,0,0,6.936-4.043c1.507-2.719,2.963-5.466,4.445-8.2l.151-.277a1.553,1.553,0,0,0-.546-2.082,1.539,1.539,0,0,0-2.081.547l-4.35,8.028c-.076.141-.151.282-.228.422-.066.117-.133.238-.205.352a4.717,4.717,0,0,1-.293.429c.141-.186-.012.009-.038.038-.083.089-.162.182-.247.27-.117.122-.24.24-.369.352-.072.064-.147.128-.223.187.058-.044.2-.131-.041.022a7.973,7.973,0,0,1-1.009.57c.241-.108-.175.058-.246.082-.162.054-.326.1-.492.141-.062.015-.6.113-.319.075a5.506,5.506,0,0,1-.594.042c-.854.021-1.71,0-2.564,0h-15.208a5.5,5.5,0,0,1-.593-.042c.265.034-.176-.042-.248-.059-.167-.039-.332-.084-.494-.134-.093-.029-.184-.062-.275-.094-.256-.087.039.027-.106-.042a8.157,8.157,0,0,1-.944-.539s-.2-.144-.079-.054-.1-.085-.129-.109a6.16,6.16,0,0,1-.475-.453c-.063-.067-.305-.347-.261-.293.09.117-.056-.077-.059-.083-.059-.082-.112-.162-.166-.246-.086-.136-.166-.275-.243-.417-1.5-2.717-2.961-5.46-4.44-8.189l-.143-.261a1.542,1.542,0,0,0-2.081-.545,1.546,1.546,0,0,0-.545,2.081Z" transform="translate(5943.27 -2380.89)" fill="#fff"/>
    </g>
  </g>
</svg>
