<svg xmlns="http://www.w3.org/2000/svg" xmlns:xlink="http://www.w3.org/1999/xlink" width="270.624" height="123.749" viewBox="0 0 270.624 123.749">
  <defs>
    <filter id="Path_1452" x="0" y="46.04" width="66.605" height="68.72" filterUnits="userSpaceOnUse">
      <feOffset dy="3" input="SourceAlpha"/>
      <feGaussianBlur stdDeviation="10" result="blur"/>
      <feFlood flood-color="#6f2ec3" flood-opacity="0.384"/>
      <feComposite operator="in" in2="blur"/>
      <feComposite in="SourceGraphic"/>
    </filter>
    <filter id="Path_1453" x="11.528" y="0" width="238.574" height="99.13" filterUnits="userSpaceOnUse">
      <feOffset dy="3" input="SourceAlpha"/>
      <feGaussianBlur stdDeviation="10" result="blur-2"/>
      <feFlood flood-color="#6f2ec3" flood-opacity="0.384"/>
      <feComposite operator="in" in2="blur-2"/>
      <feComposite in="SourceGraphic"/>
    </filter>
    <filter id="Path_1454" x="194.782" y="46.056" width="66.648" height="68.703" filterUnits="userSpaceOnUse">
      <feOffset dy="3" input="SourceAlpha"/>
      <feGaussianBlur stdDeviation="10" result="blur-3"/>
      <feFlood flood-color="#6f2ec3" flood-opacity="0.384"/>
      <feComposite operator="in" in2="blur-3"/>
      <feComposite in="SourceGraphic"/>
    </filter>
    <filter id="Path_1455" x="192.303" y="49.437" width="78.32" height="74.312" filterUnits="userSpaceOnUse">
      <feOffset dy="3" input="SourceAlpha"/>
      <feGaussianBlur stdDeviation="10" result="blur-4"/>
      <feFlood flood-color="#6f2ec3" flood-opacity="0.384"/>
      <feComposite operator="in" in2="blur-4"/>
      <feComposite in="SourceGraphic"/>
    </filter>
  </defs>
  <g id="Group_1518" data-name="Group 1518" transform="translate(-395.406 -964.925)">
    <g transform="matrix(1, 0, 0, 1, 395.41, 964.92)" filter="url(#Path_1452)">
      <path id="Path_1452-2" data-name="Path 1452" d="M-6875.49,2439.032a1.623,1.623,0,0,1-.722-.171,1.615,1.615,0,0,1-.721-2.164,52.9,52.9,0,0,1,3.491-5.684,1.614,1.614,0,0,1,2.245-.417,1.614,1.614,0,0,1,.416,2.244,51.278,51.278,0,0,0-3.265,5.3A1.616,1.616,0,0,1-6875.49,2439.032Z" transform="translate(6907.1 -2357.27)" fill="#7024c0"/>
    </g>
    <g transform="matrix(1, 0, 0, 1, 395.41, 964.92)" filter="url(#Path_1453)">
      <path id="Path_1453-2" data-name="Path 1453" d="M-6864.775,2426.647a1.6,1.6,0,0,1-1.095-.429,1.613,1.613,0,0,1-.089-2.281,104.278,104.278,0,0,1,9.576-9.109,1.614,1.614,0,0,1,2.273.2,1.612,1.612,0,0,1-.2,2.273,101.5,101.5,0,0,0-9.28,8.827A1.607,1.607,0,0,1-6864.775,2426.647Zm175.347-.166a1.614,1.614,0,0,1-1.214-.55,97.489,97.489,0,0,0-9.042-9.048,1.613,1.613,0,0,1-.149-2.277,1.612,1.612,0,0,1,2.276-.148,100.646,100.646,0,0,1,9.342,9.347,1.614,1.614,0,0,1-.15,2.277A1.609,1.609,0,0,1-6689.428,2426.482Zm-155.453-16.532a1.61,1.61,0,0,1-1.354-.735,1.613,1.613,0,0,1,.474-2.232,112.519,112.519,0,0,1,11.478-6.518,1.613,1.613,0,0,1,2.161.734,1.614,1.614,0,0,1-.733,2.161,109.645,109.645,0,0,0-11.149,6.329A1.6,1.6,0,0,1-6844.881,2409.95Zm135.942-.585a1.6,1.6,0,0,1-.9-.273,104.919,104.919,0,0,0-11.066-6.458,1.612,1.612,0,0,1-.714-2.167,1.613,1.613,0,0,1,2.168-.713,107.672,107.672,0,0,1,11.409,6.657,1.612,1.612,0,0,1,.443,2.238A1.611,1.611,0,0,1-6708.938,2409.364Zm-112.655-10.918a1.613,1.613,0,0,1-1.518-1.067,1.612,1.612,0,0,1,.972-2.064,125.846,125.846,0,0,1,12.618-3.8,1.61,1.61,0,0,1,1.952,1.185,1.614,1.614,0,0,1-1.184,1.951,122.917,122.917,0,0,0-12.293,3.7A1.612,1.612,0,0,1-6821.594,2398.446Zm89.473-.809a1.594,1.594,0,0,1-.554-.1,115.287,115.287,0,0,0-12.287-3.729,1.613,1.613,0,0,1-1.187-1.949,1.616,1.616,0,0,1,1.949-1.187,117.8,117.8,0,0,1,12.633,3.835,1.612,1.612,0,0,1,.961,2.069A1.614,1.614,0,0,1-6732.121,2397.637Zm-64.247-5.411a1.615,1.615,0,0,1-1.6-1.385,1.614,1.614,0,0,1,1.366-1.827c4.25-.613,8.653-1.049,13.087-1.3a1.63,1.63,0,0,1,1.7,1.522,1.614,1.614,0,0,1-1.521,1.7c-4.341.242-8.649.668-12.805,1.268A1.582,1.582,0,0,1-6796.368,2392.226Zm38.971-.7a1.636,1.636,0,0,1-.188-.011c-2.8-.325-4.438-.375-4.455-.375q-4.3-.3-8.408-.394a1.615,1.615,0,0,1-1.576-1.653,1.626,1.626,0,0,1,1.651-1.575c2.783.064,5.641.2,8.491.4.01.035,1.716.049,4.669.392a1.615,1.615,0,0,1,1.417,1.789A1.613,1.613,0,0,1-6757.4,2391.524Z" transform="translate(6907.92 -2360.52)" fill="#7024c0"/>
    </g>
    <g transform="matrix(1, 0, 0, 1, 395.41, 964.92)" filter="url(#Path_1454)">
      <path id="Path_1454-2" data-name="Path 1454" d="M-6691.013,2439.031a1.613,1.613,0,0,1-1.4-.8c-1.066-1.831-2.2-3.645-3.367-5.391a1.614,1.614,0,0,1,.444-2.239,1.614,1.614,0,0,1,2.238.444c1.206,1.8,2.374,3.673,3.474,5.561a1.614,1.614,0,0,1-.582,2.207A1.6,1.6,0,0,1-6691.013,2439.031Z" transform="translate(6920.83 -2357.27)" fill="#7024c0"/>
    </g>
    <g transform="matrix(1, 0, 0, 1, 395.41, 964.92)" filter="url(#Path_1455)">
      <path id="Path_1455-2" data-name="Path 1455" d="M-6682.509,2447.782l-1.072-.22c-4.756-.982-12.679-2.539-13.695-2.539a1.076,1.076,0,0,1-1.076-1.076,1.075,1.075,0,0,1,1.076-1.076c1.354,0,9.671,1.672,13.059,2.364l2.053-10.888a1.075,1.075,0,0,1,1.256-.857,1.077,1.077,0,0,1,.858,1.257Z" transform="translate(6920.65 -2357.03)" fill="#7024c0"/>
    </g>
  </g>
</svg>
