<svg xmlns="http://www.w3.org/2000/svg" xmlns:xlink="http://www.w3.org/1999/xlink" width="270.624" height="123.75" viewBox="0 0 270.624 123.75">
  <defs>
    <filter id="Path_1456" x="0" y="8.991" width="66.606" height="68.718" filterUnits="userSpaceOnUse">
      <feOffset dy="3" input="SourceAlpha"/>
      <feGaussianBlur stdDeviation="10" result="blur"/>
      <feFlood flood-color="#6f2ec3" flood-opacity="0.384"/>
      <feComposite operator="in" in2="blur"/>
      <feComposite in="SourceGraphic"/>
    </filter>
    <filter id="Path_1457" x="11.528" y="24.619" width="238.574" height="99.131" filterUnits="userSpaceOnUse">
      <feOffset dy="3" input="SourceAlpha"/>
      <feGaussianBlur stdDeviation="10" result="blur-2"/>
      <feFlood flood-color="#6f2ec3" flood-opacity="0.384"/>
      <feComposite operator="in" in2="blur-2"/>
      <feComposite in="SourceGraphic"/>
    </filter>
    <filter id="Path_1458" x="194.783" y="8.989" width="66.648" height="68.704" filterUnits="userSpaceOnUse">
      <feOffset dy="3" input="SourceAlpha"/>
      <feGaussianBlur stdDeviation="10" result="blur-3"/>
      <feFlood flood-color="#6f2ec3" flood-opacity="0.384"/>
      <feComposite operator="in" in2="blur-3"/>
      <feComposite in="SourceGraphic"/>
    </filter>
    <filter id="Path_1459" x="192.303" y="0" width="78.321" height="74.313" filterUnits="userSpaceOnUse">
      <feOffset dy="3" input="SourceAlpha"/>
      <feGaussianBlur stdDeviation="10" result="blur-4"/>
      <feFlood flood-color="#6f2ec3" flood-opacity="0.384"/>
      <feComposite operator="in" in2="blur-4"/>
      <feComposite in="SourceGraphic"/>
    </filter>
  </defs>
  <g id="Group_1519" data-name="Group 1519" transform="translate(-822.396 -1191.175)">
    <g transform="matrix(1, 0, 0, 1, 822.4, 1191.17)" filter="url(#Path_1456)">
      <path id="Path_1456-2" data-name="Path 1456" d="M-6475.208,2614.9a1.611,1.611,0,0,1-1.331-.7,53.115,53.115,0,0,1-3.492-5.683,1.615,1.615,0,0,1,.721-2.165,1.617,1.617,0,0,1,2.166.72,51.225,51.225,0,0,0,3.265,5.3,1.613,1.613,0,0,1-.415,2.243A1.607,1.607,0,0,1-6475.208,2614.9Z" transform="translate(6510.2 -2570.19)" fill="#7024c0"/>
    </g>
    <g transform="matrix(1, 0, 0, 1, 822.4, 1191.17)" filter="url(#Path_1457)">
      <path id="Path_1457-2" data-name="Path 1457" d="M-6373.511,2659.84a1.612,1.612,0,0,1-1.612-1.576,1.614,1.614,0,0,1,1.575-1.651c2.735-.063,5.542-.2,8.343-.391.083,0,1.722-.054,4.521-.38a1.611,1.611,0,0,1,1.789,1.418,1.614,1.614,0,0,1-1.417,1.789c-2.956.344-4.665.394-4.736.4-2.783.2-5.64.33-8.424.4Zm-13.006-.2h-.092c-4.434-.249-8.836-.684-13.085-1.3a1.611,1.611,0,0,1-1.366-1.827,1.612,1.612,0,0,1,1.827-1.366c4.156.6,8.464,1.026,12.8,1.267a1.614,1.614,0,0,1,1.521,1.7A1.613,1.613,0,0,1-6386.517,2659.64Zm38.837-2.912a1.614,1.614,0,0,1-1.566-1.232,1.613,1.613,0,0,1,1.186-1.949,114.985,114.985,0,0,0,12.288-3.729,1.614,1.614,0,0,1,2.07.959,1.613,1.613,0,0,1-.96,2.07,117.8,117.8,0,0,1-12.633,3.834A1.556,1.556,0,0,1-6347.68,2656.728Zm-64.555-.842a1.57,1.57,0,0,1-.385-.046,125.741,125.741,0,0,1-12.62-3.8,1.613,1.613,0,0,1-.971-2.064,1.611,1.611,0,0,1,2.064-.971,122.553,122.553,0,0,0,12.294,3.7,1.615,1.615,0,0,1,1.184,1.952A1.614,1.614,0,0,1-6412.235,2655.886Zm88.963-8.11a1.615,1.615,0,0,1-1.441-.886,1.613,1.613,0,0,1,.713-2.168,104.854,104.854,0,0,0,11.067-6.458,1.613,1.613,0,0,1,2.239.442,1.615,1.615,0,0,1-.442,2.24,108.05,108.05,0,0,1-11.41,6.657A1.609,1.609,0,0,1-6323.272,2647.776Zm-113.4-.719a1.624,1.624,0,0,1-.712-.166,112.638,112.638,0,0,1-11.478-6.519,1.613,1.613,0,0,1-.476-2.231,1.613,1.613,0,0,1,2.232-.475,109.376,109.376,0,0,0,11.148,6.328,1.615,1.615,0,0,1,.734,2.161A1.611,1.611,0,0,1-6436.668,2647.058Zm134.951-13.76a1.612,1.612,0,0,1-1.214-.55,1.614,1.614,0,0,1,.15-2.277,97.419,97.419,0,0,0,9.042-9.046,1.613,1.613,0,0,1,2.276-.152,1.614,1.614,0,0,1,.151,2.279,100.851,100.851,0,0,1-9.342,9.347A1.607,1.607,0,0,1-6301.717,2633.3Zm-156.729-.394a1.607,1.607,0,0,1-1.035-.377,104.376,104.376,0,0,1-9.577-9.108,1.616,1.616,0,0,1,.089-2.282,1.615,1.615,0,0,1,2.281.089,101.321,101.321,0,0,0,9.28,8.828,1.612,1.612,0,0,1,.2,2.272A1.611,1.611,0,0,1-6458.446,2632.9Z" transform="translate(6511.01 -2569.09)" fill="#7024c0"/>
    </g>
    <g transform="matrix(1, 0, 0, 1, 822.4, 1191.17)" filter="url(#Path_1458)">
      <path id="Path_1458-2" data-name="Path 1458" d="M-6297.532,2614.885a1.614,1.614,0,0,1-.9-.271,1.615,1.615,0,0,1-.445-2.239c1.17-1.751,2.3-3.566,3.366-5.392a1.614,1.614,0,0,1,2.207-.583,1.615,1.615,0,0,1,.583,2.208c-1.1,1.884-2.265,3.754-3.473,5.561A1.61,1.61,0,0,1-6297.532,2614.885Z" transform="translate(6523.93 -2570.19)" fill="#7024c0"/>
    </g>
    <g transform="matrix(1, 0, 0, 1, 822.4, 1191.17)" filter="url(#Path_1459)">
      <path id="Path_1459-2" data-name="Path 1459" d="M-6284.206,2612.137a1.078,1.078,0,0,1-1.057-.877l-2.053-10.888c-3.388.693-11.7,2.365-13.058,2.365a1.077,1.077,0,0,1-1.076-1.076,1.076,1.076,0,0,1,1.076-1.076c1.016,0,8.939-1.558,13.695-2.54l1.072-.22,2.459,13.036a1.077,1.077,0,0,1-.858,1.257A1.061,1.061,0,0,1-6284.206,2612.137Z" transform="translate(6523.75 -2570.82)" fill="#7024c0"/>
    </g>
  </g>
</svg>
