<svg xmlns="http://www.w3.org/2000/svg" xmlns:xlink="http://www.w3.org/1999/xlink" width="971.119" height="997.642" viewBox="0 0 971.119 997.642">
  <defs>
    <filter id="Path_901" x="0" y="0" width="971.119" height="997.642" filterUnits="userSpaceOnUse">
      <feOffset dy="3" input="SourceAlpha"/>
      <feGaussianBlur stdDeviation="15" result="blur"/>
      <feFlood flood-color="#6f2ec3" flood-opacity="0.224"/>
      <feComposite operator="in" in2="blur"/>
      <feComposite in="SourceGraphic"/>
    </filter>
  </defs>
  <g id="Group_692" data-name="Group 692" transform="translate(-683.035 -39.679)" style="isolation: isolate">
    <g transform="matrix(1, 0, 0, 1, 683.04, 39.68)" filter="url(#Path_901)">
      <path id="Path_901-2" data-name="Path 901" d="M877.059,724.982h-.339c-37.353-.485-69.121-46.1-90.189-87.09-130.208-41.147-216.355-159.65-215.174-297.28.709-82.477,33.575-159.822,92.546-217.79s136.75-89.474,219.347-88.794A306.982,306.982,0,0,1,993.454,55.67c43.617,14.1,84.576,49.693,86.3,51.21a308.287,308.287,0,0,1,110.074,239.042c-.588,68.835-22.934,133.611-64.617,187.325A305.6,305.6,0,0,1,967.872,639.967C935.685,696.39,905.151,724.98,877.059,724.982ZM880.54,69.117a274.483,274.483,0,0,0-274.084,271.8c-1.069,124.308,78.2,231.008,197.253,265.51l7.439,2.154,3.42,6.95c25.176,51.132,49.473,74.189,62.381,74.355h.066c11.242,0,35.91-22.922,63.758-73.351l3.621-6.554,7.236-1.922c120.414-32.007,202.032-137.473,203.105-262.435A273.5,273.5,0,0,0,1056.89,133.5c-.62-.54-37.9-32.866-74.676-44.578l-1.132-.406a272.075,272.075,0,0,0-98.135-19.392C882.148,69.12,881.338,69.117,880.54,69.117Z" transform="translate(-87.31 -273.13) rotate(30)" fill="#af90f4"/>
    </g>
  </g>
</svg>
