<svg xmlns="http://www.w3.org/2000/svg" width="937.894" height="1047.778" viewBox="0 0 937.894 1047.778">
  <g id="Group_1446" data-name="Group 1446" transform="translate(-134.517 -27.53)" style="mix-blend-mode: multiply;isolation: isolate">
    <path id="Path_2253" data-name="Path 2253" d="M598.1,1075.308c-.172,0-.339,0-.515,0-56.642-.733-104.815-69.906-136.763-132.063-197.447-62.395-328.081-242.09-326.29-450.792,1.075-125.068,50.916-242.357,140.336-330.26S482.239,26.515,607.488,27.547A465.5,465.5,0,0,1,774.6,60.36c66.141,21.374,128.251,75.357,130.872,77.654A467.5,467.5,0,0,1,1072.393,500.5c-.891,104.381-34.776,202.607-97.985,284.059-60.724,78.249-143.036,134.029-238.6,161.828C687,1031.948,640.7,1075.3,598.1,1075.308ZM603.38,80.753c-109.5,0-212.775,42.311-291.2,119.4C232.9,278.086,188.711,382.056,187.759,492.905c-1.621,188.5,118.586,350.3,299.114,402.619l11.281,3.269,5.186,10.536c38.177,77.539,75.021,112.5,94.6,112.755h.1c17.048,0,54.454-34.759,96.682-111.232l5.491-9.938L711.183,898c182.6-48.535,306.362-208.461,307.989-397.953,1.064-124.134-53.014-241.371-148.374-321.656-.94-.819-57.479-49.838-113.238-67.6l-1.716-.612A412.514,412.514,0,0,0,607.031,80.771C605.818,80.759,604.591,80.753,603.38,80.753Z" transform="translate(0 0)" fill="#ff730b"/>
  </g>
</svg>
