<svg xmlns="http://www.w3.org/2000/svg" width="251.997" height="119.359" viewBox="0 0 251.997 119.359">
  <g id="Group_153" data-name="Group 153" transform="translate(-1228.293 -11116.271)">
    <g id="Grupo_172" data-name="Grupo 172" transform="translate(1228.293 11148.741)">
      <g id="Grupo_171" data-name="Grupo 171">
        <path id="Trazado_552" data-name="Trazado 552" d="M4075.428,5199.322q-2.382-5.126-5.661-13.843t-6.554-21.122a8,8,0,0,1,2.781-2.1,8.733,8.733,0,0,1,3.873-.872,6.843,6.843,0,0,1,4.22,1.232,8.547,8.547,0,0,1,2.634,4.407q4.666,15.483,10.625,31.375h.4q1.289-3.382,2.738-7.688t2.781-9.023q1.34-4.714,2.533-9.537t2.085-9.329a15.084,15.084,0,0,1,2.533-1.025,9.644,9.644,0,0,1,2.83-.41,8,8,0,0,1,4.468,1.232,4.42,4.42,0,0,1,1.888,4,41.515,41.515,0,0,1-1.291,8.665q-1.292,5.589-3.423,12t-4.816,12.92a117.861,117.861,0,0,1-5.363,11.432,76.161,76.161,0,0,1-9.385,14.1q-4.222,4.664-8.291,4.667a6.989,6.989,0,0,1-5.113-1.9,8.512,8.512,0,0,1-2.433-4.769q1.585-1.437,3.375-3.333t3.574-4.049q1.788-2.153,3.376-4.41a48.315,48.315,0,0,0,2.78-4.41,11.209,11.209,0,0,1-1.739-.77,6.621,6.621,0,0,1-1.687-1.384,18.7,18.7,0,0,1-1.788-2.357A25.467,25.467,0,0,1,4075.428,5199.322Z" transform="translate(-4063.213 -5143.515)" fill="#fff"/>
        <path id="Trazado_553" data-name="Trazado 553" d="M4273.923,5185.746a31.118,31.118,0,0,1-1.739,10.715,23.511,23.511,0,0,1-4.915,8.153,21.151,21.151,0,0,1-7.646,5.178,28.933,28.933,0,0,1-20.06,0,21.443,21.443,0,0,1-7.648-5.127,22.93,22.93,0,0,1-4.915-8.1,31.46,31.46,0,0,1-1.739-10.816,31.13,31.13,0,0,1,1.739-10.716,22.555,22.555,0,0,1,4.965-8.1,21.97,21.97,0,0,1,7.694-5.127,28.36,28.36,0,0,1,19.861,0,21.645,21.645,0,0,1,7.7,5.178,23.116,23.116,0,0,1,4.964,8.153A30.8,30.8,0,0,1,4273.923,5185.746Zm-24.33-15.479a10.024,10.024,0,0,0-8.442,4.051q-3.079,4.052-3.077,11.433,0,7.485,3.028,11.484a10.968,10.968,0,0,0,16.976-.052q3.036-4.053,3.036-11.437t-3.078-11.433a10.024,10.024,0,0,0-8.443-4.047Z" transform="translate(-4177.592 -5142.55)" fill="#fff"/>
        <path id="Trazado_554" data-name="Trazado 554" d="M4417.654,5168.56a16.932,16.932,0,0,1-3.326.307,8.246,8.246,0,0,1-5.214-1.332,5.792,5.792,0,0,1-1.643-4.718V5101.5a12.5,12.5,0,0,1,2.328-.564,20.343,20.343,0,0,1,3.327-.256,8.236,8.236,0,0,1,5.213,1.333,5.793,5.793,0,0,1,1.643,4.717v61.318Q4419.191,5168.251,4417.654,5168.56Z" transform="translate(-4306.182 -5100.653)" fill="#fff"/>
        <path id="Trazado_555" data-name="Trazado 555" d="M4515.633,5185.746a31.148,31.148,0,0,1-1.739,10.715,23.487,23.487,0,0,1-4.915,8.152,21.147,21.147,0,0,1-7.646,5.178,28.934,28.934,0,0,1-20.06,0,21.444,21.444,0,0,1-7.646-5.127,22.93,22.93,0,0,1-4.915-8.1,31.433,31.433,0,0,1-1.738-10.815,31.115,31.115,0,0,1,1.738-10.716,22.559,22.559,0,0,1,4.965-8.1,21.988,21.988,0,0,1,7.7-5.127,28.36,28.36,0,0,1,19.861,0,21.672,21.672,0,0,1,7.7,5.177,23.134,23.134,0,0,1,4.966,8.153A30.834,30.834,0,0,1,4515.633,5185.746Zm-24.329-15.48a10.022,10.022,0,0,0-8.44,4.051q-3.08,4.052-3.079,11.433,0,7.485,3.03,11.484a10.967,10.967,0,0,0,16.977-.053q3.028-4.049,3.028-11.432t-3.077-11.433a10.027,10.027,0,0,0-8.439-4.051Z" transform="translate(-4348.204 -5142.55)" fill="#fff"/>
      </g>
    </g>
    <g id="Grupo_173" data-name="Grupo 173" transform="translate(1409.429 11191.129)">
      <path id="Trazado_556" data-name="Trazado 556" d="M4685.986,5260.351a7.6,7.6,0,0,1-1.658-.171,8.983,8.983,0,0,1-1.378-.418v5.7c-.187.042-.434.093-.745.154a5.411,5.411,0,0,1-1.054.093,2.649,2.649,0,0,1-1.612-.4,1.693,1.693,0,0,1-.527-1.427V5248.17a2.233,2.233,0,0,1,.294-1.209,2.877,2.877,0,0,1,.945-.866,9.866,9.866,0,0,1,2.23-.915,10.717,10.717,0,0,1,3.013-.387,10.5,10.5,0,0,1,3.149.45,6.639,6.639,0,0,1,2.495,1.4,6.388,6.388,0,0,1,1.643,2.4,9.262,9.262,0,0,1,.589,3.471,9.519,9.519,0,0,1-.558,3.41,7,7,0,0,1-1.535,2.448,6.222,6.222,0,0,1-2.327,1.488A8.536,8.536,0,0,1,4685.986,5260.351Zm-.588-3.131a3.755,3.755,0,0,0,2.913-1.147,5.138,5.138,0,0,0,1.054-3.559,4.835,4.835,0,0,0-1.086-3.56,3.833,3.833,0,0,0-2.789-1.056,4.536,4.536,0,0,0-1.472.218,7.609,7.609,0,0,0-1.095.465v7.966a4.391,4.391,0,0,0,2.475.673Z" transform="translate(-4679.001 -5244.781)" fill="#fff"/>
      <path id="Trazado_557" data-name="Trazado 557" d="M4742.464,5244.765a8.15,8.15,0,0,1,4.851,1.3,4.626,4.626,0,0,1,1.813,4.029v7.158a1.759,1.759,0,0,1-.371,1.179,3.883,3.883,0,0,1-.932.775,7.513,7.513,0,0,1-2.2.837,13.436,13.436,0,0,1-3.035.309,8.68,8.68,0,0,1-4.882-1.192,4.022,4.022,0,0,1-1.78-3.58,3.906,3.906,0,0,1,1.317-3.176,6.94,6.94,0,0,1,3.833-1.349l4.245-.434v-.559a1.927,1.927,0,0,0-.853-1.734,4.364,4.364,0,0,0-2.4-.557,9.448,9.448,0,0,0-2.356.294,11.036,11.036,0,0,0-2.045.729,1.988,1.988,0,0,1-.573-.667,1.862,1.862,0,0,1-.232-.914,1.615,1.615,0,0,1,.3-1.008,2.521,2.521,0,0,1,.945-.7,9.168,9.168,0,0,1,2.045-.559A14.382,14.382,0,0,1,4742.464,5244.765Zm.125,12.614a7.4,7.4,0,0,0,1.643-.169,3.078,3.078,0,0,0,1.086-.411v-3.441l-3.012.274a4.34,4.34,0,0,0-1.891.548,1.452,1.452,0,0,0-.652,1.316,1.645,1.645,0,0,0,.667,1.395,3.657,3.657,0,0,0,2.16.5Z" transform="translate(-4719.177 -5244.754)" fill="#fff"/>
      <path id="Trazado_558" data-name="Trazado 558" d="M4801.615,5258.65a7.318,7.318,0,0,1-3.349.744,8.775,8.775,0,0,1-2.635-.388,5.548,5.548,0,0,1-2.169-1.255,6.031,6.031,0,0,1-1.467-2.25,9.194,9.194,0,0,1-.548-3.362,8.629,8.629,0,0,1,.548-3.178,6.124,6.124,0,0,1,1.549-2.308,6.557,6.557,0,0,1,2.4-1.4,9.8,9.8,0,0,1,3.1-.464,10.331,10.331,0,0,1,2.962.4,8.37,8.37,0,0,1,2.153.931,3.3,3.3,0,0,1,.883.836,2.013,2.013,0,0,1,.326,1.179V5260.1a6.044,6.044,0,0,1-.574,2.729,5.15,5.15,0,0,1-1.566,1.875,6.711,6.711,0,0,1-2.328,1.069,11.643,11.643,0,0,1-2.881.341,11.784,11.784,0,0,1-2.805-.3,6.269,6.269,0,0,1-1.78-.667,1.977,1.977,0,0,1-1.023-1.735,2.032,2.032,0,0,1,.248-1.022,1.814,1.814,0,0,1,.59-.65,9.053,9.053,0,0,0,1.951.868,7.892,7.892,0,0,0,2.449.372,5.145,5.145,0,0,0,2.913-.713,2.569,2.569,0,0,0,1.054-2.293Zm-2.7-2.294a4.237,4.237,0,0,0,1.535-.248,4.812,4.812,0,0,0,1.095-.589v-7a5.347,5.347,0,0,0-1.007-.434,4.5,4.5,0,0,0-1.38-.186,3.709,3.709,0,0,0-2.737,1.04,4.375,4.375,0,0,0-1.038,3.208,6.457,6.457,0,0,0,.264,1.983,3.307,3.307,0,0,0,.745,1.3,2.747,2.747,0,0,0,1.131.711A4.358,4.358,0,0,0,4798.918,5256.356Z" transform="translate(-4758.369 -5244.781)" fill="#fff"/>
      <path id="Trazado_559" data-name="Trazado 559" d="M4864.675,5252.567a9.149,9.149,0,0,1-.548,3.24,7.063,7.063,0,0,1-1.533,2.463,6.618,6.618,0,0,1-2.388,1.565,9.311,9.311,0,0,1-6.261,0,6.709,6.709,0,0,1-2.387-1.55,6.884,6.884,0,0,1-1.534-2.448,9.215,9.215,0,0,1-.548-3.271,9.118,9.118,0,0,1,.548-3.238,6.779,6.779,0,0,1,1.55-2.449,6.879,6.879,0,0,1,2.4-1.55,9.127,9.127,0,0,1,6.2,0,6.772,6.772,0,0,1,2.4,1.565,6.963,6.963,0,0,1,1.55,2.465,9.068,9.068,0,0,1,.548,3.207Zm-7.593-4.68a3.169,3.169,0,0,0-2.635,1.226,5.48,5.48,0,0,0-.958,3.454,5.543,5.543,0,0,0,.944,3.473,3.492,3.492,0,0,0,5.3-.017,5.546,5.546,0,0,0,.945-3.457,5.483,5.483,0,0,0-.958-3.455,3.17,3.17,0,0,0-2.64-1.224Z" transform="translate(-4799.331 -5244.778)" fill="#fff"/>
    </g>
    <g id="Grupo_176" data-name="Grupo 176" transform="translate(1401.56 11116.271)">
      <g id="Grupo_174" data-name="Grupo 174" transform="translate(32.909)">
        <path id="Trazado_560" data-name="Trazado 560" d="M4787.04,4990.271a22.924,22.924,0,0,0-12.7,42,18.59,18.59,0,0,0,1.426-5.4,17.737,17.737,0,1,1,15.181,3.6l-1.232.274-.548,1.135a23.989,23.989,0,0,1-2.24,3.648,20.959,20.959,0,0,1-2.067-3.587l-.524-1.193-.977-.225a26.777,26.777,0,0,1-2.054,5.933c2.826,5.074,5.34,5.26,5.658,5.261h.012c2.476,0,5.148-4.381,6.3-6.49a22.917,22.917,0,0,0-6.25-44.965Z" transform="translate(-4764.125 -4990.269)" fill="#fff"/>
      </g>
      <g id="Grupo_175" data-name="Grupo 175" transform="translate(0 8.92)">
        <path id="Trazado_561" data-name="Trazado 561" d="M4698.126,5046.1a20.434,20.434,0,0,1-15.827,19.8l-1.232.274-.547,1.135a27.475,27.475,0,0,1-2.822,4.518,24.106,24.106,0,0,1-2.63-4.459l-.524-1.194-1.272-.292a20.3,20.3,0,1,1,11.573-38.812,24.311,24.311,0,0,1,2.111-4.747,25.483,25.483,0,1,0-18.436,47.514q1.158.449,2.356.785c1.17,2.327,4,7.283,6.871,7.3h.018c2.634,0,5.633-4.982,6.867-7.256a25.481,25.481,0,0,0,9.414-44.222,16.074,16.074,0,0,0-1.933,5.245A20.241,20.241,0,0,1,4698.126,5046.1Z" transform="translate(-4652.248 -5020.594)" fill="#fff"/>
      </g>
    </g>
  </g>
</svg>
