<svg xmlns="http://www.w3.org/2000/svg" width="719.323" height="656.846" viewBox="0 0 719.323 656.846">
  <g id="Group_1501" data-name="Group 1501" transform="translate(-1135.138 -5913.154)">
    <path id="Path_2269" data-name="Path 2269" d="M893.2,611.385s-35.869,71.757-72.3,121.29c-14.5,19.714-29.085,35.906-41.535,42.658-12.187,6.608-22.5,16.875-31.041,28.251C726.206,833.041,716,869.92,716,869.92l-93.17-140.955s3.179-137.784,14.366-160.832c16.3-33.587,24.18-101.448,30.443-114.958,4.647-10.023,17.916-61.793,19.189-65.6.553-1.639,4.968-4.153,10.7-4.148,4.6,0,12.414,4.447,14.384,13.587,9.964,46.2-2.029,76.666-1.893,78.02,3.514,35.5-7.052,61.856.358,68.835.276.258.788.136,1.513-.326,12.844-8.248,92.563-124.469,102.382-126.979C824.648,413.922,893.2,611.385,893.2,611.385Z" transform="translate(679.285 5580.95)" fill="#ffb27d"/>
    <path id="Path_2270" data-name="Path 2270" d="M545.865,1500.759s-1.269,62.638-4.9,147H305.951c53.72-114.556,100.422-210.973,100.422-210.973S540.187,1440.873,545.865,1500.759Z" transform="translate(877.452 4922.215)" fill="#f99746"/>
    <path id="Path_2271" data-name="Path 2271" d="M1406.984,287.084l-28.852,42.3-28.312,41.508a6.48,6.48,0,0,1-5.886,2.6c-6.794-.645-15.2-10.444-21.751-15.869l-.665-.545a20.438,20.438,0,0,1-2.713-28.694l43.274-52.309v0l12.835-15.512a20.438,20.438,0,0,1,28.694-2.713l.664.546A20.443,20.443,0,0,1,1406.984,287.084Z" transform="translate(246.958 5662.399)" fill="#ffb27d"/>
    <path id="Path_2272" data-name="Path 2272" d="M1427.847,367.582l-28.312,41.508a6.48,6.48,0,0,1-5.887,2.6l18.146-97.418C1411.833,314.816,1414.918,358.527,1427.847,367.582Z" transform="translate(197.243 5624.199)" fill="#efa26f"/>
    <path id="Path_2273" data-name="Path 2273" d="M959.847,1301.191c-14.5,19.714-29.085,35.906-41.535,42.658-12.187,6.608-22.5,16.875-31.041,28.251-9.82-4.577-21.013-9.948-31.954-15.266-13.323-6.475-13.834-25.393-.785-32.4.127-.068.253-.138.375-.208,12.228-7,24.758-31.7,24.758-31.7Z" transform="translate(540.332 5012.434)" fill="#efa26f"/>
    <path id="Path_2274" data-name="Path 2274" d="M779.329,400.224,771.78,430.7s6.6,2.7,10.837.6S790.314,401.865,779.329,400.224Z" transform="translate(586.139 5570.447)" fill="#ffc197"/>
    <g id="Group_1471" data-name="Group 1471" transform="translate(1391.203 5913.154)">
      <rect id="Rectangle_2162" data-name="Rectangle 2162" width="220.391" height="414.872" rx="27" fill="#2b478b"/>
      <g id="Group_1470" data-name="Group 1470" transform="translate(10.925 10.283)">
        <path id="Path_2275" data-name="Path 2275" d="M1088.333,295.64V644.179a21.482,21.482,0,0,1-21.34,21.5H911.125a21.479,21.479,0,0,1-21.336-21.5V295.64a21.478,21.478,0,0,1,21.336-21.5h155.869A21.482,21.482,0,0,1,1088.333,295.64Z" transform="translate(-889.789 -274.144)" fill="#c0d8fb"/>
        <path id="Path_2276" data-name="Path 2276" d="M1066.993,274.144,913.053,665.675h-1.928a21.479,21.479,0,0,1-21.336-21.5V295.64a21.478,21.478,0,0,1,21.336-21.5Z" transform="translate(-889.789 -274.144)" fill="#cbe1fd"/>
      </g>
      <path id="Rectangle_2163" data-name="Rectangle 2163" d="M10.406,0H74.035A10.406,10.406,0,0,1,84.441,10.406v0A10.407,10.407,0,0,1,74.034,20.813H10.406A10.406,10.406,0,0,1,0,10.407v0A10.406,10.406,0,0,1,10.406,0Z" transform="translate(67.977 2.431)" fill="#2b478b"/>
      <g id="Group_1500" data-name="Group 1500" transform="translate(233.067 41.52)">
        <g id="Group_1495" data-name="Group 1495" transform="translate(117.673 105.673)">
          <circle id="Ellipse_180" data-name="Ellipse 180" cx="14.389" cy="14.389" r="14.389" fill="#cdbeeb"/>
          <path id="Path_2341" data-name="Path 2341" d="M229.234,96.55a1.682,1.682,0,0,1,1.608,2.141,7.968,7.968,0,0,1-15.347,0A1.68,1.68,0,0,1,217.1,96.55Z" transform="translate(-208.779 -80.523)" fill="#7024c6"/>
          <circle id="Ellipse_181" data-name="Ellipse 181" cx="1.657" cy="1.657" r="1.657" transform="translate(7.761 8.73)" fill="#7024c6"/>
          <circle id="Ellipse_182" data-name="Ellipse 182" cx="1.657" cy="1.657" r="1.657" transform="translate(17.703 8.73)" fill="#7024c6"/>
          <path id="Path_2342" data-name="Path 2342" d="M216.656,100.654a7.861,7.861,0,0,0,7.215,0,3.709,3.709,0,0,0-7.215,0Z" transform="translate(-205.874 -77.539)" fill="#ff6000"/>
        </g>
        <path id="Path_2343" data-name="Path 2343" d="M262.463,65.15a51.712,51.712,0,0,1-29.473,98.113c-4.123,3.3-13.526,10.047-18.84,7.646l-.013,0c-4.858-2.229-6.18-13.951-6.531-19.2A51.711,51.711,0,0,1,262.463,65.15Z" transform="translate(-153.438 -60.453)" fill="#ff9845"/>
        <g id="Group_1497" data-name="Group 1497" transform="translate(124.337 211.467)">
          <path id="Path_2344" data-name="Path 2344" d="M230.81,131.792a40.327,40.327,0,0,1,57.551,55.41c.823,4.039,2.151,12.963-1.409,15.8l-.013.01c-3.27,2.572-11.874-.688-15.637-2.316a40.327,40.327,0,0,1-40.491-68.9Z" transform="translate(-215.435 -123.175)" fill="#ff9845"/>
          <g id="Group_1496" data-name="Group 1496" transform="translate(19.329 24.872)">
            <path id="Path_2345" data-name="Path 2345" d="M223.639,130.792l37.585,19.241-.479,11.507L221.36,131.689l.351-.459a1.541,1.541,0,0,1,1.928-.438Z" transform="translate(-220.712 -130.385)" fill="#a180e9"/>
            <path id="Path_2346" data-name="Path 2346" d="M261.116,160.913l-10.964,3.523-28.539-31.105a1.555,1.555,0,0,1-.091-1.993l.34-.452Zm.479-11.507-2.495-1.9-3.311,5.9Z" transform="translate(-221.082 -129.759)" fill="#7024c0"/>
            <path id="Path_2347" data-name="Path 2347" d="M234.232,138.655l-2.846,7.36-2.269-1.733Z" transform="translate(-202.316 -111.337)" fill="#a180e9"/>
            <path id="Path_2348" data-name="Path 2348" d="M221.617,132.116l31.466,25.751-8.388,11.015a3.641,3.641,0,0,1-6.146-.56L221.4,134.449a2.214,2.214,0,0,1,.212-2.333Zm.529-.695L255.874,154.2l7.856-10.317a3.645,3.645,0,0,0-2.178-5.779L224.338,130.6a2.212,2.212,0,0,0-2.191.826Z" transform="translate(-221.168 -130.552)" fill="#7024c6"/>
          </g>
        </g>
        <g id="Group_1498" data-name="Group 1498" transform="translate(85.066 340.779)">
          <ellipse id="Ellipse_183" data-name="Ellipse 183" cx="15.87" cy="15.87" rx="15.87" ry="15.87" fill="#cdbeeb"/>
          <ellipse id="Ellipse_184" data-name="Ellipse 184" cx="12.184" cy="12.184" rx="12.184" ry="12.184" transform="translate(3.686 3.686)" fill="#7024c6"/>
          <path id="Path_2349" data-name="Path 2349" d="M211.916,163.564v9.013l-4.866,5.142" transform="translate(-196.047 -156.707)" fill="none" stroke="#ff6000" stroke-linecap="round" stroke-miterlimit="10" stroke-width="0.452"/>
          <circle id="Ellipse_185" data-name="Ellipse 185" cx="1.825" cy="1.825" r="1.825" transform="translate(14.045 14.045)" fill="#a180e9"/>
        </g>
        <path id="Path_2350" data-name="Path 2350" d="M365.795,319c-9-22.879-26-42.015-45.882-56.486s-42.6-24.575-65.7-33c-17.69-6.446-37.167-11.989-55.063-6.129-12.026,3.934-23.138,15.728-20.087,28.007,1.746,7.036,7.825,12.393,14.6,14.969s14.211,2.771,21.453,2.485c19.548-.765,40.619-5.755,52.827-21.041,8.408-10.526,11.294-24.295,13.931-37.511,3.344-16.749,6.578-34.713-.121-50.424-5.327-12.491-16.416-21.817-28.634-27.744s-25.64-8.857-38.913-11.729l-24.447-5.293" transform="translate(-178.555 69.156)" fill="none" stroke="#ff6000" stroke-linecap="round" stroke-miterlimit="10" stroke-width="0.452" stroke-dasharray="2.261"/>
        <g id="Group_1499" data-name="Group 1499" transform="translate(57.455 30.219)">
          <path id="Path_2351" data-name="Path 2351" d="M222.788,79.379a7.672,7.672,0,0,1-1.376,4.568,9.451,9.451,0,0,1-4.133,3.108,10.162,10.162,0,0,1,5.1,3.338,8.454,8.454,0,0,1,1.7,5.276q0,5.568-4.046,8.26t-11.719,2.7q-1.113,0-2.374-.057c-.839-.04-1.692-.108-2.549-.206s-1.719-.233-2.579-.411a24.467,24.467,0,0,1-2.4-.614q-2.812-.936-2.812-3.459V73.226a2.31,2.31,0,0,1,.587-1.7,4.178,4.178,0,0,1,1.642-.937,22.381,22.381,0,0,1,4.629-.907q2.635-.263,5.509-.263,7.09,0,10.957,2.431A8.267,8.267,0,0,1,222.788,79.379ZM202.981,84.77h5.92a7.265,7.265,0,0,0,4.717-1.291,4.392,4.392,0,0,0,1.554-3.574q0-4.627-7.151-4.629-1.467,0-2.785.118c-.877.078-1.632.175-2.255.293Zm13.361,10.607a4.489,4.489,0,0,0-1.669-3.692,7.529,7.529,0,0,0-4.835-1.349h-6.858v9.787a15.014,15.014,0,0,0,2.667.408c1.035.081,2.06.118,3.078.118a10.572,10.572,0,0,0,5.6-1.258A4.382,4.382,0,0,0,216.342,95.376Z" transform="translate(-195.597 -69.416)" fill="#390080"/>
          <path id="Path_2352" data-name="Path 2352" d="M228.346,92.515a7.6,7.6,0,0,1-3.048,6.416q-3.05,2.316-8.907,2.313a24.712,24.712,0,0,1-4.366-.351,13.657,13.657,0,0,1-3.4-1.025,6.262,6.262,0,0,1-2.229-1.642,3.3,3.3,0,0,1-.789-2.137,3.651,3.651,0,0,1,.5-1.935,4.107,4.107,0,0,1,1.315-1.345,20.818,20.818,0,0,0,3.783,1.875,13.79,13.79,0,0,0,4.953.819,6.756,6.756,0,0,0,3.631-.792,2.476,2.476,0,0,0,1.231-2.195q0-2.407-3.516-3.166l-3.28-.762A13.574,13.574,0,0,1,207.8,85.6a7.046,7.046,0,0,1-2.077-5.334,7.477,7.477,0,0,1,3.044-6.183q3.05-2.372,8.557-2.374a21.929,21.929,0,0,1,3.9.324,12.68,12.68,0,0,1,3.105.937,6.07,6.07,0,0,1,2.053,1.463,2.937,2.937,0,0,1,.732,1.966,3.57,3.57,0,0,1-.469,1.844,4.2,4.2,0,0,1-1.113,1.261,8.218,8.218,0,0,0-1.379-.7,18.1,18.1,0,0,0-1.875-.644c-.684-.2-1.409-.361-2.168-.5a12.961,12.961,0,0,0-2.259-.2,7.279,7.279,0,0,0-3.574.732,2.285,2.285,0,0,0-1.288,2.08,2.08,2.08,0,0,0,.732,1.639,5.884,5.884,0,0,0,2.549,1.055l2.872.7q4.865,1.113,7.033,3.253A7.521,7.521,0,0,1,228.346,92.515Z" transform="translate(-171.854 -63.976)" fill="#390080"/>
        </g>
      </g>
    </g>
    <g id="Group_1472" data-name="Group 1472" transform="translate(1579.224 6069.98)">
      <path id="Path_2277" data-name="Path 2277" d="M1422.861,704.539l-4.3,1.635-28.933,10.995a18.386,18.386,0,0,1-2.051.65,19.762,19.762,0,0,1-23.366-12.071l-.424-1.111a19.764,19.764,0,0,1,11.42-25.422l26.973-10.249,1.96-.746,4.3-1.635a19.759,19.759,0,0,1,25.417,11.421l.425,1.111A19.765,19.765,0,0,1,1422.861,704.539Z" transform="translate(-1362.506 -665.307)" fill="#ffb27d"/>
      <path id="Path_2278" data-name="Path 2278" d="M1412.464,732.1c-4.829,1.83-13.571,5.077-18.246,5.749-1.322.19-3.76-.529-6.034-3.02a17.831,17.831,0,0,1-3.639-6.563,20.87,20.87,0,0,1-.989-4.188,17.691,17.691,0,0,1,.159-4.982,4.973,4.973,0,0,1,2.76-3.554c.006-.006.016-.006.022-.011a114.089,114.089,0,0,1,17.547-6.88c4.062-1.121,8.17.672,9.456,4.225l.608,1.66,3.1,8.5C1418.5,726.576,1416.409,730.617,1412.464,732.1Z" transform="translate(-1375.604 -692.207)" fill="#ffd3b6"/>
      <path id="Path_2279" data-name="Path 2279" d="M1417.407,740.046c-4.829,1.83-13.571,5.077-18.246,5.749-1.322.19-3.76-.529-6.034-3.02-.244-.566-.465-1.163-.677-1.8a20.854,20.854,0,0,1-.989-4.188,17.677,17.677,0,0,1,.158-4.982,4.975,4.975,0,0,1,2.761-3.554c.005-.006.016-.006.021-.011a114.1,114.1,0,0,1,17.548-6.88,8.318,8.318,0,0,1,7.1,1.126l3.1,8.5C1423.441,734.52,1421.352,738.56,1417.407,740.046Z" transform="translate(-1380.548 -700.15)" fill="#ffc197"/>
    </g>
    <g id="Group_1473" data-name="Group 1473" transform="translate(1587.321 6122.263)">
      <path id="Path_2280" data-name="Path 2280" d="M1423.249,832.492l-22.311,6.074a12.813,12.813,0,0,1-15.683-8.971l-.687-2.526a12.812,12.812,0,0,1,8.971-15.682l22.311-6.074a12.813,12.813,0,0,1,15.683,8.971l.688,2.526A12.813,12.813,0,0,1,1423.249,832.492Z" transform="translate(-1384.12 -804.866)" fill="#ffb27d"/>
      <path id="Path_2281" data-name="Path 2281" d="M1417.771,844.512c-4.1,1.1-11.508,3.026-15.39,3.237-1.412.079-4.241-1.116-6.087-4.829a16.875,16.875,0,0,1-1.639-6.425,12.771,12.771,0,0,1,.5-3.818,3.953,3.953,0,0,1,2.523-2.549c.01-.006.016-.006.021-.011a99.65,99.65,0,0,1,14.9-4.157c3.411-.6,6.648,1.042,7.447,3.855l.576,2.01,1.719,6.034C1423.133,840.652,1421.118,843.624,1417.771,844.512Z" transform="translate(-1390.706 -817.981)" fill="#ffd3b6"/>
      <path id="Path_2282" data-name="Path 2282" d="M1419.757,850.108c-4.1,1.1-11.507,3.026-15.39,3.237-1.412.079-4.241-1.116-6.087-4.829a14.221,14.221,0,0,1-.45-3.078,12.813,12.813,0,0,1,.5-3.819,3.966,3.966,0,0,1,2.523-2.549c.01-.005.016-.005.021-.011a99.037,99.037,0,0,1,14.9-4.152,6.737,6.737,0,0,1,6.833,2.512l1.719,6.034C1425.119,846.247,1423.1,849.219,1419.757,850.108Z" transform="translate(-1392.693 -823.576)" fill="#ffc197"/>
    </g>
    <path id="Path_2283" data-name="Path 2283" d="M512.935,1458.6s45.925,43.985,76.884,60.968l23.44-16.626v24.526s46.1,8.152,60.64,0v-66.884l-129.48-64.909Z" transform="translate(748.011 4947.922)" fill="#ed7d2b"/>
    <path id="Path_2284" data-name="Path 2284" d="M655.34,1457.634c-17.836,3.657-56.279-10.354-56.279-10.354l6.2-59.889-43.441,49.75c-22.107-8.227-56.682-29.695-77.225-43.054-10.228-6.654-16.979-11.3-16.979-11.3,28.989-46.647,58.149-90.277,58.149-90.277,8.559,17.121,28.816,31.99,50.776,43.882,36.492,19.766,77.683,31.313,77.683,31.313C654.214,1403.3,655.34,1457.634,655.34,1457.634Z" transform="translate(776.351 5012.438)" fill="#dceaff"/>
    <g id="Group_1474" data-name="Group 1474" transform="translate(1577.045 6017.238)">
      <path id="Path_2285" data-name="Path 2285" d="M1418.52,573.739c-.158.058-.317.111-.481.164l-29.251,7.51c-12.862,3.305-26.163-3.654-29.558-15.464l-1.74-6.05c-3.263-11.339,3.75-23.2,15.7-27.04l9.657-2.48,19.594-5.029C1415.3,522.043,1428.6,529,1432,540.812l1.74,6.05C1436.956,558.048,1430.176,569.73,1418.52,573.739Z" transform="translate(-1356.69 -524.526)" fill="#ffb27d"/>
      <path id="Path_2286" data-name="Path 2286" d="M1440.143,584.592l-14.21,6.4-.09.021a15.312,15.312,0,0,1-1.719.354c-.238.037-.481.064-.719.09a1.932,1.932,0,0,1-.3.005,2.26,2.26,0,0,1-1.962-3.194,14.133,14.133,0,0,0,.8-9.636l-.338-1.237a.1.1,0,0,0-.011-.037l-1.1-4.035a15.132,15.132,0,0,0-5.151-7.853c-.291-.238-.592-.46-.9-.672a4.082,4.082,0,0,1,1.2-7.266c.032-.01.058-.016.09-.027l15.6-2.359c3.855-1.047,7.568,1.92,8.621,5.775l1.253,4.6,2.666,9.8C1444.914,579.182,1444,583.545,1440.143,584.592Z" transform="translate(-1391.718 -543.545)" fill="#ffd3b6"/>
      <path id="Path_2287" data-name="Path 2287" d="M1444.556,595.185l-14.21,6.4-.09.021c-.333.063-1.375.238-2.739.449a2.26,2.26,0,0,1-1.962-3.194,14.133,14.133,0,0,0,.8-9.636l-.338-1.237a.1.1,0,0,0-.011-.037l-1.1-4.035a15.131,15.131,0,0,0-5.151-7.853,3.965,3.965,0,0,1,2.237-1.592c.027-.01.058-.015.09-.026l15.6-2.359c3.247-.883,6.388,1.084,7.932,4.025l2.666,9.8C1449.327,589.775,1448.411,594.138,1444.556,595.185Z" transform="translate(-1396.13 -554.138)" fill="#ffc197"/>
    </g>
    <path id="Path_2288" data-name="Path 2288" d="M828.821,790.57S822.44,734.865,816.552,724s-10.87-32.617-1.811-48.781,12.187-47.269,12.187-47.269c3.514,35.5-7.052,61.856.358,68.836.276.258.788.136,1.513-.326Z" transform="translate(562.381 5428.032)" fill="#efa26f"/>
    <rect id="Rectangle_2164" data-name="Rectangle 2164" width="249.478" height="116.619" rx="37.184" transform="translate(1298.187 6011.254)" fill="#699dee"/>
    <g id="Group_1475" data-name="Group 1475" transform="translate(1436.891 5956.728)">
      <rect id="Rectangle_2165" data-name="Rectangle 2165" width="110.049" height="39.757" rx="19.879" fill="#9abff6"/>
    </g>
    <g id="Group_1476" data-name="Group 1476" transform="translate(1417.524 6238.928)">
      <path id="Rectangle_2166" data-name="Rectangle 2166" d="M24.524,0h78.866a24.524,24.524,0,0,1,24.524,24.524v0A24.524,24.524,0,0,1,103.39,49.048H24.524A24.524,24.524,0,0,1,0,24.524v0A24.524,24.524,0,0,1,24.524,0Z" fill="#9abff6"/>
    </g>
    <g id="Group_1477" data-name="Group 1477" transform="translate(1459.156 6148.198)">
      <path id="Rectangle_2167" data-name="Rectangle 2167" d="M35.2,0h57.51a35.2,35.2,0,0,1,35.2,35.2v0a35.2,35.2,0,0,1-35.2,35.2H35.2A35.2,35.2,0,0,1,0,35.2v0A35.2,35.2,0,0,1,35.2,0Z" fill="#f99746"/>
    </g>
    <path id="Path_2289" data-name="Path 2289" d="M1579.249,1317.748H1406.895c-8.264-5.541-51.186-34.818-68.948-56.645-3.761-4.627-17.529-44.488-28.108-76.852-6.6-20.215-11.97-37.516-12.876-41.483a51.646,51.646,0,0,1-.652-7.83v-.037c-.45-13.236.165-38.76.8-59.035l0-.094.011-.266c.03-.892.057-1.768.087-2.637v-.03c0-.086,0-.176.007-.262.117-3.521.229-6.841.333-9.86.266-7.545.491-13.221.585-15.442l.037-1.034a.012.012,0,0,0,.008,0c.273-.154,8.564-4.578,19.645,3.405,2.675,1.929,5.147,6.59,7.4,12.67,1.442,3.881,2.8,8.339,4.054,13.037,4.84,18.069,8.313,39.67,10.168,45.454,2.989,9.347,38.227,50.452,40.43,53.007.034.045.071.086.1.127v-64.913l-26.6-71.18-10.921-29.221-5.488-14.686a264.831,264.831,0,0,1-15.48-30.446,143.731,143.731,0,0,1-7.676-22.512c-.42-1.768-.775-3.518-1.06-5.23v-.008c-1.038-6.275-1.109-12.1.333-16.836,2.574-8.44,8.373-10.029,12.828-9.857.46.015.907.056,1.337.1a9.1,9.1,0,0,1,1.281.247,8.917,8.917,0,0,1,2.214.922c.008,0,.008,0,.011.008a8.977,8.977,0,0,1,2.892,2.7s3.761,4.911,8.808,11.513c3.319,4.346,7.2,9.422,10.921,14.315,6.631,8.718,12.79,16.851,14.483,19.234,9.152,12.884,33.8,54.869,33.8,54.869l28.847,1.21a19.134,19.134,0,0,1,12.262,5.133c10.258,9.579,32.372,30.308,35.084,33.391,0,1.01,17.186,9.274,30.462,16.634,9.5,4.013,27.536,18.233,27.536,18.233,3.738,3.3,6.586,6.586,8.028,9.725,6.185,13.46,22.962,130.53,30.983,188.4C1577.443,1304.3,1579.117,1316.786,1579.249,1317.748Z" transform="translate(258.211 5252.251)" fill="#ffb27d"/>
    <path id="Path_2290" data-name="Path 2290" d="M1577.781,1186.445s26.724,43.623,30.261,45.588,17.292,4.716,18.864,0S1577.781,1186.445,1577.781,1186.445Z" transform="translate(82.092 5078.77)" fill="#efa26f"/>
    <path id="Path_2291" data-name="Path 2291" d="M1839.851,1328.15l-.134-.12s-18.039-14.221-27.536-18.233c-12.188-6.757-27.672-14.275-30.125-16.243,2.83,3.234,22.732,25.758,30.39,27.446C1819.172,1322.481,1834.447,1326.659,1839.851,1328.15Z" transform="translate(-45.655 5011.789)" fill="#efa26f"/>
    <path id="Path_2292" data-name="Path 2292" d="M1519.918,1507.77v-64.915s15.421,25.8,16.6,39.945S1530.112,1519.847,1519.918,1507.77Z" transform="translate(118.277 4918.42)" fill="#efa26f"/>
    <path id="Path_2293" data-name="Path 2293" d="M1357.39,935.4c-2.256-3.866-6.292-10.877-7.681-14.8a7.4,7.4,0,0,1,1.02-5.691,12.849,12.849,0,0,1,4.046-4.2,13.415,13.415,0,0,1,2.84-1.531,11.032,11.032,0,0,1,3.635-.671,3.857,3.857,0,0,1,3.1,1.8s.007.013.012.016a113.015,113.015,0,0,1,8.366,14.013c1.6,3.32,1.092,7.153-1.232,8.837l-1.084.793-5.553,4.054C1362.553,939.709,1359.227,938.563,1357.39,935.4Z" transform="translate(224.854 5252.581)" fill="#ffd3b6"/>
    <path id="Path_2294" data-name="Path 2294" d="M1357.39,940.952c-2.256-3.866-6.292-10.877-7.681-14.8a7.4,7.4,0,0,1,1.02-5.691c.362-.3.752-.59,1.174-.876a13.416,13.416,0,0,1,2.839-1.531,11.029,11.029,0,0,1,3.635-.67,3.856,3.856,0,0,1,3.1,1.8s.007.013.012.016a113.073,113.073,0,0,1,8.365,14.013,8.533,8.533,0,0,1,.556,6.306l-5.553,4.054C1362.553,945.259,1359.227,944.112,1357.39,940.952Z" transform="translate(224.854 5247.032)" fill="#ffc197"/>
    <g id="Group_1480" data-name="Group 1480" transform="translate(1135.138 6189.124)">
      <path id="Path_2296" data-name="Path 2296" d="M193.725,983.336H301.962a15.734,15.734,0,0,1,15.687,15.688v47.485a14.452,14.452,0,0,1-14.409,14.409H300.46l5.215,22.026-32.739-22.026H192.791a15.72,15.72,0,0,1-15.674-15.674v-45.3A16.657,16.657,0,0,1,193.725,983.336Z" transform="translate(-177.117 -983.336)" fill="#dfebfd"/>
      <path id="Path_2297" data-name="Path 2297" d="M209.031,1066.01H321.889a2.8,2.8,0,0,0,2.795-2.795h0a2.8,2.8,0,0,0-2.795-2.8H209.031a2.8,2.8,0,0,0-2.795,2.8h0A2.8,2.8,0,0,0,209.031,1066.01Z" transform="translate(-195.327 -1031.542)" fill="#cbe1fd"/>
      <path id="Path_2298" data-name="Path 2298" d="M209.031,1099.4H321.889a2.8,2.8,0,0,0,2.795-2.8h0a2.8,2.8,0,0,0-2.795-2.794H209.031a2.8,2.8,0,0,0-2.795,2.794h0A2.8,2.8,0,0,0,209.031,1099.4Z" transform="translate(-195.327 -1052.425)" fill="#cbe1fd"/>
      <path id="Path_2299" data-name="Path 2299" d="M209.031,1132.8H321.889a2.8,2.8,0,0,0,2.795-2.795h0a2.8,2.8,0,0,0-2.795-2.795H209.031a2.8,2.8,0,0,0-2.795,2.795h0A2.8,2.8,0,0,0,209.031,1132.8Z" transform="translate(-195.327 -1073.308)" fill="#cbe1fd"/>
      <path id="Path_2300" data-name="Path 2300" d="M372.266,1012.367h47.911a3.337,3.337,0,0,0,3.327-3.327h0a3.337,3.337,0,0,0-3.327-3.327H372.266a3.337,3.337,0,0,0-3.327,3.327h0A3.337,3.337,0,0,0,372.266,1012.367Z" transform="translate(-297.076 -997.33)" fill="#cbe1fd"/>
      <path id="Rectangle_2169" data-name="Rectangle 2169" d="M3.327,0H30.762a3.327,3.327,0,0,1,3.327,3.327v0a3.327,3.327,0,0,1-3.327,3.327H3.327A3.327,3.327,0,0,1,0,3.327v0A3.327,3.327,0,0,1,3.327,0Z" transform="translate(65.475 15.037) rotate(180)" fill="#cbe1fd"/>
    </g>
    <path id="Path_2307" data-name="Path 2307" d="M747.587,592.111a36.148,36.148,0,1,1-36.148-36.149A35.967,35.967,0,0,1,747.587,592.111Z" transform="translate(646.48 5473.053)" fill="#fff"/>
    <path id="Path_2308" data-name="Path 2308" d="M755.96,634.968q-.146-.163-.281-.3a5.035,5.035,0,0,0-2.5-.805c-.85-.142-2.03-.311-3.705-.528,0,0-.359-.041-.551-.056l-.42-.037c-.48-.251-.6-2.24-.6-4.338,0-.157,0-.315,0-.472.008-.794.034-1.577.064-2.281,0-.045,0-.086,0-.131,1.034.086,1.72.079,1.72.079,1.926-.154,3.128-5.316,3.559-9.489a14.073,14.073,0,0,0,.952-4.765,6.157,6.157,0,0,0-1.236-3.982,5.308,5.308,0,0,0-1.353-1.214c-.12-.12-.244-.229-.363-.333-1.791-1.989-9.074-9.444-13.854-5.132-.124-.431-1.678-5.271-9.216-3.686.468-.049,3.81-.363,4.776.989-.131-.056-3.049-1.352-4.889-.221a4.449,4.449,0,0,0-1.678,2.724c0,.007,0,.015-.008.022s0,.011,0,.019v0a.109.109,0,0,0-.008.034c-.034.154-.071.307-.1.461,0,.023-.011.045-.015.071,0,.008,0,.011,0,.019v.007a7.846,7.846,0,0,0-.09,2.855c.281,1.18,2.36,4.694,3.739,4.694a4.118,4.118,0,0,0,1.573-.386,17.457,17.457,0,0,0-.562,2.046c-1.464,6.889,3.113,12.123,5.485,10.827,1.521-.828,2.671,1.832,2.671,1.832l.007-.011c-.225,5.039-1.607,8.328-2.634,9.149-.367.041-1.161.139-2.154.3v0a25,25,0,0,0-6.155,1.54.449.449,0,0,0-.064.026,6.339,6.339,0,0,0-1.509.839c0,.008-.008.011-.012.011v0a2.2,2.2,0,0,0-.487.506,1.242,1.242,0,0,0-.157.229,41.31,41.31,0,0,0-2.642,7.219,30.659,30.659,0,0,0,38.126-1.2A19.172,19.172,0,0,0,755.96,634.968Z" transform="translate(616.482 5447.282)" fill="#2b478b"/>
    <rect id="Rectangle_2170" data-name="Rectangle 2170" width="46.24" height="6.412" rx="3.206" transform="translate(1416.232 6040.542)" fill="#fff"/>
    <g id="Group_1483" data-name="Group 1483" transform="translate(1416.231 6065.821)">
      <path id="Path_2309" data-name="Path 2309" d="M971.585,658.388h-42.06a2.1,2.1,0,0,1-2.09-2.09h0a2.1,2.1,0,0,1,2.09-2.09h42.06a2.1,2.1,0,0,1,2.09,2.09h0A2.1,2.1,0,0,1,971.585,658.388Z" transform="translate(-927.435 -654.208)" fill="#fff"/>
      <path id="Rectangle_2171" data-name="Rectangle 2171" d="M2.09,0H25.042a2.09,2.09,0,0,1,2.09,2.09v0a2.09,2.09,0,0,1-2.09,2.09H2.09A2.09,2.09,0,0,1,0,2.09v0A2.09,2.09,0,0,1,2.09,0Z" transform="translate(0 9.893)" fill="#fff"/>
      <rect id="Rectangle_2172" data-name="Rectangle 2172" width="42.684" height="4.18" rx="2.09" transform="translate(33.625 9.893)" fill="#fff"/>
      <path id="Path_2310" data-name="Path 2310" d="M1126.649,658.388H1071.5a2.1,2.1,0,0,1-2.09-2.09h0a2.1,2.1,0,0,1,2.09-2.09h55.149a2.1,2.1,0,0,1,2.09,2.09h0A2.1,2.1,0,0,1,1126.649,658.388Z" transform="translate(-1016.221 -654.208)" fill="#fff"/>
      <path id="Path_2311" data-name="Path 2311" d="M971.585,711.2h-42.06a2.1,2.1,0,0,1-2.09-2.09h0a2.1,2.1,0,0,1,2.09-2.09h42.06a2.1,2.1,0,0,1,2.09,2.09h0A2.1,2.1,0,0,1,971.585,711.2Z" transform="translate(-927.435 -687.236)" fill="#fff"/>
      <path id="Path_2312" data-name="Path 2312" d="M1126.649,711.2H1071.5a2.1,2.1,0,0,1-2.09-2.09h0a2.1,2.1,0,0,1,2.09-2.09h55.149a2.1,2.1,0,0,1,2.09,2.09h0A2.1,2.1,0,0,1,1126.649,711.2Z" transform="translate(-1016.221 -687.236)" fill="#fff"/>
    </g>
    <path id="Rectangle_2173" data-name="Rectangle 2173" d="M3.206,0H30.721a3.206,3.206,0,0,1,3.206,3.206v0a3.206,3.206,0,0,1-3.206,3.206H3.206A3.206,3.206,0,0,1,0,3.206v0A3.206,3.206,0,0,1,3.206,0Z" transform="translate(1468.2 6040.542)" fill="#fff"/>
    <g id="Group_1485" data-name="Group 1485" transform="translate(1431.69 6248.304)">
      <path id="Rectangle_2174" data-name="Rectangle 2174" d="M2.279,0H30.6a2.279,2.279,0,0,1,2.279,2.279v0a2.28,2.28,0,0,1-2.28,2.28H2.279A2.279,2.279,0,0,1,0,2.279v0A2.279,2.279,0,0,1,2.279,0Z" transform="translate(0.001)" fill="#699dee"/>
      <g id="Group_1484" data-name="Group 1484" transform="translate(0 13.258)">
        <path id="Path_2313" data-name="Path 2313" d="M1000.086,1179.664h-29.9a1.491,1.491,0,0,1-1.486-1.486h0a1.49,1.49,0,0,1,1.486-1.486h29.9a1.49,1.49,0,0,1,1.486,1.486h0A1.491,1.491,0,0,1,1000.086,1179.664Z" transform="translate(-968.697 -1176.692)" fill="#699dee"/>
        <path id="Rectangle_2175" data-name="Rectangle 2175" d="M1.486,0H17.8A1.486,1.486,0,0,1,19.29,1.486v0A1.486,1.486,0,0,1,17.8,2.972H1.486A1.486,1.486,0,0,1,0,1.486v0A1.486,1.486,0,0,1,1.486,0Z" transform="translate(0 7.034)" fill="#699dee"/>
        <path id="Rectangle_2176" data-name="Rectangle 2176" d="M1.486,0H28.861a1.486,1.486,0,0,1,1.486,1.486v0a1.486,1.486,0,0,1-1.486,1.486H1.486A1.486,1.486,0,0,1,0,1.486v0A1.486,1.486,0,0,1,1.486,0Z" transform="translate(23.906 7.034)" fill="#699dee"/>
        <path id="Path_2314" data-name="Path 2314" d="M1110.331,1179.664h-39.209a1.491,1.491,0,0,1-1.486-1.486h0a1.49,1.49,0,0,1,1.486-1.486h39.209a1.49,1.49,0,0,1,1.486,1.486h0A1.491,1.491,0,0,1,1110.331,1179.664Z" transform="translate(-1031.821 -1176.692)" fill="#699dee"/>
        <path id="Path_2315" data-name="Path 2315" d="M1000.086,1217.212h-29.9a1.491,1.491,0,0,1-1.486-1.486h0a1.49,1.49,0,0,1,1.486-1.486h29.9a1.49,1.49,0,0,1,1.486,1.486h0A1.491,1.491,0,0,1,1000.086,1217.212Z" transform="translate(-968.697 -1200.173)" fill="#699dee"/>
        <path id="Path_2316" data-name="Path 2316" d="M1110.331,1217.212h-39.209a1.491,1.491,0,0,1-1.486-1.486h0a1.49,1.49,0,0,1,1.486-1.486h39.209a1.49,1.49,0,0,1,1.486,1.486h0A1.491,1.491,0,0,1,1110.331,1217.212Z" transform="translate(-1031.821 -1200.173)" fill="#699dee"/>
      </g>
      <path id="Rectangle_2177" data-name="Rectangle 2177" d="M2.279,0H21.841a2.279,2.279,0,0,1,2.279,2.279v0a2.279,2.279,0,0,1-2.279,2.279H2.279A2.279,2.279,0,0,1,0,2.28v0A2.279,2.279,0,0,1,2.279,0Z" transform="translate(36.948)" fill="#699dee"/>
    </g>
    <g id="Group_1487" data-name="Group 1487" transform="translate(1451.057 5964.397)">
      <path id="Rectangle_2178" data-name="Rectangle 2178" d="M2.279,0H30.6a2.279,2.279,0,0,1,2.279,2.279v0A2.279,2.279,0,0,1,30.6,4.559H2.279A2.279,2.279,0,0,1,0,2.279v0A2.279,2.279,0,0,1,2.279,0Z" transform="translate(0.001)" fill="#699dee"/>
      <g id="Group_1486" data-name="Group 1486" transform="translate(0 13.257)">
        <path id="Path_2317" data-name="Path 2317" d="M1051.782,421.837h-29.9a1.49,1.49,0,0,1-1.486-1.486h0a1.49,1.49,0,0,1,1.486-1.486h29.9a1.49,1.49,0,0,1,1.486,1.486h0A1.49,1.49,0,0,1,1051.782,421.837Z" transform="translate(-1020.393 -418.865)" fill="#699dee"/>
        <rect id="Rectangle_2179" data-name="Rectangle 2179" width="19.29" height="2.972" rx="1.486" transform="translate(0 7.034)" fill="#699dee"/>
        <rect id="Rectangle_2180" data-name="Rectangle 2180" width="30.346" height="2.972" rx="1.486" transform="translate(23.906 7.034)" fill="#699dee"/>
        <path id="Path_2318" data-name="Path 2318" d="M1162.026,421.837h-39.209a1.49,1.49,0,0,1-1.486-1.486h0a1.49,1.49,0,0,1,1.486-1.486h39.209a1.49,1.49,0,0,1,1.486,1.486h0A1.49,1.49,0,0,1,1162.026,421.837Z" transform="translate(-1083.516 -418.865)" fill="#699dee"/>
      </g>
      <path id="Rectangle_2181" data-name="Rectangle 2181" d="M2.279,0H21.841a2.279,2.279,0,0,1,2.279,2.279v0a2.279,2.279,0,0,1-2.279,2.279H2.279A2.279,2.279,0,0,1,0,2.28v0A2.279,2.279,0,0,1,2.279,0Z" transform="translate(36.947)" fill="#699dee"/>
    </g>
    <g id="Group_1490" data-name="Group 1490" transform="translate(1473.92 6161.102)">
      <rect id="Rectangle_2182" data-name="Rectangle 2182" width="35.991" height="4.991" rx="2.495" transform="translate(0.001)" fill="#ed7d2b"/>
      <g id="Group_1488" data-name="Group 1488" transform="translate(0 14.514)">
        <path id="Path_2319" data-name="Path 2319" d="M1115.784,950.535h-32.737a1.632,1.632,0,0,1-1.627-1.627h0a1.632,1.632,0,0,1,1.627-1.627h32.737a1.632,1.632,0,0,1,1.627,1.627h0A1.632,1.632,0,0,1,1115.784,950.535Z" transform="translate(-1081.42 -947.281)" fill="#ed7d2b"/>
        <path id="Rectangle_2183" data-name="Rectangle 2183" d="M1.627,0H19.491a1.627,1.627,0,0,1,1.627,1.627v0a1.627,1.627,0,0,1-1.627,1.627H1.627A1.627,1.627,0,0,1,0,1.627v0A1.627,1.627,0,0,1,1.627,0Z" transform="translate(0 7.7)" fill="#ed7d2b"/>
        <path id="Rectangle_2184" data-name="Rectangle 2184" d="M1.627,0H31.6a1.627,1.627,0,0,1,1.627,1.627v0A1.627,1.627,0,0,1,31.6,3.254H1.627A1.627,1.627,0,0,1,0,1.627v0A1.627,1.627,0,0,1,1.627,0Z" transform="translate(26.172 7.7)" fill="#ed7d2b"/>
        <path id="Path_2320" data-name="Path 2320" d="M1236.48,950.535h-42.926a1.632,1.632,0,0,1-1.627-1.627h0a1.631,1.631,0,0,1,1.627-1.627h42.926a1.632,1.632,0,0,1,1.627,1.627h0A1.632,1.632,0,0,1,1236.48,950.535Z" transform="translate(-1150.528 -947.281)" fill="#ed7d2b"/>
        <path id="Path_2321" data-name="Path 2321" d="M1115.784,991.643h-32.737a1.632,1.632,0,0,1-1.627-1.627h0a1.632,1.632,0,0,1,1.627-1.627h32.737a1.632,1.632,0,0,1,1.627,1.627h0A1.632,1.632,0,0,1,1115.784,991.643Z" transform="translate(-1081.42 -972.989)" fill="#ed7d2b"/>
        <path id="Path_2322" data-name="Path 2322" d="M1236.48,991.643h-42.926a1.632,1.632,0,0,1-1.627-1.627h0a1.632,1.632,0,0,1,1.627-1.627h42.926a1.632,1.632,0,0,1,1.627,1.627h0A1.632,1.632,0,0,1,1236.48,991.643Z" transform="translate(-1150.528 -972.989)" fill="#ed7d2b"/>
      </g>
      <g id="Group_1489" data-name="Group 1489" transform="translate(0 37.93)">
        <path id="Path_2323" data-name="Path 2323" d="M1115.784,1013.039h-32.737a1.632,1.632,0,0,1-1.627-1.627h0a1.632,1.632,0,0,1,1.627-1.627h32.737a1.632,1.632,0,0,1,1.627,1.627h0A1.632,1.632,0,0,1,1115.784,1013.039Z" transform="translate(-1081.42 -1009.785)" fill="#ed7d2b"/>
        <path id="Path_2324" data-name="Path 2324" d="M1236.48,1013.039h-42.926a1.631,1.631,0,0,1-1.627-1.627h0a1.632,1.632,0,0,1,1.627-1.627h42.926a1.632,1.632,0,0,1,1.627,1.627h0A1.632,1.632,0,0,1,1236.48,1013.039Z" transform="translate(-1150.528 -1009.785)" fill="#ed7d2b"/>
      </g>
      <path id="Rectangle_2185" data-name="Rectangle 2185" d="M2.5,0H23.912a2.5,2.5,0,0,1,2.5,2.5v0a2.5,2.5,0,0,1-2.5,2.5H2.5A2.5,2.5,0,0,1,0,2.5v0A2.5,2.5,0,0,1,2.5,0Z" transform="translate(40.45)" fill="#ed7d2b"/>
    </g>
    <g id="Group_1494" data-name="Group 1494" transform="translate(1418.529 5932.831)">
      <path id="Path_2325" data-name="Path 2325" d="M962.585,330.439l-2.221,1.594-2.232-1.577a2.734,2.734,0,0,1,4.454-.017Z" transform="translate(-948.929 -318.031)" fill="#fff"/>
      <g id="Group_1491" data-name="Group 1491" transform="translate(6.032 7.384)">
        <path id="Path_2326" data-name="Path 2326" d="M955.07,318.93a6.6,6.6,0,0,0-5.4,2.81l1.409.989a4.884,4.884,0,0,1,7.965-.03l1.4-1.008A6.607,6.607,0,0,0,955.07,318.93Z" transform="translate(-949.668 -318.93)" fill="#fff"/>
      </g>
      <g id="Group_1492" data-name="Group 1492">
        <path id="Path_2327" data-name="Path 2327" d="M945,299.22a13.966,13.966,0,0,0-11.434,5.942l1.412.989a12.256,12.256,0,0,1,19.994-.075l1.4-1.008A13.96,13.96,0,0,0,945,299.22Z" transform="translate(-933.568 -299.22)" fill="#fff"/>
      </g>
      <g id="Group_1493" data-name="Group 1493" transform="translate(3.282 4.042)">
        <path id="Path_2328" data-name="Path 2328" d="M950.48,310.01a9.993,9.993,0,0,0-8.152,4.211l1.409.989a8.287,8.287,0,0,1,13.453-.052l1.4-1A9.984,9.984,0,0,0,950.48,310.01Z" transform="translate(-942.328 -310.01)" fill="#fff"/>
      </g>
    </g>
    <path id="Path_2329" data-name="Path 2329" d="M930.8,936.685a14.2,14.2,0,0,0,22.334,11.635c.117-.079.231-.164.345-.248A14.2,14.2,0,1,0,930.8,936.685Z" transform="translate(486.692 5243.839)" fill="#fff"/>
    <path id="Path_2330" data-name="Path 2330" d="M958.9,953.153,957.589,952c-.109.022-.217.041-.326.06a8.9,8.9,0,0,0-.764-.476c.086-.528.157-1.019.217-1.454a23.383,23.383,0,0,0,.221-2.581c.693-.034,1.161-.109,1.161-.109,1.311-.3,1.375-4.78,1.071-7.114a1.679,1.679,0,0,0,.731-.139c.993-.438,1.049-1.941,1.049-1.941a1.756,1.756,0,0,1-.712.708s1.66-2.274-.266-3.829-3.877-.539-4.994-.472c-2.45.15-4.035.3-4.833,1.907-.79,1.588-.48,5.957,1.034,7.564.026.15.052.3.071.446a3,3,0,0,0,.6,1.427,10.019,10.019,0,0,1-1.813,4.218,6.555,6.555,0,0,0-1.3,1.4l-.026.019a.027.027,0,0,1,.011,0,14.214,14.214,0,0,0-1.832,4.02c0,.008,0,.015-.008.023a13.476,13.476,0,0,0,2.589,1.424c.06.026.12.049.18.075.015,0,.026.011.041.015.1.041.2.079.3.116.24.094.479.18.723.258s.513.157.772.225c.12.03.24.06.36.086.1.026.21.049.318.067l.045.011c.071.015.142.026.214.041.165.03.333.06.5.086.037,0,.079.011.117.015.094.015.183.026.277.037l.393.045c.146.015.3.026.446.034s.281.019.423.022.3.008.446.008.318,0,.479-.008a.154.154,0,0,0,.041,0c.037,0,.079,0,.117,0,.079,0,.157,0,.236-.011a.085.085,0,0,1,.03,0c.149-.008.3-.019.445-.034a14.105,14.105,0,0,0,5.35-1.618A14.91,14.91,0,0,0,958.9,953.153Z" transform="translate(476.638 5236.478)" fill="#699dee"/>
    <path id="Path_2331" data-name="Path 2331" d="M1302.885,1156.8a14.294,14.294,0,1,0,14.294-14.294A14.223,14.223,0,0,0,1302.885,1156.8Z" transform="translate(254.003 5106.25)" fill="#fff"/>
    <path id="Path_2332" data-name="Path 2332" d="M1332.922,1172.009a.486.486,0,0,0-.071-.109,1.135,1.135,0,0,0-.229-.236l0,0a2.88,2.88,0,0,0-.7-.393l-.03-.011a11.511,11.511,0,0,0-2.87-.719c-.465-.071-.831-.116-1-.135-.48-.386-1.124-1.918-1.229-4.267l0,.008s.536-1.244,1.244-.854c1.105.6,3.24-1.839,2.559-5.05a8.978,8.978,0,0,0-.263-.952,1.98,1.98,0,0,0,.734.18c.641,0,1.611-1.641,1.742-2.192s-.011-2.36-.892-2.9a2.893,2.893,0,0,0-2.278.1c.439-.614,1.937-.491,2.21-.461-3.5-.727-4.222,1.517-4.282,1.72-2.226-2.012-5.623,1.465-6.459,2.394-.056.049-.112.1-.169.157a2.415,2.415,0,0,0-.629.562,2.872,2.872,0,0,0-.577,1.858,6.584,6.584,0,0,0,.442,2.222c.2,1.944.764,4.353,1.664,4.424,0,0,.318,0,.8-.037,0,.022,0,.041,0,.064.015.326.026.693.03,1.06v.221c0,.978-.056,1.907-.277,2.023-.075.007-.138.011-.195.019-.09,0-.259.026-.259.026-.779.1-1.334.18-1.727.247a2.28,2.28,0,0,0-1.166.375,1.641,1.641,0,0,0-.135.142,8.911,8.911,0,0,0-2.529,3.319,14.3,14.3,0,0,0,17.776.558A19.084,19.084,0,0,0,1332.922,1172.009Z" transform="translate(245.565 5099.139)" fill="#f99746"/>
    <path id="Path_2333" data-name="Path 2333" d="M1302.885,389.932a14.294,14.294,0,1,0,14.294-14.294A14.223,14.223,0,0,0,1302.885,389.932Z" transform="translate(254.003 5585.822)" fill="#fff"/>
    <path id="Path_2334" data-name="Path 2334" d="M1332.922,405.139a.591.591,0,0,0-.071-.109,1.137,1.137,0,0,0-.229-.236l0,0a3.152,3.152,0,0,0-.7-.393l-.03-.011a11.708,11.708,0,0,0-2.87-.719v0c-.465-.075-.831-.12-1-.139a1.6,1.6,0,0,1-.364-.468v0a8.914,8.914,0,0,1-.865-3.8l0,.007s.536-1.24,1.244-.854c1.105.6,3.24-1.836,2.559-5.046a8.82,8.82,0,0,0-.263-.955,1.978,1.978,0,0,0,.734.18c.641,0,1.611-1.641,1.742-2.188s-.011-2.364-.892-2.9a2.888,2.888,0,0,0-2.278.1c.439-.614,1.941-.491,2.21-.465-3.5-.727-4.222,1.521-4.282,1.72-2.226-2.008-5.623,1.469-6.459,2.394-.056.049-.112.1-.169.157a2.44,2.44,0,0,0-.629.566,2.856,2.856,0,0,0-.577,1.854,6.556,6.556,0,0,0,.442,2.222c.2,1.948.764,4.353,1.664,4.424,0,0,.318,0,.8-.034,0,.019,0,.037,0,.06.015.326.026.693.03,1.064v.221c0,.978-.056,1.9-.277,2.023-.075,0-.138.011-.195.015-.09.007-.259.026-.259.026-.779.1-1.334.18-1.727.247a2.32,2.32,0,0,0-1.166.375c-.045.045-.09.094-.135.142a8.934,8.934,0,0,0-2.529,3.323q.2.174.416.337c.023.019.049.037.071.056.1.082.21.161.318.236.075.06.15.116.229.169s.157.109.236.157c.112.082.228.157.348.229.079.052.157.1.24.15.1.06.2.12.3.176s.224.127.337.187c.011,0,.019.011.03.015a.078.078,0,0,0,.019.011h0l.049.026c.09.049.179.094.269.139a.037.037,0,0,1,.019.007.848.848,0,0,0,.083.041c.048.026.1.052.153.075s.1.045.15.071c.112.052.233.1.348.154s.236.1.353.142c.056.022.109.045.161.064s.105.041.161.06c.109.041.221.079.33.116s.228.075.345.112l.292.09c.011,0,.019,0,.03.008.06.019.124.037.187.052.341.094.689.176,1.042.244.154.03.307.06.461.082.041.008.079.015.12.019.008,0,.019,0,.026,0a.023.023,0,0,1,.015,0c.1.015.194.026.3.037a.375.375,0,0,0,.064.008c.015,0,.03,0,.045.007.094.015.187.022.278.03.015,0,.033,0,.048,0l.086.011c.168.015.333.026.5.034h.026c.053,0,.1.007.157.007.034,0,.064,0,.1,0,.164.008.33.011.494.011a14.211,14.211,0,0,0,8.538-2.832A19.2,19.2,0,0,0,1332.922,405.139Z" transform="translate(245.565 5578.713)" fill="#f99746"/>
    <path id="Path_2335" data-name="Path 2335" d="M1515.5,1750.477l-51.486,26.655h-34.275c-8.264-5.541-51.186-34.818-68.947-56.645-3.761-4.627-17.529-44.488-28.109-76.852v-.015c1.405,4.3,30.929,67.179,39.337,74.327s52.546,48.762,64.737,48.339c11.808-.4,74.672-14.873,78.568-15.768C1515.38,1750.507,1515.436,1750.492,1515.5,1750.477Z" transform="translate(235.371 4792.868)" fill="#efa26f"/>
    <path id="Path_2336" data-name="Path 2336" d="M1787.345,1940.2H1601.729c9.309-3.653,44.926-17.259,81.846-26.614.06-.011.116-.026.176-.041,31.709-8.021,64.351-12.884,82.078-5.59l.128.191Z" transform="translate(67.116 4629.798)" fill="#d2e3fc"/>
    <path id="Path_2337" data-name="Path 2337" d="M1297.474,1343.968a.016.016,0,0,0,.013,0c3.127-1.148,7.52-1.9,9.656,1.665,3.325,5.553-9.029,54.538-10.572,60.7Z" transform="translate(257.952 4980.859)" fill="#efa26f"/>
    <path id="Path_2338" data-name="Path 2338" d="M1299.768,1275.256l-1.062,29.629s6.23,1.014,9.773-1.63S1310.146,1274.908,1299.768,1275.256Z" transform="translate(256.616 5023.233)" fill="#ffc197"/>
    <path id="Path_2339" data-name="Path 2339" d="M683.683,1530.885c-17.836,3.657-56.279-10.354-56.279-10.354l6.2-59.889-43.441,49.75c-22.107-8.227-56.682-29.695-77.225-43.054,52.642-5.738,91.946-57.691,91.946-57.691,36.492,19.766,77.683,31.313,77.683,31.313C682.556,1476.552,683.683,1530.885,683.683,1530.885Z" transform="translate(748.009 4939.188)" fill="#cbe1fd"/>
    <path id="Path_2340" data-name="Path 2340" d="M641.985,1576.1a7.231,7.231,0,1,1,7.164,7.3A7.231,7.231,0,0,1,641.985,1576.1Z" transform="translate(667.308 4839.571)" fill="#f99746"/>
  </g>
</svg>
