<svg xmlns="http://www.w3.org/2000/svg" width="157.47" height="74.578" viewBox="0 0 157.47 74.578"><defs><style>.a{fill:#fff;}.b{fill:#ff730b;}</style></defs><g transform="translate(-134.629 -61.116)"><g transform="translate(242.403 107.888)"><g transform="translate(0 0)"><path class="a" d="M492,586.837a4.753,4.753,0,0,1-1.035-.107,5.647,5.647,0,0,1-.862-.262v3.56c-.117.026-.271.058-.465.1a3.405,3.405,0,0,1-.659.059,1.653,1.653,0,0,1-1.007-.254,1.057,1.057,0,0,1-.329-.89V579.22a1.393,1.393,0,0,1,.184-.755,1.8,1.8,0,0,1,.59-.542,6.178,6.178,0,0,1,1.4-.572,6.735,6.735,0,0,1,1.878-.242,6.572,6.572,0,0,1,1.966.281,4.153,4.153,0,0,1,1.559.871,3.993,3.993,0,0,1,1.026,1.5,5.779,5.779,0,0,1,.368,2.169,5.948,5.948,0,0,1-.348,2.13,4.378,4.378,0,0,1-.959,1.526,3.9,3.9,0,0,1-1.452.93A5.346,5.346,0,0,1,492,586.837Zm-.367-1.956a2.344,2.344,0,0,0,1.82-.717,3.208,3.208,0,0,0,.659-2.226,3.02,3.02,0,0,0-.678-2.226,2.4,2.4,0,0,0-1.742-.659,2.842,2.842,0,0,0-.919.136,4.738,4.738,0,0,0-.688.291v4.977a2.793,2.793,0,0,0,1.549.425Z" transform="translate(-487.638 -577.107)"/><path class="a" d="M509.958,577.114a5.093,5.093,0,0,1,3.03.814,2.889,2.889,0,0,1,1.133,2.518v4.473a1.1,1.1,0,0,1-.232.736,2.423,2.423,0,0,1-.582.485,4.714,4.714,0,0,1-1.375.523,8.421,8.421,0,0,1-1.9.193,5.424,5.424,0,0,1-3.052-.745,2.512,2.512,0,0,1-1.114-2.237,2.441,2.441,0,0,1,.823-1.985,4.341,4.341,0,0,1,2.392-.843l2.653-.271v-.348a1.2,1.2,0,0,0-.533-1.085,2.73,2.73,0,0,0-1.5-.349,5.889,5.889,0,0,0-1.472.183,6.9,6.9,0,0,0-1.272.455,1.264,1.264,0,0,1-.359-.417,1.158,1.158,0,0,1-.145-.571,1.008,1.008,0,0,1,.184-.629,1.572,1.572,0,0,1,.59-.436,5.727,5.727,0,0,1,1.278-.349,9.065,9.065,0,0,1,1.45-.115Zm.078,7.884a4.614,4.614,0,0,0,1.026-.107,1.918,1.918,0,0,0,.678-.261v-2.15l-1.879.174a2.707,2.707,0,0,0-1.181.34.906.906,0,0,0-.407.823,1.023,1.023,0,0,0,.416.871,2.289,2.289,0,0,0,1.348.309Z" transform="translate(-495.407 -577.108)"/><path class="a" d="M530.01,585.768a4.579,4.579,0,0,1-2.092.464,5.473,5.473,0,0,1-1.647-.242,3.464,3.464,0,0,1-1.355-.783,3.778,3.778,0,0,1-.919-1.4,5.739,5.739,0,0,1-.34-2.1,5.385,5.385,0,0,1,.34-1.985,3.831,3.831,0,0,1,.968-1.442,4.089,4.089,0,0,1,1.5-.872,6.1,6.1,0,0,1,1.937-.29,6.435,6.435,0,0,1,1.85.254,5.229,5.229,0,0,1,1.347.581,2.054,2.054,0,0,1,.552.523,1.253,1.253,0,0,1,.2.736v7.476a3.775,3.775,0,0,1-.359,1.705,3.209,3.209,0,0,1-.978,1.171,4.181,4.181,0,0,1-1.452.669,7.273,7.273,0,0,1-1.8.212,7.355,7.355,0,0,1-1.752-.185,3.9,3.9,0,0,1-1.114-.417,1.236,1.236,0,0,1-.636-1.085,1.273,1.273,0,0,1,.155-.636,1.13,1.13,0,0,1,.368-.407,5.636,5.636,0,0,0,1.219.543,4.932,4.932,0,0,0,1.526.233,3.217,3.217,0,0,0,1.821-.446,1.6,1.6,0,0,0,.659-1.433Zm-1.685-1.433a2.654,2.654,0,0,0,.959-.154,3.005,3.005,0,0,0,.688-.369v-4.377a3.287,3.287,0,0,0-.636-.271,2.8,2.8,0,0,0-.862-.117,2.32,2.32,0,0,0-1.714.648,2.733,2.733,0,0,0-.649,2.005,4.046,4.046,0,0,0,.165,1.24,2.076,2.076,0,0,0,.465.812,1.726,1.726,0,0,0,.707.445A2.738,2.738,0,0,0,528.325,584.335Z" transform="translate(-502.988 -577.105)"/><path class="a" d="M551.746,581.973a5.7,5.7,0,0,1-.339,2.023,4.422,4.422,0,0,1-.958,1.54,4.132,4.132,0,0,1-1.491.978,5.821,5.821,0,0,1-3.911,0,4.2,4.2,0,0,1-1.492-.969,4.31,4.31,0,0,1-.959-1.526,5.761,5.761,0,0,1-.339-2.044,5.7,5.7,0,0,1,.339-2.023,4.241,4.241,0,0,1,.968-1.526,4.307,4.307,0,0,1,1.5-.969,5.7,5.7,0,0,1,3.874,0,4.246,4.246,0,0,1,1.5.978,4.357,4.357,0,0,1,.968,1.54,5.65,5.65,0,0,1,.339,2ZM547,579.048a1.979,1.979,0,0,0-1.646.763,4.229,4.229,0,0,0-.009,4.323,2.182,2.182,0,0,0,3.306-.01,3.463,3.463,0,0,0,.59-2.162,3.42,3.42,0,0,0-.6-2.162,1.978,1.978,0,0,0-1.641-.753Z" transform="translate(-510.916 -577.105)"/></g></g><g transform="translate(134.629 61.116)"><g transform="translate(0 20.288)"><g transform="translate(0 0)"><path class="a" d="M298,574.1q-1.489-3.2-3.538-8.647t-4.1-13.2a5.017,5.017,0,0,1,1.737-1.314,5.456,5.456,0,0,1,2.416-.544,4.274,4.274,0,0,1,2.636.763,5.341,5.341,0,0,1,1.647,2.757q2.916,9.674,6.639,19.6h.248q.806-2.113,1.706-4.805t1.737-5.638q.838-2.945,1.583-5.958t1.311-5.835a9.455,9.455,0,0,1,1.582-.636,6.016,6.016,0,0,1,1.767-.254,5,5,0,0,1,2.8.763,2.762,2.762,0,0,1,1.179,2.5,25.95,25.95,0,0,1-.806,5.414q-.809,3.493-2.141,7.5t-3.009,8.073a73.693,73.693,0,0,1-3.351,7.144,47.627,47.627,0,0,1-5.865,8.809q-2.638,2.914-5.18,2.916a4.366,4.366,0,0,1-3.2-1.185,5.315,5.315,0,0,1-1.526-2.979q.991-.9,2.11-2.082t2.234-2.53q1.116-1.346,2.109-2.755a30.3,30.3,0,0,0,1.737-2.756,6.957,6.957,0,0,1-1.086-.481,4.143,4.143,0,0,1-1.054-.865,11.643,11.643,0,0,1-1.118-1.474A15.8,15.8,0,0,1,298,574.1Z" transform="translate(-290.366 -539.235)"/><path class="a" d="M372.688,566.035a19.437,19.437,0,0,1-1.087,6.695,14.674,14.674,0,0,1-3.071,5.094,13.224,13.224,0,0,1-4.777,3.236,18.072,18.072,0,0,1-12.534,0,13.408,13.408,0,0,1-4.778-3.2,14.324,14.324,0,0,1-3.071-5.061,21.384,21.384,0,0,1,0-13.456,14.1,14.1,0,0,1,3.1-5.061,13.733,13.733,0,0,1,4.809-3.2,17.723,17.723,0,0,1,12.409,0,13.53,13.53,0,0,1,4.809,3.235,14.446,14.446,0,0,1,3.1,5.093A19.247,19.247,0,0,1,372.688,566.035Zm-15.2-9.675a6.262,6.262,0,0,0-5.274,2.53,14.386,14.386,0,0,0-.031,14.319,6.854,6.854,0,0,0,10.61-.032,11.739,11.739,0,0,0,1.893-7.143,11.606,11.606,0,0,0-1.923-7.145,6.266,6.266,0,0,0-5.277-2.53Z" transform="translate(-312.496 -539.045)"/><path class="a" d="M407.046,573.387a10.652,10.652,0,0,1-2.078.192,5.152,5.152,0,0,1-3.256-.833,3.617,3.617,0,0,1-1.025-2.948V531.486a7.823,7.823,0,0,1,1.458-.352,12.728,12.728,0,0,1,2.078-.16,5.145,5.145,0,0,1,3.258.834,3.619,3.619,0,0,1,1.025,2.948v38.314Q408.006,573.192,407.046,573.387Z" transform="translate(-337.392 -530.956)"/><path class="a" d="M450.118,566.035a19.458,19.458,0,0,1-1.086,6.695,14.683,14.683,0,0,1-3.071,5.094,13.222,13.222,0,0,1-4.777,3.236,18.072,18.072,0,0,1-12.534,0,13.406,13.406,0,0,1-4.778-3.2,14.323,14.323,0,0,1-3.071-5.061,19.652,19.652,0,0,1-1.086-6.76,19.455,19.455,0,0,1,1.086-6.7,14.092,14.092,0,0,1,3.1-5.061,13.733,13.733,0,0,1,4.808-3.2,17.724,17.724,0,0,1,12.409,0,13.523,13.523,0,0,1,4.809,3.235,14.449,14.449,0,0,1,3.1,5.093,19.262,19.262,0,0,1,1.086,6.634Zm-15.2-9.675a6.262,6.262,0,0,0-5.274,2.53,14.385,14.385,0,0,0-.031,14.319,6.854,6.854,0,0,0,10.61-.032,11.739,11.739,0,0,0,1.892-7.144,11.6,11.6,0,0,0-1.923-7.145,6.266,6.266,0,0,0-5.275-2.529Z" transform="translate(-345.501 -539.045)"/></g></g><g transform="translate(108.316)"><g transform="translate(20.509)"><path class="a" d="M529.219,495.582a14.323,14.323,0,0,0-7.933,26.246,11.6,11.6,0,0,0,.89-3.371,11.078,11.078,0,1,1,9.486,2.252l-.763.173-.339.709a15.024,15.024,0,0,1-1.4,2.28,13.066,13.066,0,0,1-1.291-2.241l-.328-.746-.612-.14a16.72,16.72,0,0,1-1.279,3.708c1.766,3.17,3.341,3.286,3.536,3.287h.006c1.547,0,3.217-2.734,3.934-4.056a14.319,14.319,0,0,0-3.9-28.1Z" transform="translate(-514.897 -495.582)"/></g><g transform="translate(0 5.593)"><path class="b" d="M507.764,521.234a12.769,12.769,0,0,1-9.889,12.374l-.763.173-.34.709a17.118,17.118,0,0,1-1.764,2.823,15.078,15.078,0,0,1-1.643-2.786l-.328-.746-.795-.182a12.683,12.683,0,1,1,7.231-24.251,15.159,15.159,0,0,1,1.319-2.966,15.923,15.923,0,1,0-10.045,30.183c.731,1.455,2.5,4.551,4.293,4.559h.008c1.647,0,3.52-3.114,4.29-4.538a15.921,15.921,0,0,0,5.882-27.626,10.034,10.034,0,0,0-1.208,3.278,12.645,12.645,0,0,1,3.751,9Z" transform="translate(-479.148 -505.316)"/></g></g></g></g></svg>