<svg xmlns="http://www.w3.org/2000/svg" xmlns:xlink="http://www.w3.org/1999/xlink" width="126.893" height="35.069" viewBox="0 0 126.893 35.069">
  <defs>
    <clipPath id="clip-path">
      <path id="Path_297" data-name="Path 297" d="M155.394,341.207l-6.488-3.745L136.4,330.236c-.695-.4-1.387-.158-1.387.68v29.437c0,.629.494.9,1.1.551l12.8-7.392,6.487-3.745,6.236-3.6c.732-.423.658-1,.044-1.335S155.394,341.207,155.394,341.207Z" transform="translate(-135.01 -330.048)" fill="none"/>
    </clipPath>
    <linearGradient id="linear-gradient" x1="0.5" x2="0.5" y2="1" gradientUnits="objectBoundingBox">
      <stop offset="0" stop-color="#0067a2"/>
      <stop offset="0.403" stop-color="#3d91a8"/>
      <stop offset="0.805" stop-color="#74b7ae"/>
      <stop offset="1" stop-color="#8ac6b1"/>
    </linearGradient>
    <linearGradient id="linear-gradient-2" y1="0.5" x2="1" y2="0.5" gradientUnits="objectBoundingBox">
      <stop offset="0" stop-color="#50b09b"/>
      <stop offset="1" stop-color="#e9e486"/>
    </linearGradient>
    <linearGradient id="linear-gradient-3" x1="0.5" x2="0.5" y2="1" gradientUnits="objectBoundingBox">
      <stop offset="0" stop-color="#dc1b24"/>
      <stop offset="0.228" stop-color="#c1203b"/>
      <stop offset="0.748" stop-color="#8a2b6c"/>
      <stop offset="1" stop-color="#753080"/>
    </linearGradient>
    <linearGradient id="linear-gradient-4" x1="0.5" x2="0.5" y2="1" gradientUnits="objectBoundingBox">
      <stop offset="0" stop-color="#eb7165"/>
      <stop offset="0.003" stop-color="#eb7164"/>
      <stop offset="0.675" stop-color="#f9a85e"/>
      <stop offset="1" stop-color="#ffbe5c"/>
    </linearGradient>
  </defs>
  <g id="Group_667" data-name="Group 667" transform="translate(-9.149 -5.5)">
    <g id="Group_99" data-name="Group 99" transform="translate(9.149 9.559)" clip-path="url(#clip-path)">
      <path id="Path_293" data-name="Path 293" d="M135.006,328.285v31.871l16.071-15.935Z" transform="translate(-135.009 -328.781)" fill="url(#linear-gradient)"/>
      <path id="Path_294" data-name="Path 294" d="M155.394,339.644l-6.488-3.745-13.9-8.026v.116l16.071,15.936Z" transform="translate(-135.009 -328.485)" fill="url(#linear-gradient-2)"/>
      <path id="Path_295" data-name="Path 295" d="M135.006,400.873v.116l13.9-8.026,6.487-3.745-4.317-4.28Z" transform="translate(-135.009 -369.498)" fill="url(#linear-gradient-3)"/>
      <path id="Path_296" data-name="Path 296" d="M196.457,369.721,192.14,374l4.317,4.28L203.87,374Z" transform="translate(-176.072 -358.562)" fill="url(#linear-gradient-4)"/>
    </g>
    <path id="Path_298" data-name="Path 298" d="M483.681,382.538a4.007,4.007,0,0,1-1.653-.334,3.116,3.116,0,0,1-1.256-1.027h-.1a12.458,12.458,0,0,1,.1,1.539v3.814h-1.4V373.1h1.141l.194,1.268h.067a3.263,3.263,0,0,1,1.261-1.1,3.828,3.828,0,0,1,1.646-.338,3.425,3.425,0,0,1,2.846,1.26,6.712,6.712,0,0,1-.016,7.084A3.434,3.434,0,0,1,483.681,382.538Zm-.2-8.414a2.488,2.488,0,0,0-2.057.787,4.05,4.05,0,0,0-.652,2.5v.313a4.637,4.637,0,0,0,.652,2.8,2.476,2.476,0,0,0,2.089.841,2.173,2.173,0,0,0,1.885-.972,4.615,4.615,0,0,0,.681-2.681,4.444,4.444,0,0,0-.681-2.66A2.241,2.241,0,0,0,483.478,374.123Z" transform="translate(-373.358 -351.309)" fill="#f9f9f9"/>
    <path id="Path_299" data-name="Path 299" d="M516.348,372.861h-1.4V359.7h1.4Z" transform="translate(-398.926 -341.802)" fill="#f9f9f9"/>
    <path id="Path_300" data-name="Path 300" d="M532.29,382.411l-.279-1.317h-.067a3.889,3.889,0,0,1-1.383,1.179,4.2,4.2,0,0,1-1.721.309,3.1,3.1,0,0,1-2.16-.71,2.59,2.59,0,0,1-.783-2.021q0-2.807,4.49-2.943l1.574-.051v-.576a2.347,2.347,0,0,0-.47-1.611,1.929,1.929,0,0,0-1.5-.52,6.112,6.112,0,0,0-2.621.71l-.431-1.074a6.6,6.6,0,0,1,1.5-.583,6.5,6.5,0,0,1,1.636-.211,3.531,3.531,0,0,1,2.457.736,3.074,3.074,0,0,1,.8,2.36v6.326Zm-3.171-.988a2.852,2.852,0,0,0,2.057-.718,2.661,2.661,0,0,0,.749-2.013v-.839l-1.4.058a5.107,5.107,0,0,0-2.415.521,1.569,1.569,0,0,0-.741,1.433,1.444,1.444,0,0,0,.461,1.159,1.911,1.911,0,0,0,1.293.4Z" transform="translate(-406.797 -351.352)" fill="#f9f9f9"/>
    <path id="Path_301" data-name="Path 301" d="M555.222,373.533h1.5l2.029,5.286a20.208,20.208,0,0,1,.83,2.614h.067q.109-.432.461-1.477t2.3-6.419h1.506l-3.983,10.554a5.268,5.268,0,0,1-1.383,2.222,2.94,2.94,0,0,1-1.941.658,5.681,5.681,0,0,1-1.269-.143v-1.134a4.906,4.906,0,0,0,1.04.1,2.144,2.144,0,0,0,2.063-1.624l.515-1.317Z" transform="translate(-427.874 -351.743)" fill="#f9f9f9"/>
    <path id="Path_302" data-name="Path 302" d="M383.774,374.808a3.158,3.158,0,0,1-.253,5.37,1.364,1.364,0,0,0-.543.951,1.063,1.063,0,0,0,.5.833l.7.542a3.376,3.376,0,0,1,1.628,2.716c0,1.822-1.764,3.663-5.1,3.663-2.811,0-4.168-1.337-4.168-2.773a2.789,2.789,0,0,1,1.493-2.365,8.356,8.356,0,0,1,3.7-.892,2.028,2.028,0,0,1-.582-1.317,1.749,1.749,0,0,1,.194-.757c-.214.02-.427.04-.621.04a3.065,3.065,0,0,1-3.218-3.045,3.488,3.488,0,0,1,1.24-2.6,5.287,5.287,0,0,1,3.471-1.07h4l-1.241.7Zm-1.377,8.608a3,3,0,0,0-.445-.021,7.754,7.754,0,0,0-2.036.312,2.178,2.178,0,0,0-1.667,2c0,1.376,1.338,2.366,3.413,2.366,1.86,0,2.85-.894,2.85-2.095,0-.99-.64-1.512-2.114-2.559Zm.563-3.684a1.961,1.961,0,0,0,.484-1.416c0-1.4-.833-3.566-2.442-3.566a1.811,1.811,0,0,0-1.357.64,2.239,2.239,0,0,0-.426,1.435c0,1.3.756,3.451,2.425,3.451a1.985,1.985,0,0,0,1.317-.543Z" transform="translate(-299.455 -352.158)" fill="#f9f9f9"/>
    <path id="Path_303" data-name="Path 303" d="M346.8,382.4a4.568,4.568,0,0,1-4.722-4.568,4.8,4.8,0,0,1,5.014-4.7,4.526,4.526,0,0,1,4.625,4.568,4.729,4.729,0,0,1-4.917,4.7Zm2.419-1.564a3.5,3.5,0,0,0,.581-2.149c0-1.7-.812-4.955-3.21-4.955a2.7,2.7,0,0,0-1.741.658,2.928,2.928,0,0,0-.891,2.362c0,1.915.948,5.069,3.292,5.069A2.469,2.469,0,0,0,349.214,380.841Z" transform="translate(-274.681 -351.456)" fill="#f9f9f9"/>
    <path id="Path_304" data-name="Path 304" d="M309.5,382.4a4.568,4.568,0,0,1-4.723-4.568,4.8,4.8,0,0,1,5.014-4.7,4.527,4.527,0,0,1,4.625,4.568,4.73,4.73,0,0,1-4.916,4.7Zm2.42-1.564a3.507,3.507,0,0,0,.581-2.149c0-1.7-.813-4.955-3.21-4.955a2.7,2.7,0,0,0-1.741.658,2.929,2.929,0,0,0-.89,2.362c0,1.915.948,5.069,3.292,5.069a2.474,2.474,0,0,0,1.969-.985Z" transform="translate(-247.876 -351.456)" fill="#f9f9f9"/>
    <path id="Path_305" data-name="Path 305" d="M265.264,370.909l-2.783.642a20.62,20.62,0,0,1-3.21.329c-5.372,0-7.414-3.95-7.414-7.045,0-3.774,2.9-7.276,7.862-7.276a11.2,11.2,0,0,1,2.977.412,7.587,7.587,0,0,1,2.569,1.206l-1.616,1.537-.681.155.486-.779a5.562,5.562,0,0,0-4.164-1.829c-3.075,0-5.391,2.336-5.391,5.741a6.882,6.882,0,0,0,6.888,7.1,5.8,5.8,0,0,0,2.469-.486v-3.132l-2.938.156,1.555-.838H266l-.505.486a.454.454,0,0,0-.2.311c-.021.175-.039.741-.039.935Z" transform="translate(-209.841 -340.263)" fill="#f9f9f9"/>
    <path id="Path_306" data-name="Path 306" d="M413.554,369.24c-.643-.058-.777-.174-.777-.934V357.292c0-.042.007-.082.011-.125.082-.681.272-.8.876-1.152H410.88l-1.46.7h1.488v12.016c0,.388-.077.447-.525,1.03h3.445l.72-.427C414.216,369.3,413.886,369.279,413.554,369.24Z" transform="translate(-323.084 -339.155)" fill="#f9f9f9"/>
    <path id="Path_307" data-name="Path 307" d="M434.243,381.737c-.212.116-.425.253-.636.348a4.5,4.5,0,0,1-1.876.367,4.13,4.13,0,0,1-2.57-.754,5,5,0,0,1-1.97-4.078,4.38,4.38,0,0,1,4.425-4.463,3.756,3.756,0,0,1,1.992.542,3.2,3.2,0,0,1,1.351,1.912l-4.54,1.837-1.488.116c.482,2.454,2.144,3.883,3.981,3.883a4.993,4.993,0,0,0,2.358-.675Zm-1.816-5.761c.366-.135.56-.251.56-.522a1.918,1.918,0,0,0-1.914-1.662,2.38,2.38,0,0,0-2.222,2.686c0,.329.039.676.058,1.025Z" transform="translate(-335.855 -351.473)" fill="#f9f9f9"/>
    <g id="Group_102" data-name="Group 102" transform="translate(99.676 21.682)">
      <path id="Path_308" data-name="Path 308" d="M457.423,373.288v1.275h-.155v-1.275h-.422v-.133h1v.133Z" transform="translate(-456.846 -373.154)" fill="#f9f9f9"/>
      <path id="Path_309" data-name="Path 309" d="M462.361,374.563v-1.289h-.007l-.393,1.287h-.121l-.4-1.287h0v1.287H461.3v-1.407h.241l.359,1.137h0l.353-1.137h.247v1.407Z" transform="translate(-460.046 -373.154)" fill="#f9f9f9"/>
    </g>
    <text id="DISPONIBLE_EN" data-name="DISPONIBLE EN" transform="translate(41.709 11.5)" fill="#fff" font-size="7" font-family="Helvetica"><tspan x="0" y="0">DISPONIBLE EN</tspan></text>
  </g>
</svg>
