<svg xmlns="http://www.w3.org/2000/svg" xmlns:xlink="http://www.w3.org/1999/xlink" width="242.762" height="93.543" viewBox="0 0 242.762 93.543">
  <defs>
    <filter id="Path_311" x="0" y="0" width="242.762" height="93.543" filterUnits="userSpaceOnUse">
      <feOffset dy="3" input="SourceAlpha"/>
      <feGaussianBlur stdDeviation="3" result="blur"/>
      <feFlood flood-opacity="0.161"/>
      <feComposite operator="in" in2="blur"/>
      <feComposite in="SourceGraphic"/>
    </filter>
    <clipPath id="clip-path">
      <path id="Path_297" data-name="Path 297" d="M166.429,347.248l-10-5.773-19.282-11.136c-1.071-.618-2.137-.244-2.137,1.048v45.373c0,.969.761,1.386,1.694.85l19.732-11.394,10-5.773,9.612-5.549c1.128-.652,1.015-1.545.069-2.058S166.429,347.248,166.429,347.248Z" transform="translate(-135.01 -330.048)" fill="none"/>
    </clipPath>
    <linearGradient id="linear-gradient" x1="0.5" x2="0.5" y2="1" gradientUnits="objectBoundingBox">
      <stop offset="0" stop-color="#0067a2"/>
      <stop offset="0.403" stop-color="#3d91a8"/>
      <stop offset="0.805" stop-color="#74b7ae"/>
      <stop offset="1" stop-color="#8ac6b1"/>
    </linearGradient>
    <linearGradient id="linear-gradient-2" y1="0.5" x2="1" y2="0.5" gradientUnits="objectBoundingBox">
      <stop offset="0" stop-color="#50b09b"/>
      <stop offset="1" stop-color="#e9e486"/>
    </linearGradient>
    <linearGradient id="linear-gradient-3" x1="0.5" x2="0.5" y2="1" gradientUnits="objectBoundingBox">
      <stop offset="0" stop-color="#dc1b24"/>
      <stop offset="0.228" stop-color="#c1203b"/>
      <stop offset="0.748" stop-color="#8a2b6c"/>
      <stop offset="1" stop-color="#753080"/>
    </linearGradient>
    <linearGradient id="linear-gradient-4" x1="0.5" x2="0.5" y2="1" gradientUnits="objectBoundingBox">
      <stop offset="0" stop-color="#eb7165"/>
      <stop offset="0.003" stop-color="#eb7164"/>
      <stop offset="0.675" stop-color="#f9a85e"/>
      <stop offset="1" stop-color="#ffbe5c"/>
    </linearGradient>
  </defs>
  <g id="Group_1463" data-name="Group 1463" transform="translate(-255.801 -466.136)">
    <g transform="matrix(1, 0, 0, 1, 255.8, 466.14)" filter="url(#Path_311)">
      <path id="Path_311-2" data-name="Path 311" d="M318.4,358.811a9.8,9.8,0,0,1-9.8,9.8H106.444a9.8,9.8,0,0,1-9.8-9.8V305.875a9.8,9.8,0,0,1,9.8-9.8H308.6a9.8,9.8,0,0,1,9.8,9.8Z" transform="translate(-86.14 -288.57)" fill="none" stroke="#fff" stroke-width="3"/>
    </g>
    <g id="Group_99" data-name="Group 99" transform="translate(280.404 489.369)" clip-path="url(#clip-path)">
      <path id="Path_293" data-name="Path 293" d="M135.006,328.285V377.41l24.772-24.561Z" transform="translate(-135.011 -329.05)" fill="url(#linear-gradient)"/>
      <path id="Path_294" data-name="Path 294" d="M166.431,346.017l-10-5.773-21.426-12.371v.179l24.772,24.562Z" transform="translate(-135.011 -328.816)" fill="url(#linear-gradient-2)"/>
      <path id="Path_295" data-name="Path 295" d="M135.006,409.5v.179l21.426-12.371,10-5.773-6.653-6.6Z" transform="translate(-135.011 -361.14)" fill="url(#linear-gradient-3)"/>
      <path id="Path_296" data-name="Path 296" d="M198.793,369.721l-6.653,6.6,6.653,6.6,11.427-6.6Z" transform="translate(-167.373 -352.521)" fill="url(#linear-gradient-4)"/>
    </g>
    <path id="Path_298" data-name="Path 298" d="M486.014,387.742a6.178,6.178,0,0,1-2.549-.515,4.8,4.8,0,0,1-1.936-1.583h-.156a19.206,19.206,0,0,1,.156,2.372v5.878h-2.156v-20.7h1.759l.3,1.955h.1a5.03,5.03,0,0,1,1.943-1.695,5.9,5.9,0,0,1,2.537-.521,5.28,5.28,0,0,1,4.387,1.942,10.345,10.345,0,0,1-.025,10.918A5.294,5.294,0,0,1,486.014,387.742Zm-.313-12.969a3.835,3.835,0,0,0-3.171,1.213,6.242,6.242,0,0,0-1,3.859v.482a7.147,7.147,0,0,0,1,4.313,3.817,3.817,0,0,0,3.22,1.3,3.349,3.349,0,0,0,2.906-1.5A7.113,7.113,0,0,0,489.7,380.3a6.85,6.85,0,0,0-1.049-4.1A3.454,3.454,0,0,0,485.7,374.772Z" transform="translate(-49.664 135.029)" fill="#f9f9f9"/>
    <path id="Path_299" data-name="Path 299" d="M517.108,379.986h-2.164V359.7h2.164Z" transform="translate(-69.817 142.522)" fill="#f9f9f9"/>
    <path id="Path_300" data-name="Path 300" d="M535.754,387.516l-.43-2.03h-.1a5.994,5.994,0,0,1-2.132,1.818,6.47,6.47,0,0,1-2.652.476,4.772,4.772,0,0,1-3.33-1.095,3.992,3.992,0,0,1-1.206-3.116q0-4.327,6.921-4.536l2.425-.079v-.888a3.617,3.617,0,0,0-.724-2.483,2.973,2.973,0,0,0-2.314-.8,9.421,9.421,0,0,0-4.04,1.095l-.665-1.655a10.171,10.171,0,0,1,2.314-.9,10.024,10.024,0,0,1,2.522-.326,5.443,5.443,0,0,1,3.787,1.134,4.738,4.738,0,0,1,1.232,3.637v9.75Zm-4.888-1.522a4.4,4.4,0,0,0,3.171-1.107,4.1,4.1,0,0,0,1.154-3.1V380.49l-2.165.09a7.871,7.871,0,0,0-3.722.8,2.418,2.418,0,0,0-1.142,2.209,2.226,2.226,0,0,0,.71,1.786,2.945,2.945,0,0,0,1.993.614Z" transform="translate(-76.022 134.992)" fill="#f9f9f9"/>
    <path id="Path_301" data-name="Path 301" d="M555.222,373.533h2.319l3.128,8.148a31.148,31.148,0,0,1,1.279,4.029h.1q.169-.666.71-2.276t3.539-9.895h2.321l-6.14,16.268a8.12,8.12,0,0,1-2.132,3.425,4.533,4.533,0,0,1-2.991,1.015,8.752,8.752,0,0,1-1.956-.221v-1.748a7.557,7.557,0,0,0,1.6.156,3.3,3.3,0,0,0,3.18-2.5l.794-2.03Z" transform="translate(-92.631 134.689)" fill="#f9f9f9"/>
    <path id="Path_302" data-name="Path 302" d="M387.689,375.193a4.867,4.867,0,0,1-.389,8.277,2.1,2.1,0,0,0-.837,1.466,1.639,1.639,0,0,0,.778,1.284l1.076.835c1.314,1.106,2.509,2.122,2.509,4.186,0,2.808-2.72,5.646-7.859,5.646-4.333,0-6.424-2.061-6.424-4.274a4.3,4.3,0,0,1,2.3-3.646,12.88,12.88,0,0,1,5.708-1.375,3.126,3.126,0,0,1-.9-2.03,2.7,2.7,0,0,1,.3-1.167c-.33.03-.658.061-.958.061a4.724,4.724,0,0,1-4.96-4.694,5.377,5.377,0,0,1,1.912-4,8.149,8.149,0,0,1,5.351-1.649h6.159l-1.913,1.076Zm-2.122,13.267a4.629,4.629,0,0,0-.686-.032,11.955,11.955,0,0,0-3.138.481,3.357,3.357,0,0,0-2.57,3.078c0,2.121,2.063,3.647,5.261,3.647,2.867,0,4.393-1.378,4.393-3.228,0-1.526-.987-2.33-3.259-3.944Zm.868-5.678a3.023,3.023,0,0,0,.746-2.182c0-2.157-1.284-5.5-3.764-5.5a2.79,2.79,0,0,0-2.092.987,3.452,3.452,0,0,0-.657,2.211c0,2,1.166,5.319,3.737,5.319a3.06,3.06,0,0,0,2.03-.837Z" transform="translate(8.579 134.356)" fill="#f9f9f9"/>
    <path id="Path_303" data-name="Path 303" d="M349.352,387.427a7.04,7.04,0,0,1-7.279-7.042,7.392,7.392,0,0,1,7.728-7.248,6.977,6.977,0,0,1,7.129,7.04,7.289,7.289,0,0,1-7.578,7.25Zm3.728-2.41a5.4,5.4,0,0,0,.9-3.312c0-2.626-1.252-7.638-4.947-7.638a4.155,4.155,0,0,0-2.684,1.015,4.513,4.513,0,0,0-1.374,3.641c0,2.952,1.461,7.813,5.074,7.813a3.805,3.805,0,0,0,3.036-1.518Z" transform="translate(28.104 134.912)" fill="#f9f9f9"/>
    <path id="Path_304" data-name="Path 304" d="M312.056,387.427a7.04,7.04,0,0,1-7.28-7.042,7.393,7.393,0,0,1,7.728-7.248,6.977,6.977,0,0,1,7.129,7.04,7.29,7.29,0,0,1-7.577,7.25Zm3.729-2.41a5.4,5.4,0,0,0,.9-3.312c0-2.626-1.253-7.638-4.947-7.638a4.157,4.157,0,0,0-2.684,1.015,4.515,4.515,0,0,0-1.372,3.641c0,2.952,1.461,7.813,5.074,7.813a3.813,3.813,0,0,0,3.034-1.518Z" transform="translate(49.229 134.912)" fill="#f9f9f9"/>
    <path id="Path_305" data-name="Path 305" d="M272.521,378.136l-4.289.989a31.777,31.777,0,0,1-4.947.507c-8.28,0-11.428-6.089-11.428-10.859,0-5.817,4.468-11.215,12.118-11.215a17.266,17.266,0,0,1,4.588.634,11.694,11.694,0,0,1,3.959,1.86l-2.49,2.37-1.049.238.75-1.2a8.573,8.573,0,0,0-6.417-2.819c-4.739,0-8.309,3.6-8.309,8.849a10.607,10.607,0,0,0,10.618,10.946,8.933,8.933,0,0,0,3.806-.75V372.86l-4.529.24,2.4-1.291h6.359l-.779.75a.7.7,0,0,0-.3.479c-.032.27-.06,1.142-.06,1.441Z" transform="translate(79.206 143.736)" fill="#f9f9f9"/>
    <path id="Path_306" data-name="Path 306" d="M415.792,376.4c-.991-.09-1.2-.269-1.2-1.44V357.984c0-.065.01-.127.016-.193.127-1.049.42-1.229,1.351-1.776H411.67l-2.25,1.08h2.294v18.52c0,.6-.118.689-.809,1.588h5.31l1.11-.658C416.813,376.489,416.3,376.46,415.792,376.4Z" transform="translate(-10.044 144.608)" fill="#f9f9f9"/>
    <path id="Path_307" data-name="Path 307" d="M438.062,386.382c-.326.179-.655.389-.981.537a6.935,6.935,0,0,1-2.892.566,6.365,6.365,0,0,1-3.962-1.162,7.709,7.709,0,0,1-3.037-6.285,6.751,6.751,0,0,1,6.821-6.879,5.79,5.79,0,0,1,3.07.835,4.931,4.931,0,0,1,2.083,2.947l-7,2.831-2.294.179c.743,3.783,3.3,5.985,6.136,5.985a7.7,7.7,0,0,0,3.634-1.04Zm-2.8-8.88c.565-.208.863-.387.863-.8a2.956,2.956,0,0,0-2.949-2.561c-1.192,0-3.425.923-3.425,4.14,0,.507.06,1.043.09,1.579Z" transform="translate(-20.109 134.902)" fill="#f9f9f9"/>
    <g id="Group_102" data-name="Group 102" transform="translate(419.938 508.055)">
      <path id="Path_308" data-name="Path 308" d="M457.735,373.36v1.965H457.5V373.36h-.651v-.2h1.539v.2Z" transform="translate(-456.846 -373.153)" fill="#f9f9f9"/>
      <path id="Path_309" data-name="Path 309" d="M462.935,375.326v-1.987h-.011l-.605,1.984h-.186l-.611-1.984h-.008v1.984H461.3v-2.169h.372l.553,1.753h.008l.544-1.753h.381v2.169Z" transform="translate(-459.367 -373.154)" fill="#f9f9f9"/>
    </g>
    <text id="DISPONIBLE_EN" data-name="DISPONIBLE EN" transform="translate(331.01 492.301)" fill="#fff" font-size="11" font-family="Helvetica"><tspan x="0" y="0">DISPONIBLE EN</tspan></text>
  </g>
</svg>
