<svg xmlns="http://www.w3.org/2000/svg" width="25.62" height="25.736" viewBox="0 0 25.62 25.736">
  <path id="whatsapp-2" d="M21.877,3.741A12.633,12.633,0,0,0,12.858,0,12.762,12.762,0,0,0,1.8,19.127L0,25.736l6.762-1.773a12.76,12.76,0,0,0,6.1,1.552h.006A12.749,12.749,0,0,0,21.876,3.741ZM12.858,23.357a10.573,10.573,0,0,1-5.4-1.48l-.386-.232L3.063,22.7l1.071-3.913-.251-.4a10.6,10.6,0,1,1,8.975,4.977Zm5.815-7.936c-.317-.159-1.882-.93-2.176-1.039s-.507-.159-.716.159-.825,1.039-1.009,1.247-.373.238-.692.08a8.7,8.7,0,0,1-2.561-1.584,9.724,9.724,0,0,1-1.774-2.207c-.183-.318-.018-.489.142-.648.14-.142.317-.373.476-.557a2.034,2.034,0,0,0,.318-.531.593.593,0,0,0-.024-.558c-.08-.159-.716-1.731-.984-2.364s-.52-.539-.716-.547-.4-.011-.611-.011a1.173,1.173,0,0,0-.851.4,3.571,3.571,0,0,0-1.111,2.66,6.174,6.174,0,0,0,1.3,3.3,14.168,14.168,0,0,0,5.442,4.813,17.728,17.728,0,0,0,1.816.672,4.377,4.377,0,0,0,2,.129A3.3,3.3,0,0,0,19.1,17.311a2.668,2.668,0,0,0,.183-1.517c-.079-.135-.293-.214-.611-.373Z" fill="#fff"/>
</svg>
