<svg xmlns="http://www.w3.org/2000/svg" xmlns:xlink="http://www.w3.org/1999/xlink" width="153.687" height="150.314" viewBox="0 0 153.687 150.314"><defs><style>.a{fill:#ff8d4e;}.b{fill:#fff;}.c{fill:#a264ea;}.d{fill:#bc86ff;}.e{fill:#7224c7;stroke:#7224c7;}.e,.f,.h,.i{stroke-miterlimit:10;}.f,.h{fill:#ff730b;}.f{stroke:#ff730b;}.g{fill:#1d1d1b;}.h{stroke:#ff8d4e;}.i{fill:none;stroke:#fff;stroke-linecap:round;}.j{filter:url(#bk);}.k{filter:url(#bi);}.l{filter:url(#bg);}.m{filter:url(#be);}.n{filter:url(#bc);}.o{filter:url(#ba);}.p{filter:url(#ay);}.q{filter:url(#aw);}.r{filter:url(#au);}.s{filter:url(#as);}.t{filter:url(#aq);}.u{filter:url(#ao);}.v{filter:url(#am);}.w{filter:url(#ak);}.x{filter:url(#ai);}.y{filter:url(#ag);}.z{filter:url(#ae);}.aa{filter:url(#ac);}.ab{filter:url(#aa);}.ac{filter:url(#y);}.ad{filter:url(#w);}.ae{filter:url(#u);}.af{filter:url(#s);}.ag{filter:url(#q);}.ah{filter:url(#o);}.ai{filter:url(#m);}.aj{filter:url(#k);}.ak{filter:url(#i);}.al{filter:url(#g);}.am{filter:url(#e);}.an{filter:url(#c);}.ao{filter:url(#a);}</style><filter id="a" x="5.578" y="0" width="140.295" height="150.314" filterUnits="userSpaceOnUse"><feOffset dx="5" dy="10" input="SourceAlpha"/><feGaussianBlur stdDeviation="10" result="b"/><feFlood flood-color="#6f2ec3" flood-opacity="0.2"/><feComposite operator="in" in2="b"/><feComposite in="SourceGraphic"/></filter><filter id="c" x="9.705" y="6.47" width="132.042" height="109.134" filterUnits="userSpaceOnUse"><feOffset dx="5" dy="10" input="SourceAlpha"/><feGaussianBlur stdDeviation="10" result="d"/><feFlood flood-color="#6f2ec3" flood-opacity="0.2"/><feComposite operator="in" in2="d"/><feComposite in="SourceGraphic"/></filter><filter id="e" x="5.578" y="4.003" width="85.354" height="131.12" filterUnits="userSpaceOnUse"><feOffset dx="5" dy="10" input="SourceAlpha"/><feGaussianBlur stdDeviation="10" result="f"/><feFlood flood-color="#6f2ec3" flood-opacity="0.2"/><feComposite operator="in" in2="f"/><feComposite in="SourceGraphic"/></filter><filter id="g" x="60.52" y="4.003" width="85.354" height="131.12" filterUnits="userSpaceOnUse"><feOffset dx="5" dy="10" input="SourceAlpha"/><feGaussianBlur stdDeviation="10" result="h"/><feFlood flood-color="#6f2ec3" flood-opacity="0.2"/><feComposite operator="in" in2="h"/><feComposite in="SourceGraphic"/></filter><filter id="i" x="86.37" y="57.318" width="60" height="60" filterUnits="userSpaceOnUse"><feOffset dx="5" dy="10" input="SourceAlpha"/><feGaussianBlur stdDeviation="10" result="j"/><feFlood flood-color="#6f2ec3" flood-opacity="0.2"/><feComposite operator="in" in2="j"/><feComposite in="SourceGraphic"/></filter><filter id="k" x="83.149" y="25.918" width="69.54" height="87.21" filterUnits="userSpaceOnUse"><feOffset dx="5" dy="10" input="SourceAlpha"/><feGaussianBlur stdDeviation="10" result="l"/><feFlood flood-color="#6f2ec3" flood-opacity="0.2"/><feComposite operator="in" in2="l"/><feComposite in="SourceGraphic"/></filter><filter id="m" x="86.728" y="26.008" width="65.897" height="87.065" filterUnits="userSpaceOnUse"><feOffset dx="5" dy="10" input="SourceAlpha"/><feGaussianBlur stdDeviation="10" result="n"/><feFlood flood-color="#6f2ec3" flood-opacity="0.2"/><feComposite operator="in" in2="n"/><feComposite in="SourceGraphic"/></filter><filter id="o" x="21.082" y="0.031" width="109.667" height="73.86" filterUnits="userSpaceOnUse"><feOffset dx="5" dy="10" input="SourceAlpha"/><feGaussianBlur stdDeviation="10" result="p"/><feFlood flood-color="#6f2ec3" flood-opacity="0.2"/><feComposite operator="in" in2="p"/><feComposite in="SourceGraphic"/></filter><filter id="q" x="35.951" y="36.587" width="76.917" height="67.453" filterUnits="userSpaceOnUse"><feOffset dx="5" dy="10" input="SourceAlpha"/><feGaussianBlur stdDeviation="10" result="r"/><feFlood flood-color="#6f2ec3" flood-opacity="0.2"/><feComposite operator="in" in2="r"/><feComposite in="SourceGraphic"/></filter><filter id="s" x="4.197" y="44.113" width="93.919" height="75.723" filterUnits="userSpaceOnUse"><feOffset dx="5" dy="10" input="SourceAlpha"/><feGaussianBlur stdDeviation="10" result="t"/><feFlood flood-color="#6f2ec3" flood-opacity="0.2"/><feComposite operator="in" in2="t"/><feComposite in="SourceGraphic"/></filter><filter id="u" x="28.489" y="45.521" width="67.134" height="65.045" filterUnits="userSpaceOnUse"><feOffset dx="5" dy="10" input="SourceAlpha"/><feGaussianBlur stdDeviation="10" result="v"/><feFlood flood-color="#6f2ec3" flood-opacity="0.2"/><feComposite operator="in" in2="v"/><feComposite in="SourceGraphic"/></filter><filter id="w" x="23.318" y="18.68" width="73.372" height="73.372" filterUnits="userSpaceOnUse"><feOffset dx="5" dy="10" input="SourceAlpha"/><feGaussianBlur stdDeviation="10" result="x"/><feFlood flood-color="#6f2ec3" flood-opacity="0.2"/><feComposite operator="in" in2="x"/><feComposite in="SourceGraphic"/></filter><filter id="y" x="27.083" y="19.462" width="68.602" height="68.262" filterUnits="userSpaceOnUse"><feOffset dx="5" dy="10" input="SourceAlpha"/><feGaussianBlur stdDeviation="10" result="z"/><feFlood flood-color="#6f2ec3" flood-opacity="0.2"/><feComposite operator="in" in2="z"/><feComposite in="SourceGraphic"/></filter><filter id="aa" x="25.43" y="25.073" width="65.443" height="65.285" filterUnits="userSpaceOnUse"><feOffset dx="5" dy="10" input="SourceAlpha"/><feGaussianBlur stdDeviation="10" result="ab"/><feFlood flood-color="#6f2ec3" flood-opacity="0.2"/><feComposite operator="in" in2="ab"/><feComposite in="SourceGraphic"/></filter><filter id="ac" x="55.534" y="17.903" width="73.372" height="73.372" filterUnits="userSpaceOnUse"><feOffset dx="5" dy="10" input="SourceAlpha"/><feGaussianBlur stdDeviation="10" result="ad"/><feFlood flood-color="#6f2ec3" flood-opacity="0.2"/><feComposite operator="in" in2="ad"/><feComposite in="SourceGraphic"/></filter><filter id="ae" x="59.3" y="18.685" width="68.602" height="68.262" filterUnits="userSpaceOnUse"><feOffset dx="5" dy="10" input="SourceAlpha"/><feGaussianBlur stdDeviation="10" result="af"/><feFlood flood-color="#6f2ec3" flood-opacity="0.2"/><feComposite operator="in" in2="af"/><feComposite in="SourceGraphic"/></filter><filter id="ag" x="57.647" y="24.296" width="65.443" height="65.285" filterUnits="userSpaceOnUse"><feOffset dx="5" dy="10" input="SourceAlpha"/><feGaussianBlur stdDeviation="10" result="ah"/><feFlood flood-color="#6f2ec3" flood-opacity="0.2"/><feComposite operator="in" in2="ah"/><feComposite in="SourceGraphic"/></filter><filter id="ai" x="6.578" y="0.001" width="140.294" height="150.312" filterUnits="userSpaceOnUse"><feOffset dx="6" dy="10" input="SourceAlpha"/><feGaussianBlur stdDeviation="10" result="aj"/><feFlood flood-color="#6f2ec3" flood-opacity="0.243"/><feComposite operator="in" in2="aj"/><feComposite in="SourceGraphic"/></filter><filter id="ak" x="10.705" y="6.471" width="132.041" height="109.133" filterUnits="userSpaceOnUse"><feOffset dx="6" dy="10" input="SourceAlpha"/><feGaussianBlur stdDeviation="10" result="al"/><feFlood flood-color="#6f2ec3" flood-opacity="0.243"/><feComposite operator="in" in2="al"/><feComposite in="SourceGraphic"/></filter><filter id="am" x="6.578" y="4.003" width="85.354" height="131.119" filterUnits="userSpaceOnUse"><feOffset dx="6" dy="10" input="SourceAlpha"/><feGaussianBlur stdDeviation="10" result="an"/><feFlood flood-color="#6f2ec3" flood-opacity="0.243"/><feComposite operator="in" in2="an"/><feComposite in="SourceGraphic"/></filter><filter id="ao" x="61.519" y="4.003" width="85.354" height="131.119" filterUnits="userSpaceOnUse"><feOffset dx="6" dy="10" input="SourceAlpha"/><feGaussianBlur stdDeviation="10" result="ap"/><feFlood flood-color="#6f2ec3" flood-opacity="0.243"/><feComposite operator="in" in2="ap"/><feComposite in="SourceGraphic"/></filter><filter id="aq" x="87.368" y="57.318" width="60" height="60" filterUnits="userSpaceOnUse"><feOffset dx="6" dy="10" input="SourceAlpha"/><feGaussianBlur stdDeviation="10" result="ar"/><feFlood flood-color="#6f2ec3" flood-opacity="0.243"/><feComposite operator="in" in2="ar"/><feComposite in="SourceGraphic"/></filter><filter id="as" x="84.148" y="25.918" width="69.539" height="87.21" filterUnits="userSpaceOnUse"><feOffset dx="6" dy="10" input="SourceAlpha"/><feGaussianBlur stdDeviation="10" result="at"/><feFlood flood-color="#6f2ec3" flood-opacity="0.243"/><feComposite operator="in" in2="at"/><feComposite in="SourceGraphic"/></filter><filter id="au" x="87.727" y="26.009" width="65.896" height="87.064" filterUnits="userSpaceOnUse"><feOffset dx="6" dy="10" input="SourceAlpha"/><feGaussianBlur stdDeviation="10" result="av"/><feFlood flood-color="#6f2ec3" flood-opacity="0.243"/><feComposite operator="in" in2="av"/><feComposite in="SourceGraphic"/></filter><filter id="aw" x="22.082" y="0.031" width="109.666" height="73.86" filterUnits="userSpaceOnUse"><feOffset dx="6" dy="10" input="SourceAlpha"/><feGaussianBlur stdDeviation="10" result="ax"/><feFlood flood-color="#6f2ec3" flood-opacity="0.243"/><feComposite operator="in" in2="ax"/><feComposite in="SourceGraphic"/></filter><filter id="ay" x="37.067" y="35.114" width="76.972" height="68.669" filterUnits="userSpaceOnUse"><feOffset dx="6" dy="10" input="SourceAlpha"/><feGaussianBlur stdDeviation="10" result="az"/><feFlood flood-color="#6f2ec3" flood-opacity="0.243"/><feComposite operator="in" in2="az"/><feComposite in="SourceGraphic"/></filter><filter id="ba" x="23.39" y="21.235" width="72.705" height="67.689" filterUnits="userSpaceOnUse"><feOffset dx="6" dy="10" input="SourceAlpha"/><feGaussianBlur stdDeviation="10" result="bb"/><feFlood flood-color="#6f2ec3" flood-opacity="0.243"/><feComposite operator="in" in2="bb"/><feComposite in="SourceGraphic"/></filter><filter id="bc" x="56.815" y="19.851" width="72.767" height="67.377" filterUnits="userSpaceOnUse"><feOffset dx="6" dy="10" input="SourceAlpha"/><feGaussianBlur stdDeviation="10" result="bd"/><feFlood flood-color="#6f2ec3" flood-opacity="0.243"/><feComposite operator="in" in2="bd"/><feComposite in="SourceGraphic"/></filter><filter id="be" x="5.197" y="44.113" width="93.918" height="75.722" filterUnits="userSpaceOnUse"><feOffset dx="6" dy="10" input="SourceAlpha"/><feGaussianBlur stdDeviation="10" result="bf"/><feFlood flood-color="#6f2ec3" flood-opacity="0.243"/><feComposite operator="in" in2="bf"/><feComposite in="SourceGraphic"/></filter><filter id="bg" x="29.488" y="45.521" width="67.134" height="65.045" filterUnits="userSpaceOnUse"><feOffset dx="6" dy="10" input="SourceAlpha"/><feGaussianBlur stdDeviation="10" result="bh"/><feFlood flood-color="#6f2ec3" flood-opacity="0.243"/><feComposite operator="in" in2="bh"/><feComposite in="SourceGraphic"/></filter><filter id="bi" x="0" y="25.918" width="69.539" height="87.21" filterUnits="userSpaceOnUse"><feOffset dx="6" dy="10" input="SourceAlpha"/><feGaussianBlur stdDeviation="10" result="bj"/><feFlood flood-color="#6f2ec3" flood-opacity="0.243"/><feComposite operator="in" in2="bj"/><feComposite in="SourceGraphic"/></filter><filter id="bk" x="0.064" y="26.009" width="65.896" height="87.064" filterUnits="userSpaceOnUse"><feOffset dx="6" dy="10" input="SourceAlpha"/><feGaussianBlur stdDeviation="10" result="bl"/><feFlood flood-color="#6f2ec3" flood-opacity="0.243"/><feComposite operator="in" in2="bl"/><feComposite in="SourceGraphic"/></filter></defs><g transform="translate(24.526 20)"><g transform="translate(-11449.438 435.833)"><g class="ao" transform="matrix(1, 0, 0, 1, 11424.91, -455.83)"><path class="a" d="M612.738,150.547a40.148,40.148,0,1,0-51.089,38.638l-.007.008c.833,3.952,5.278,10.663,10.825,11.5,4.171.626,10.61-11.061,10.816-11.437A40.163,40.163,0,0,0,612.738,150.547Z" transform="translate(-501.86 -90.4)"/></g><g class="an" transform="matrix(1, 0, 0, 1, 11424.91, -455.83)"><path class="b" d="M621.682,173.385c0,19.894-16.127,11.238-36.021,11.238s-36.021,8.655-36.021-11.238a36.021,36.021,0,1,1,72.042,0Z" transform="translate(-514.94 -110.89)"/></g><g class="am" transform="matrix(1, 0, 0, 1, 11424.91, -455.83)"><path class="c" d="M553.488,178.405c-9.579.787-16.918-.453-16.918-12.885A36.028,36.028,0,0,1,557.8,132.668a30.829,30.829,0,0,0-2.8-5.587,40.158,40.158,0,0,0-2.041,71.12c-.017-.513,2.27-4.568,2.978-7.167C557,187.144,558.011,182.972,553.488,178.405Z" transform="translate(-501.86 -103.08)"/></g><g class="al" transform="matrix(1, 0, 0, 1, 11424.91, -455.83)"><path class="c" d="M765.727,178.405c9.579.787,16.918-.453,16.918-12.885a36.028,36.028,0,0,0-21.228-32.853,30.822,30.822,0,0,1,2.8-5.587,40.158,40.158,0,0,1,2.041,71.12c.017-.513-2.27-4.568-2.978-7.167C762.219,187.144,761.2,182.972,765.727,178.405Z" transform="translate(-675.9 -103.08)"/></g><g class="ak" transform="matrix(1, 0, 0, 1, 11424.91, -455.83)"><path class="d" d="M869.152,349.281" transform="translate(-757.78 -271.96)"/></g><g class="aj" transform="matrix(1, 0, 0, 1, 11424.91, -455.83)"><path class="e" d="M858.275,221.294s4.58-3.148,7.195,3.091c2.184,5.212.823,15.075.4,17.94a6.584,6.584,0,0,1-.935,2.585c-.965,1.516-2.853,3.084-5.916.132C859.02,245.042,862.462,231.927,858.275,221.294Z" transform="translate(-749.52 -174.08)"/></g><g class="ai" transform="matrix(1, 0, 0, 1, 11424.91, -455.83)"><path class="f" d="M872.8,221.172c1.045,1.958,5.523,11.606.8,25.541a.182.182,0,0,0,.213.238c.816-.2,3.238-1.52,3.549-6.9.373-6.429,1.473-17.434-4.345-19.143A.185.185,0,0,0,872.8,221.172Z" transform="translate(-760.54 -174.39)"/></g><g class="ah" transform="matrix(1, 0, 0, 1, 11424.91, -455.83)"><path class="a" d="M621.763,117a35.856,35.856,0,0,1,21.289,6.964c1.206-1.592,2.411-3.184,3.671-4.732a40.148,40.148,0,0,0-49.667-.2c.958,1.79,1.749,3.525,2.622,5.358A36.173,36.173,0,0,1,621.763,117Z" transform="translate(-550.97 -90.5)"/></g><g class="ag" transform="matrix(1, 0, 0, 1, 11424.91, -455.83)"><path class="g" d="M659.683,263.072c2.7.518,10.949,1.836,15.529-.148a.507.507,0,0,1,.731.439c-.188,1.964-1.217,6.763-6.77,6.959-7.177.254-9.493-4.711-10.123-6.657C658.936,263.314,659.276,262.994,659.683,263.072Z" transform="translate(-598.08 -206.29)"/></g><g class="af" transform="matrix(1, 0, 0, 1, 11424.91, -455.83)"><path class="h" d="M528.982,304.41s-1.552,9.5,10.244,5.886,11.676-5.3,14.445-4.818,11.917-.214,6.38-6.786c-4.384-5.2-6.73-.1-7.518,2.251a3.489,3.489,0,0,1-1.339,1.781c-2.643,1.8-9.854,6.242-15.726,5.453a4.1,4.1,0,0,1-3.3-2.752l-.9-2.6S529.213,303.1,528.982,304.41Z" transform="translate(-499.18 -231.8)"/></g><g class="ae" transform="matrix(1, 0, 0, 1, 11424.91, -455.83)"><path class="i" d="M630.563,306.113s2.092-6.231,5.8-2.963" transform="translate(-576.44 -236.18)"/></g><g class="ad" transform="matrix(1, 0, 0, 1, 11424.91, -455.83)"><circle cx="6.686" cy="6.686" r="6.686" transform="translate(48.32 38.68)"/></g><g class="ac" transform="matrix(1, 0, 0, 1, 11424.91, -455.83)"><ellipse class="b" cx="2.059" cy="3.916" rx="2.059" ry="3.916" transform="translate(52.08 42.56) rotate(-48.71)"/></g><g class="ab" transform="matrix(1, 0, 0, 1, 11424.91, -455.83)"><ellipse class="b" cx="1.467" cy="2.334" rx="1.467" ry="2.334" transform="translate(50.43 47.28) rotate(-48.71)"/></g><g class="aa" transform="matrix(1, 0, 0, 1, 11424.91, -455.83)"><circle cx="6.686" cy="6.686" r="6.686" transform="translate(80.53 37.9)"/></g><g class="z" transform="matrix(1, 0, 0, 1, 11424.91, -455.83)"><ellipse class="b" cx="2.059" cy="3.916" rx="2.059" ry="3.916" transform="translate(84.3 41.78) rotate(-48.71)"/></g><g class="y" transform="matrix(1, 0, 0, 1, 11424.91, -455.83)"><ellipse class="b" cx="1.467" cy="2.334" rx="1.467" ry="2.334" transform="translate(82.65 46.5) rotate(-48.71)"/></g></g><g transform="translate(-9128.794 743.834)"><g class="x" transform="matrix(1, 0, 0, 1, 9104.27, -763.83)"><path class="a" d="M167.737,144.546a40.147,40.147,0,1,0-51.088,38.637l-.007.008c.833,3.952,5.278,10.663,10.825,11.5,4.171.626,10.61-11.061,10.815-11.437A40.162,40.162,0,0,0,167.737,144.546Z" transform="translate(-56.86 -84.4)"/></g><g class="w" transform="matrix(1, 0, 0, 1, 9104.27, -763.83)"><path class="b" d="M176.681,167.385c0,19.894-16.127,11.238-36.021,11.238s-36.021,8.655-36.021-11.238a36.021,36.021,0,0,1,72.041,0Z" transform="translate(-69.94 -104.89)"/></g><g class="v" transform="matrix(1, 0, 0, 1, 9104.27, -763.83)"><path class="c" d="M108.487,172.4c-9.579.787-16.918-.453-16.918-12.884A36.027,36.027,0,0,1,112.8,126.668a30.833,30.833,0,0,0-2.8-5.587,40.157,40.157,0,0,0-2.041,71.119c-.017-.513,2.27-4.568,2.978-7.167C112,181.143,113.011,176.971,108.487,172.4Z" transform="translate(-56.86 -97.08)"/></g><g class="u" transform="matrix(1, 0, 0, 1, 9104.27, -763.83)"><path class="c" d="M320.727,172.4c9.579.787,16.918-.453,16.918-12.884a36.027,36.027,0,0,0-21.227-32.852,30.818,30.818,0,0,1,2.8-5.587,40.158,40.158,0,0,1,2.041,71.119c.017-.513-2.27-4.568-2.978-7.167C317.219,181.143,316.2,176.971,320.727,172.4Z" transform="translate(-230.9 -97.08)"/></g><g class="t" transform="matrix(1, 0, 0, 1, 9104.27, -763.83)"><path class="d" d="M424.152,343.281" transform="translate(-312.78 -265.96)"/></g><g class="s" transform="matrix(1, 0, 0, 1, 9104.27, -763.83)"><path class="e" d="M413.275,215.294s4.58-3.148,7.195,3.091c2.184,5.212.823,15.074.4,17.94a6.583,6.583,0,0,1-.935,2.585c-.965,1.516-2.853,3.083-5.916.132C414.02,239.041,417.462,225.927,413.275,215.294Z" transform="translate(-304.52 -168.08)"/></g><g class="r" transform="matrix(1, 0, 0, 1, 9104.27, -763.83)"><path class="f" d="M427.8,215.172c1.045,1.958,5.523,11.605.8,25.54a.182.182,0,0,0,.213.238c.816-.2,3.237-1.52,3.549-6.9.373-6.429,1.473-17.434-4.345-19.143A.185.185,0,0,0,427.8,215.172Z" transform="translate(-315.54 -168.39)"/></g><g class="q" transform="matrix(1, 0, 0, 1, 9104.27, -763.83)"><path class="a" d="M176.763,111a35.856,35.856,0,0,1,21.289,6.964c1.206-1.592,2.411-3.184,3.671-4.732a40.148,40.148,0,0,0-49.666-.2c.958,1.79,1.749,3.525,2.622,5.358A36.172,36.172,0,0,1,176.763,111Z" transform="translate(-105.97 -84.5)"/></g><g class="p" transform="matrix(1, 0, 0, 1, 9104.27, -763.83)"><path class="g" d="M215.176,251.289c2.7.537,10.943,1.872,15.579-.493a.5.5,0,0,1,.724.487c-.23,2.25-1.361,7.76-6.935,8.1-7.2.44-9.423-5.191-10.015-7.4A.557.557,0,0,1,215.176,251.289Z" transform="translate(-153.44 -195.63)"/></g><g class="o" transform="matrix(1, 0, 0, 1, 9104.27, -763.83)"><path class="g" d="M170.2,198.058a1.582,1.582,0,0,0-.12-.867,7.506,7.506,0,0,0-6.667-4.278c-4.132-.309-5.461,3.684-5.87,5.743a1.606,1.606,0,0,0,1.548,1.929,3.34,3.34,0,0,0,2.145-.891,4.321,4.321,0,0,1,4.543-.813S169.748,201.242,170.2,198.058Z" transform="translate(-110.12 -151.66)"/></g><g class="n" transform="matrix(1, 0, 0, 1, 9104.27, -763.83)"><path class="g" d="M309.54,192.879a1.584,1.584,0,0,0-.049-.875,7.505,7.505,0,0,0-6.3-4.805c-4.093-.644-5.742,3.228-6.318,5.247a1.606,1.606,0,0,0,1.386,2.049,3.341,3.341,0,0,0,2.21-.714,4.322,4.322,0,0,1,4.593-.441S308.835,196.015,309.54,192.879Z" transform="translate(-216 -147.28)"/></g><g class="m" transform="matrix(1, 0, 0, 1, 9104.27, -763.83)"><path class="h" d="M83.982,298.41s-1.552,9.5,10.244,5.886,11.676-5.3,14.445-4.817,11.917-.214,6.38-6.786c-4.384-5.2-6.73-.1-7.518,2.251a3.489,3.489,0,0,1-1.339,1.781c-2.642,1.8-9.853,6.242-15.726,5.453a4.1,4.1,0,0,1-3.3-2.752l-.9-2.6S84.213,297.1,83.982,298.41Z" transform="translate(-54.18 -225.8)"/></g><g class="l" transform="matrix(1, 0, 0, 1, 9104.27, -763.83)"><path class="i" d="M185.563,300.113s2.092-6.231,5.8-2.963" transform="translate(-131.44 -230.18)"/></g><g class="k" transform="matrix(1, 0, 0, 1, 9104.27, -763.83)"><path class="e" d="M421.677,215.294s-4.58-3.148-7.194,3.091c-2.184,5.212-.823,15.074-.4,17.94a6.583,6.583,0,0,0,.935,2.585c.965,1.516,2.853,3.083,5.916.132C420.933,239.041,417.49,225.927,421.677,215.294Z" transform="translate(-388.75 -168.08)"/></g><g class="j" transform="matrix(1, 0, 0, 1, 9104.27, -763.83)"><path class="f" d="M432.667,215.172c-1.045,1.958-5.523,11.605-.8,25.54a.182.182,0,0,1-.213.238c-.816-.2-3.237-1.52-3.549-6.9-.373-6.429-1.473-17.434,4.345-19.143A.185.185,0,0,1,432.667,215.172Z" transform="translate(-403.24 -168.39)"/></g></g></g></svg>