<svg xmlns="http://www.w3.org/2000/svg" width="389.472" height="376.396" viewBox="0 0 389.472 376.396">
  <g id="Group_1506" data-name="Group 1506" transform="translate(-9918.389 1354.266)">
    <path id="Path_2353" data-name="Path 2353" d="M422.085,271.72A167.321,167.321,0,1,0,209.164,432.749l-.029.034c3.47,16.469,22,44.439,45.116,47.911,17.384,2.61,44.218-46.1,45.076-47.665A167.385,167.385,0,0,0,422.085,271.72Z" transform="translate(9858.954 -1458.665)" fill="#ff8d4e"/>
    <path id="Path_2354" data-name="Path 2354" d="M404.888,281.488c0,82.911-67.213,46.838-150.124,46.838S104.64,364.4,104.64,281.488a150.124,150.124,0,1,1,300.248,0Z" transform="translate(9858.954 -1458.665)" fill="#fff"/>
    <path id="Path_2355" data-name="Path 2355" d="M175.15,334.983c-39.922,3.278-70.509-1.888-70.509-53.7A150.151,150.151,0,0,1,193.11,144.366a128.509,128.509,0,0,0-11.663-23.285,167.365,167.365,0,0,0-8.508,296.4c-.072-2.138,9.461-19.037,12.413-29.869C189.772,371.4,194,354.016,175.15,334.983Z" transform="translate(9858.954 -1458.665)" fill="#a264ea"/>
    <path id="Path_2356" data-name="Path 2356" d="M334.378,334.983c39.922,3.278,70.51-1.888,70.51-53.7a150.152,150.152,0,0,0-88.47-136.918,128.448,128.448,0,0,1,11.664-23.285,167.366,167.366,0,0,1,8.508,296.4c.071-2.138-9.461-19.037-12.413-29.869C319.757,371.4,315.526,354.016,334.378,334.983Z" transform="translate(9858.954 -1458.665)" fill="#a264ea"/>
    <path id="Path_2357" data-name="Path 2357" d="M424.152,343.281" transform="translate(9858.954 -1458.665)" fill="#bc86ff"/>
    <path id="Path_2358" data-name="Path 2358" d="M413.275,217.809s19.087-13.119,29.985,12.884c9.1,21.721,3.429,62.826,1.672,74.768a27.436,27.436,0,0,1-3.9,10.772c-4.02,6.32-11.891,12.851-24.656.55C416.379,316.783,430.727,262.125,413.275,217.809Z" transform="translate(9858.954 -1458.665)" fill="#7224c7" stroke="#7224c7" stroke-miterlimit="10" stroke-width="1"/>
    <path id="Path_2359" data-name="Path 2359" d="M427.865,216.03c4.355,8.16,23.019,48.368,3.33,106.444a.76.76,0,0,0,.887.993c3.4-.842,13.493-6.333,14.791-28.75,1.553-26.794,6.14-72.659-18.11-79.783A.77.77,0,0,0,427.865,216.03Z" transform="translate(9858.954 -1458.665)" fill="#ff730b" stroke="#ff730b" stroke-miterlimit="10" stroke-width="1"/>
    <path id="Path_2360" data-name="Path 2360" d="M255.027,131.492a149.436,149.436,0,0,1,88.726,29.025c5.025-6.633,10.047-13.271,15.3-19.72a167.324,167.324,0,0,0-207-.837c3.991,7.462,7.288,14.691,10.927,22.33A150.756,150.756,0,0,1,255.027,131.492Z" transform="translate(9858.954 -1458.665)" fill="#ff8d4e"/>
    <path id="Path_2361" data-name="Path 2361" d="M217.287,253.028c11.24,2.237,45.608,7.8,64.928-2.054a2.068,2.068,0,0,1,3.017,2.031c-.958,9.379-5.674,32.343-28.9,33.762-30.025,1.835-39.273-21.633-41.738-30.855A2.322,2.322,0,0,1,217.287,253.028Z" transform="translate(9858.954 -1458.665)" fill="#1d1d1b"/>
    <path id="Path_2362" data-name="Path 2362" d="M210.391,214.411a6.594,6.594,0,0,0-.5-3.615c-2-4.478-9.046-16.425-27.788-17.829-17.221-1.289-22.76,15.355-24.465,23.936a6.692,6.692,0,0,0,6.452,8.04c2.473.018,5.5-.881,8.938-3.714,9.7-7.986,18.932-3.387,18.932-3.387S208.521,227.679,210.391,214.411Z" transform="translate(9858.954 -1458.665)" fill="#1d1d1b"/>
    <path id="Path_2363" data-name="Path 2363" d="M349.856,211.1a6.6,6.6,0,0,0-.2-3.645c-1.627-4.625-7.681-17.1-26.247-20.027-17.06-2.684-23.932,13.454-26.33,21.869a6.694,6.694,0,0,0,5.778,8.538c2.464.219,5.553-.432,9.211-2.976,10.312-7.171,19.144-1.837,19.144-1.837S346.914,224.168,349.856,211.1Z" transform="translate(9858.954 -1458.665)" fill="#1d1d1b"/>
    <path id="Path_2364" data-name="Path 2364" d="M84.195,323.672S77.726,363.255,126.89,348.2s48.662-22.1,60.2-20.078,49.666-.89,26.589-28.282c-18.27-21.686-28.05-.421-31.332,9.38a14.542,14.542,0,0,1-5.582,7.424c-11.013,7.511-41.066,26.014-65.541,22.728a17.1,17.1,0,0,1-13.767-11.47l-3.734-10.827S85.16,318.2,84.195,323.672Z" transform="translate(9858.954 -1458.665)" fill="#ff730b" stroke="#ff8d4e" stroke-miterlimit="10" stroke-width="1"/>
    <path id="Path_2365" data-name="Path 2365" d="M95.066,218.789S75.979,205.67,65.081,231.673c-9.1,21.721-3.429,62.826-1.672,74.768a27.467,27.467,0,0,0,3.9,10.772c4.02,6.32,13.654,12.166,26.418-.134C93.724,317.079,78.2,272.812,95.066,218.789Z" transform="translate(9858.954 -1458.665)" fill="#7224c7" stroke="#7224c7" stroke-miterlimit="10" stroke-width="1"/>
    <path id="Path_2366" data-name="Path 2366" d="M80.51,216.947c-4.272,7.979-22.929,47.909-3.636,105.7a1.2,1.2,0,0,1-1.545,1.521c-3.882-1.376-11.62-6.652-13.16-26.886-2.027-26.649-6.85-74.337,17.481-81.388A.739.739,0,0,1,80.51,216.947Z" transform="translate(9858.954 -1458.665)" fill="#ff730b" stroke="#ff730b" stroke-miterlimit="10" stroke-width="1"/>
    <path id="Path_2367" data-name="Path 2367" d="M185.563,312.5s8.718-25.97,24.154-12.349" transform="translate(9858.954 -1458.665)" fill="none" stroke="#fff" stroke-linecap="round" stroke-miterlimit="10" stroke-width="1"/>
  </g>
</svg>
