<svg xmlns="http://www.w3.org/2000/svg" width="389.472" height="376.396" viewBox="0 0 389.472 376.396">
  <g id="Group_1507" data-name="Group 1507" transform="translate(-10363.388 1348.266)">
    <path id="Path_2368" data-name="Path 2368" d="M867.085,277.72A167.321,167.321,0,1,0,654.164,438.749l-.029.034c3.47,16.469,22,44.439,45.116,47.911,17.384,2.61,44.218-46.1,45.076-47.665A167.385,167.385,0,0,0,867.085,277.72Z" transform="translate(9858.954 -1458.665)" fill="#ff8d4e"/>
    <path id="Path_2369" data-name="Path 2369" d="M849.888,287.488c0,82.911-67.213,46.838-150.124,46.838S549.64,370.4,549.64,287.488a150.124,150.124,0,1,1,300.248,0Z" transform="translate(9858.954 -1458.665)" fill="#fff"/>
    <path id="Path_2370" data-name="Path 2370" d="M620.15,340.983c-39.922,3.278-70.509-1.888-70.509-53.7A150.151,150.151,0,0,1,638.11,150.366a128.508,128.508,0,0,0-11.663-23.285,167.365,167.365,0,0,0-8.508,296.4c-.072-2.138,9.461-19.037,12.413-29.869C634.772,377.4,639,360.016,620.15,340.983Z" transform="translate(9858.954 -1458.665)" fill="#a264ea"/>
    <path id="Path_2371" data-name="Path 2371" d="M779.378,340.983c39.922,3.278,70.51-1.888,70.51-53.7a150.151,150.151,0,0,0-88.47-136.918,128.449,128.449,0,0,1,11.664-23.285,167.366,167.366,0,0,1,8.508,296.4c.071-2.138-9.461-19.037-12.413-29.869C764.757,377.4,760.526,360.016,779.378,340.983Z" transform="translate(9858.954 -1458.665)" fill="#a264ea"/>
    <path id="Path_2372" data-name="Path 2372" d="M869.152,349.281" transform="translate(9858.954 -1458.665)" fill="#bc86ff"/>
    <path id="Path_2373" data-name="Path 2373" d="M858.275,223.809s19.087-13.119,29.985,12.884c9.1,21.721,3.429,62.826,1.672,74.768a27.436,27.436,0,0,1-3.9,10.772c-4.02,6.32-11.891,12.851-24.656.55C861.379,322.783,875.727,268.125,858.275,223.809Z" transform="translate(9858.954 -1458.665)" fill="#7224c7" stroke="#7224c7" stroke-miterlimit="10" stroke-width="1"/>
    <path id="Path_2374" data-name="Path 2374" d="M872.865,222.03c4.355,8.16,23.019,48.368,3.33,106.444a.76.76,0,0,0,.887.993c3.4-.842,13.493-6.333,14.791-28.75,1.553-26.794,6.14-72.659-18.11-79.783A.77.77,0,0,0,872.865,222.03Z" transform="translate(9858.954 -1458.665)" fill="#ff730b" stroke="#ff730b" stroke-miterlimit="10" stroke-width="1"/>
    <path id="Path_2375" data-name="Path 2375" d="M700.027,137.492a149.436,149.436,0,0,1,88.726,29.025c5.025-6.633,10.047-13.271,15.3-19.72a167.324,167.324,0,0,0-207-.837c3.991,7.462,7.288,14.691,10.927,22.33A150.756,150.756,0,0,1,700.027,137.492Z" transform="translate(9858.954 -1458.665)" fill="#ff8d4e"/>
    <path id="Path_2376" data-name="Path 2376" d="M661.757,263.684c11.252,2.161,45.63,7.653,64.721-.617,1.448-.627,3.182.4,3.045,1.831-.785,8.186-5.072,28.185-28.214,29-29.912,1.059-39.562-19.634-42.188-27.745C658.646,264.691,660.063,263.359,661.757,263.684Z" transform="translate(9858.954 -1458.665)" fill="#1d1d1b"/>
    <path id="Path_2377" data-name="Path 2377" d="M529.2,329.672s-6.469,39.583,42.7,24.532,48.662-22.1,60.2-20.078,49.666-.89,26.589-28.282c-18.27-21.686-28.05-.421-31.332,9.38a14.542,14.542,0,0,1-5.582,7.424c-11.013,7.511-41.066,26.014-65.541,22.728a17.1,17.1,0,0,1-13.767-11.47l-3.734-10.827S530.16,324.2,529.2,329.672Z" transform="translate(9858.954 -1458.665)" fill="#ff730b" stroke="#ff8d4e" stroke-miterlimit="10" stroke-width="1"/>
    <path id="Path_2378" data-name="Path 2378" d="M540.066,224.789s-19.087-13.119-29.985,12.884c-9.1,21.721-3.429,62.826-1.672,74.768a27.467,27.467,0,0,0,3.9,10.772c4.02,6.32,13.654,12.166,26.418-.134C538.724,323.079,523.2,278.812,540.066,224.789Z" transform="translate(9858.954 -1458.665)" fill="#7224c7" stroke="#7224c7" stroke-miterlimit="10" stroke-width="1"/>
    <path id="Path_2379" data-name="Path 2379" d="M525.51,222.947c-4.272,7.979-22.929,47.909-3.636,105.7a1.2,1.2,0,0,1-1.545,1.521c-3.882-1.376-11.62-6.652-13.16-26.886-2.027-26.649-6.85-74.337,17.481-81.388A.739.739,0,0,1,525.51,222.947Z" transform="translate(9858.954 -1458.665)" fill="#ff730b" stroke="#ff730b" stroke-miterlimit="10" stroke-width="1"/>
    <path id="Path_2380" data-name="Path 2380" d="M630.563,318.5s8.718-25.97,24.154-12.349" transform="translate(9858.954 -1458.665)" fill="none" stroke="#fff" stroke-linecap="round" stroke-miterlimit="10" stroke-width="1"/>
    <g id="Group_1502" data-name="Group 1502" transform="translate(9858.954 -1458.665)">
      <circle id="Ellipse_186" data-name="Ellipse 186" cx="27.866" cy="27.866" r="27.866" transform="translate(606.373 188.25)"/>
      <ellipse id="Ellipse_187" data-name="Ellipse 187" cx="8.582" cy="16.319" rx="8.582" ry="16.319" transform="translate(622.067 204.406) rotate(-48.709)" fill="#fff"/>
      <ellipse id="Ellipse_188" data-name="Ellipse 188" cx="6.114" cy="9.727" rx="6.114" ry="9.727" transform="translate(615.174 224.082) rotate(-48.709)" fill="#fff"/>
    </g>
    <g id="Group_1503" data-name="Group 1503" transform="translate(9858.954 -1458.665)">
      <circle id="Ellipse_189" data-name="Ellipse 189" cx="27.866" cy="27.866" r="27.866" transform="translate(740.642 185.014)"/>
      <ellipse id="Ellipse_190" data-name="Ellipse 190" cx="8.582" cy="16.319" rx="8.582" ry="16.319" transform="translate(756.335 201.17) rotate(-48.709)" fill="#fff"/>
      <ellipse id="Ellipse_191" data-name="Ellipse 191" cx="6.114" cy="9.727" rx="6.114" ry="9.727" transform="translate(749.443 220.846) rotate(-48.709)" fill="#fff"/>
    </g>
  </g>
</svg>
