<svg xmlns="http://www.w3.org/2000/svg" width="389.471" height="376.396" viewBox="0 0 389.471 376.396">
  <g id="Group_1508" data-name="Group 1508" transform="translate(-10780.389 1346.266)">
    <path id="Path_2381" data-name="Path 2381" d="M1284.085,279.72a167.321,167.321,0,1,0-212.921,161.029l-.029.034c3.47,16.469,22,44.439,45.116,47.911,17.384,2.61,44.218-46.1,45.076-47.665A167.385,167.385,0,0,0,1284.085,279.72Z" transform="translate(9858.954 -1458.665)" fill="#ff8d4e"/>
    <path id="Path_2382" data-name="Path 2382" d="M1266.888,289.488c0,82.911-67.213,46.838-150.124,46.838S966.64,372.4,966.64,289.488a150.124,150.124,0,1,1,300.248,0Z" transform="translate(9858.954 -1458.665)" fill="#fff"/>
    <path id="Path_2383" data-name="Path 2383" d="M1037.15,342.983c-39.922,3.278-70.509-1.888-70.509-53.7a150.151,150.151,0,0,1,88.469-136.918,128.512,128.512,0,0,0-11.663-23.285,167.365,167.365,0,0,0-8.508,296.4c-.072-2.138,9.461-19.037,12.413-29.869C1051.772,379.4,1056,362.016,1037.15,342.983Z" transform="translate(9858.954 -1458.665)" fill="#a264ea"/>
    <path id="Path_2384" data-name="Path 2384" d="M1196.378,342.983c39.922,3.278,70.51-1.888,70.51-53.7a150.151,150.151,0,0,0-88.47-136.918,128.446,128.446,0,0,1,11.664-23.285,167.366,167.366,0,0,1,8.508,296.4c.071-2.138-9.461-19.037-12.413-29.869C1181.757,379.4,1177.526,362.016,1196.378,342.983Z" transform="translate(9858.954 -1458.665)" fill="#a264ea"/>
    <path id="Path_2385" data-name="Path 2385" d="M1286.152,351.281" transform="translate(9858.954 -1458.665)" fill="#bc86ff"/>
    <path id="Path_2386" data-name="Path 2386" d="M1275.275,225.809s19.087-13.119,29.985,12.884c9.1,21.721,3.429,62.826,1.672,74.768a27.436,27.436,0,0,1-3.9,10.772c-4.02,6.32-11.891,12.851-24.656.55C1278.379,324.783,1292.727,270.125,1275.275,225.809Z" transform="translate(9858.954 -1458.665)" fill="#7224c7" stroke="#7224c7" stroke-miterlimit="10" stroke-width="1"/>
    <path id="Path_2387" data-name="Path 2387" d="M1289.865,224.03c4.355,8.16,23.019,48.368,3.33,106.444a.76.76,0,0,0,.887.993c3.4-.842,13.493-6.333,14.791-28.75,1.553-26.794,6.14-72.659-18.11-79.783A.77.77,0,0,0,1289.865,224.03Z" transform="translate(9858.954 -1458.665)" fill="#ff730b" stroke="#ff730b" stroke-miterlimit="10" stroke-width="1"/>
    <path id="Path_2388" data-name="Path 2388" d="M1117.027,139.492a149.437,149.437,0,0,1,88.726,29.025c5.025-6.633,10.047-13.271,15.3-19.72a167.324,167.324,0,0,0-207-.837c3.991,7.462,7.288,14.691,10.927,22.33A150.755,150.755,0,0,1,1117.027,139.492Z" transform="translate(9858.954 -1458.665)" fill="#ff8d4e"/>
    <path id="Path_2389" data-name="Path 2389" d="M1084.757,265.684c11.252,2.161,45.63,7.653,64.721-.617,1.448-.627,3.182.4,3.045,1.831-.785,8.186-5.072,28.185-28.214,29-29.912,1.059-39.562-19.634-42.188-27.745C1081.646,266.691,1083.063,265.359,1084.757,265.684Z" transform="translate(9858.954 -1458.665)" fill="#1d1d1b"/>
    <path id="Path_2390" data-name="Path 2390" d="M946.2,331.672s-6.469,39.583,42.7,24.532,48.662-22.1,60.2-20.078,49.666-.89,26.589-28.282c-18.27-21.686-28.05-.421-31.332,9.38a14.542,14.542,0,0,1-5.582,7.424c-11.013,7.511-41.066,26.014-65.541,22.728a17.1,17.1,0,0,1-13.767-11.47l-3.734-10.827S947.16,326.2,946.2,331.672Z" transform="translate(9858.954 -1458.665)" fill="#ff730b" stroke="#ff8d4e" stroke-miterlimit="10" stroke-width="1"/>
    <path id="Path_2391" data-name="Path 2391" d="M957.066,226.789s-19.087-13.119-29.985,12.884c-9.1,21.721-3.429,62.826-1.672,74.768a27.467,27.467,0,0,0,3.9,10.772c4.02,6.32,13.654,12.166,26.418-.134C955.724,325.079,940.2,280.812,957.066,226.789Z" transform="translate(9858.954 -1458.665)" fill="#7224c7" stroke="#7224c7" stroke-miterlimit="10" stroke-width="1"/>
    <path id="Path_2392" data-name="Path 2392" d="M942.51,224.947c-4.272,7.979-22.929,47.909-3.636,105.7a1.2,1.2,0,0,1-1.545,1.521c-3.882-1.376-11.62-6.652-13.16-26.886-2.027-26.649-6.85-74.337,17.481-81.388A.739.739,0,0,1,942.51,224.947Z" transform="translate(9858.954 -1458.665)" fill="#ff730b" stroke="#ff730b" stroke-miterlimit="10" stroke-width="1"/>
    <path id="Path_2393" data-name="Path 2393" d="M1047.563,320.5s8.718-25.97,24.154-12.349" transform="translate(9858.954 -1458.665)" fill="none" stroke="#fff" stroke-linecap="round" stroke-miterlimit="10" stroke-width="1"/>
    <g id="Group_1504" data-name="Group 1504" transform="translate(9858.954 -1458.665)">
      <path id="Path_2394" data-name="Path 2394" d="M1220.8,182.217s-9.3,12.837-22.846,13.588a8.75,8.75,0,0,1-2.6-.32,27.7,27.7,0,1,0,20.343,32.485,27.542,27.542,0,0,0,.582-5.648,40.37,40.37,0,0,1,2.042-13.189A58.137,58.137,0,0,0,1220.8,182.217Z" fill="#1d1d1b"/>
      <ellipse id="Ellipse_192" data-name="Ellipse 192" cx="7.348" cy="12.434" rx="7.348" ry="12.434" transform="translate(1177.132 209.035) rotate(-30)" fill="#fff"/>
    </g>
    <g id="Group_1505" data-name="Group 1505" transform="translate(9858.954 -1458.665)">
      <path id="Path_2395" data-name="Path 2395" d="M1026.4,188.562s11.24,11.174,24.733,9.735a8.726,8.726,0,0,0,2.516-.733A27.7,27.7,0,1,1,1038.8,232.9a27.486,27.486,0,0,1-1.668-6.84,24.617,24.617,0,0,0-3.048-9.708A57.874,57.874,0,0,1,1026.4,188.562Z" fill="#1d1d1b"/>
      <ellipse id="Ellipse_193" data-name="Ellipse 193" cx="7.348" cy="12.434" rx="7.348" ry="12.434" transform="translate(1048.453 211.327) rotate(-30)" fill="#fff"/>
    </g>
  </g>
</svg>
