<svg xmlns="http://www.w3.org/2000/svg" width="388.248" height="376.396" viewBox="0 0 388.248 376.396">
  <g id="Group_1509" data-name="Group 1509" transform="translate(-11223.976 1349.225)">
    <path id="Path_2396" data-name="Path 2396" d="M1727.06,276.761A167.321,167.321,0,1,0,1514.139,437.79l-.029.034c3.47,16.469,21.995,44.439,45.116,47.911,17.384,2.61,44.218-46.1,45.076-47.664A167.386,167.386,0,0,0,1727.06,276.761Z" transform="translate(9858.954 -1458.665)" fill="#ff8d4e"/>
    <path id="Path_2397" data-name="Path 2397" d="M1709.863,286.529c0,82.911-67.213,46.838-150.124,46.838s-150.124,36.073-150.124-46.838a150.124,150.124,0,0,1,300.248,0Z" transform="translate(9858.954 -1458.665)" fill="#fff"/>
    <path id="Path_2398" data-name="Path 2398" d="M1480.125,340.024c-39.922,3.278-70.509-1.888-70.509-53.7a150.151,150.151,0,0,1,88.469-136.918,128.5,128.5,0,0,0-11.663-23.285,167.365,167.365,0,0,0-8.508,296.405c-.072-2.138,9.46-19.037,12.413-29.869C1494.747,376.442,1498.977,359.057,1480.125,340.024Z" transform="translate(9858.954 -1458.665)" fill="#a264ea"/>
    <path id="Path_2399" data-name="Path 2399" d="M1639.353,340.024c39.922,3.278,70.51-1.888,70.51-53.7a150.151,150.151,0,0,0-88.47-136.918,128.454,128.454,0,0,1,11.664-23.285,167.366,167.366,0,0,1,8.508,296.405c.071-2.138-9.461-19.037-12.413-29.869C1624.732,376.442,1620.5,359.057,1639.353,340.024Z" transform="translate(9858.954 -1458.665)" fill="#a264ea"/>
    <path id="Path_2400" data-name="Path 2400" d="M1729.127,348.322" transform="translate(9858.954 -1458.665)" fill="#bc86ff"/>
    <path id="Path_2401" data-name="Path 2401" d="M1718.25,222.85s19.087-13.119,29.985,12.884c9.1,21.721,3.429,62.826,1.672,74.768a27.436,27.436,0,0,1-3.9,10.772c-4.02,6.32-11.891,12.851-24.656.551C1721.354,321.825,1735.7,267.166,1718.25,222.85Z" transform="translate(9858.954 -1458.665)" fill="#7224c7"/>
    <path id="Path_2402" data-name="Path 2402" d="M1732.84,221.071c4.355,8.16,23.019,48.368,3.33,106.444a.76.76,0,0,0,.887.993c3.4-.841,13.493-6.333,14.791-28.749,1.553-26.8,6.14-72.66-18.11-79.784A.77.77,0,0,0,1732.84,221.071Z" transform="translate(9858.954 -1458.665)" fill="#ff730b"/>
    <path id="Path_2403" data-name="Path 2403" d="M1560,136.533a149.437,149.437,0,0,1,88.727,29.025c5.025-6.633,10.047-13.271,15.3-19.72a167.324,167.324,0,0,0-207-.837c3.991,7.462,7.288,14.691,10.927,22.33A150.755,150.755,0,0,1,1560,136.533Z" transform="translate(9858.954 -1458.665)" fill="#ff8d4e"/>
    <path id="Path_2404" data-name="Path 2404" d="M1522.262,258.069c11.24,2.237,45.608,7.8,64.928-2.054a2.068,2.068,0,0,1,3.017,2.031c-.958,9.379-5.674,32.343-28.9,33.762-30.025,1.835-39.273-21.633-41.738-30.855A2.322,2.322,0,0,1,1522.262,258.069Z" transform="translate(9858.954 -1458.665)" fill="#1d1d1b"/>
    <path id="Path_2405" data-name="Path 2405" d="M1515.366,219.452a6.6,6.6,0,0,0-.5-3.615c-2-4.478-9.046-16.425-27.788-17.828-17.221-1.29-22.76,15.354-24.465,23.935a6.692,6.692,0,0,0,6.452,8.04c2.473.019,5.5-.881,8.938-3.714,9.7-7.985,18.932-3.387,18.932-3.387S1513.5,232.72,1515.366,219.452Z" transform="translate(9858.954 -1458.665)" fill="#1d1d1b"/>
    <path id="Path_2406" data-name="Path 2406" d="M1654.831,216.138a6.6,6.6,0,0,0-.2-3.645c-1.627-4.625-7.681-17.1-26.247-20.027-17.06-2.684-23.932,13.454-26.33,21.869a6.693,6.693,0,0,0,5.778,8.538c2.464.219,5.553-.432,9.211-2.976,10.312-7.171,19.144-1.837,19.144-1.837S1651.889,229.209,1654.831,216.138Z" transform="translate(9858.954 -1458.665)" fill="#1d1d1b"/>
    <path id="Path_2407" data-name="Path 2407" d="M1389.17,328.713s-6.469,39.583,42.695,24.532,48.662-22.1,60.2-20.078,49.666-.89,26.589-28.282c-18.27-21.686-28.05-.421-31.332,9.38a14.542,14.542,0,0,1-5.582,7.424c-11.013,7.511-41.066,26.014-65.541,22.729a17.106,17.106,0,0,1-13.767-11.471L1398.7,322.12S1390.135,323.246,1389.17,328.713Z" transform="translate(9858.954 -1458.665)" fill="#ff730b"/>
    <path id="Path_2408" data-name="Path 2408" d="M1400.041,223.83s-19.087-13.119-29.985,12.884c-9.1,21.721-3.429,62.826-1.672,74.768a27.466,27.466,0,0,0,3.9,10.772c4.02,6.32,13.654,12.166,26.418-.134C1398.7,322.12,1383.174,277.853,1400.041,223.83Z" transform="translate(9858.954 -1458.665)" fill="#7224c7"/>
    <path id="Path_2409" data-name="Path 2409" d="M1385.485,221.988c-4.272,7.979-22.929,47.909-3.636,105.7a1.2,1.2,0,0,1-1.545,1.521c-3.882-1.376-11.62-6.652-13.16-26.886-2.027-26.649-6.85-74.337,17.481-81.388A.739.739,0,0,1,1385.485,221.988Z" transform="translate(9858.954 -1458.665)" fill="#ff730b"/>
    <path id="Path_2410" data-name="Path 2410" d="M1490.538,317.543s8.718-25.97,24.154-12.349" transform="translate(9858.954 -1458.665)" fill="none"/>
    <path id="Path_2411" data-name="Path 2411" d="M1490.538,317.543s8.718-25.97,24.154-12.349" transform="translate(9858.954 -1458.665)" fill="none" stroke="#fff" stroke-linecap="round" stroke-miterlimit="10" stroke-width="1"/>
  </g>
</svg>
