<svg xmlns="http://www.w3.org/2000/svg" xmlns:xlink="http://www.w3.org/1999/xlink" width="175" height="150.314" viewBox="0 0 175 150.314">
  <defs>
    <filter id="Path_2250" x="21.848" y="25.918" width="69.539" height="87.21" filterUnits="userSpaceOnUse">
      <feOffset dx="6" dy="10" input="SourceAlpha"/>
      <feGaussianBlur stdDeviation="10" result="blur"/>
      <feFlood flood-color="#6f2ec3" flood-opacity="0.243"/>
      <feComposite operator="in" in2="blur"/>
      <feComposite in="SourceGraphic"/>
    </filter>
    <filter id="Path_2251" x="21.912" y="26.009" width="65.896" height="87.064" filterUnits="userSpaceOnUse">
      <feOffset dx="6" dy="10" input="SourceAlpha"/>
      <feGaussianBlur stdDeviation="10" result="blur-2"/>
      <feFlood flood-color="#6f2ec3" flood-opacity="0.243"/>
      <feComposite operator="in" in2="blur-2"/>
      <feComposite in="SourceGraphic"/>
    </filter>
    <filter id="Path_2103" x="27.425" y="0" width="140.295" height="150.314" filterUnits="userSpaceOnUse">
      <feOffset dx="5" dy="10" input="SourceAlpha"/>
      <feGaussianBlur stdDeviation="10" result="blur-3"/>
      <feFlood flood-color="#6f2ec3" flood-opacity="0.486"/>
      <feComposite operator="in" in2="blur-3"/>
      <feComposite in="SourceGraphic"/>
    </filter>
    <filter id="Path_2104" x="31.552" y="6.47" width="132.042" height="109.134" filterUnits="userSpaceOnUse">
      <feOffset dx="5" dy="10" input="SourceAlpha"/>
      <feGaussianBlur stdDeviation="10" result="blur-4"/>
      <feFlood flood-color="#6f2ec3" flood-opacity="0.486"/>
      <feComposite operator="in" in2="blur-4"/>
      <feComposite in="SourceGraphic"/>
    </filter>
    <filter id="Path_2105" x="27.425" y="4.003" width="85.354" height="131.12" filterUnits="userSpaceOnUse">
      <feOffset dx="5" dy="10" input="SourceAlpha"/>
      <feGaussianBlur stdDeviation="10" result="blur-5"/>
      <feFlood flood-color="#6f2ec3" flood-opacity="0.486"/>
      <feComposite operator="in" in2="blur-5"/>
      <feComposite in="SourceGraphic"/>
    </filter>
    <filter id="Path_2106" x="82.367" y="4.003" width="85.354" height="131.12" filterUnits="userSpaceOnUse">
      <feOffset dx="5" dy="10" input="SourceAlpha"/>
      <feGaussianBlur stdDeviation="10" result="blur-6"/>
      <feFlood flood-color="#6f2ec3" flood-opacity="0.486"/>
      <feComposite operator="in" in2="blur-6"/>
      <feComposite in="SourceGraphic"/>
    </filter>
    <filter id="Path_2107" x="108.217" y="57.318" width="60" height="60" filterUnits="userSpaceOnUse">
      <feOffset dx="5" dy="10" input="SourceAlpha"/>
      <feGaussianBlur stdDeviation="10" result="blur-7"/>
      <feFlood flood-color="#6f2ec3" flood-opacity="0.486"/>
      <feComposite operator="in" in2="blur-7"/>
      <feComposite in="SourceGraphic"/>
    </filter>
    <filter id="Path_2108" x="104.996" y="25.918" width="69.539" height="87.21" filterUnits="userSpaceOnUse">
      <feOffset dx="5" dy="10" input="SourceAlpha"/>
      <feGaussianBlur stdDeviation="10" result="blur-8"/>
      <feFlood flood-color="#6f2ec3" flood-opacity="0.486"/>
      <feComposite operator="in" in2="blur-8"/>
      <feComposite in="SourceGraphic"/>
    </filter>
    <filter id="Path_2109" x="108.575" y="26.008" width="65.897" height="87.065" filterUnits="userSpaceOnUse">
      <feOffset dx="5" dy="10" input="SourceAlpha"/>
      <feGaussianBlur stdDeviation="10" result="blur-9"/>
      <feFlood flood-color="#6f2ec3" flood-opacity="0.486"/>
      <feComposite operator="in" in2="blur-9"/>
      <feComposite in="SourceGraphic"/>
    </filter>
    <filter id="Path_2110" x="42.929" y="0.031" width="109.667" height="73.86" filterUnits="userSpaceOnUse">
      <feOffset dx="5" dy="10" input="SourceAlpha"/>
      <feGaussianBlur stdDeviation="10" result="blur-10"/>
      <feFlood flood-color="#6f2ec3" flood-opacity="0.486"/>
      <feComposite operator="in" in2="blur-10"/>
      <feComposite in="SourceGraphic"/>
    </filter>
    <filter id="Path_2111" x="57.798" y="36.587" width="76.917" height="67.453" filterUnits="userSpaceOnUse">
      <feOffset dx="5" dy="10" input="SourceAlpha"/>
      <feGaussianBlur stdDeviation="10" result="blur-11"/>
      <feFlood flood-color="#6f2ec3" flood-opacity="0.486"/>
      <feComposite operator="in" in2="blur-11"/>
      <feComposite in="SourceGraphic"/>
    </filter>
    <filter id="Path_2112" x="26.044" y="44.113" width="93.919" height="75.723" filterUnits="userSpaceOnUse">
      <feOffset dx="5" dy="10" input="SourceAlpha"/>
      <feGaussianBlur stdDeviation="10" result="blur-12"/>
      <feFlood flood-color="#6f2ec3" flood-opacity="0.486"/>
      <feComposite operator="in" in2="blur-12"/>
      <feComposite in="SourceGraphic"/>
    </filter>
    <filter id="Path_2115" x="50.336" y="45.521" width="67.134" height="65.045" filterUnits="userSpaceOnUse">
      <feOffset dx="5" dy="10" input="SourceAlpha"/>
      <feGaussianBlur stdDeviation="10" result="blur-13"/>
      <feFlood flood-color="#6f2ec3" flood-opacity="0.486"/>
      <feComposite operator="in" in2="blur-13"/>
      <feComposite in="SourceGraphic"/>
    </filter>
    <filter id="Ellipse_150" x="45.165" y="18.68" width="73.372" height="73.372" filterUnits="userSpaceOnUse">
      <feOffset dx="5" dy="10" input="SourceAlpha"/>
      <feGaussianBlur stdDeviation="10" result="blur-14"/>
      <feFlood flood-color="#6f2ec3" flood-opacity="0.486"/>
      <feComposite operator="in" in2="blur-14"/>
      <feComposite in="SourceGraphic"/>
    </filter>
    <filter id="Ellipse_151" x="48.93" y="19.462" width="68.602" height="68.262" filterUnits="userSpaceOnUse">
      <feOffset dx="5" dy="10" input="SourceAlpha"/>
      <feGaussianBlur stdDeviation="10" result="blur-15"/>
      <feFlood flood-color="#6f2ec3" flood-opacity="0.486"/>
      <feComposite operator="in" in2="blur-15"/>
      <feComposite in="SourceGraphic"/>
    </filter>
    <filter id="Ellipse_152" x="47.277" y="25.073" width="65.443" height="65.285" filterUnits="userSpaceOnUse">
      <feOffset dx="5" dy="10" input="SourceAlpha"/>
      <feGaussianBlur stdDeviation="10" result="blur-16"/>
      <feFlood flood-color="#6f2ec3" flood-opacity="0.486"/>
      <feComposite operator="in" in2="blur-16"/>
      <feComposite in="SourceGraphic"/>
    </filter>
    <filter id="Ellipse_153" x="77.38" y="17.903" width="73.372" height="73.372" filterUnits="userSpaceOnUse">
      <feOffset dx="5" dy="10" input="SourceAlpha"/>
      <feGaussianBlur stdDeviation="10" result="blur-17"/>
      <feFlood flood-color="#6f2ec3" flood-opacity="0.486"/>
      <feComposite operator="in" in2="blur-17"/>
      <feComposite in="SourceGraphic"/>
    </filter>
    <filter id="Ellipse_154" x="81.147" y="18.685" width="68.602" height="68.262" filterUnits="userSpaceOnUse">
      <feOffset dx="5" dy="10" input="SourceAlpha"/>
      <feGaussianBlur stdDeviation="10" result="blur-18"/>
      <feFlood flood-color="#6f2ec3" flood-opacity="0.486"/>
      <feComposite operator="in" in2="blur-18"/>
      <feComposite in="SourceGraphic"/>
    </filter>
    <filter id="Ellipse_155" x="79.494" y="24.296" width="65.443" height="65.285" filterUnits="userSpaceOnUse">
      <feOffset dx="5" dy="10" input="SourceAlpha"/>
      <feGaussianBlur stdDeviation="10" result="blur-19"/>
      <feFlood flood-color="#6f2ec3" flood-opacity="0.486"/>
      <feComposite operator="in" in2="blur-19"/>
      <feComposite in="SourceGraphic"/>
    </filter>
  </defs>
  <g id="Group_1511" data-name="Group 1511" transform="translate(-182.982 -69.187)">
    <g id="Group_1512" data-name="Group 1512">
      <g transform="matrix(1, 0, 0, 1, 182.98, 69.19)" filter="url(#Path_2250)">
        <path id="Path_2250-2" data-name="Path 2250" d="M421.677,215.294s-4.58-3.148-7.194,3.091c-2.184,5.212-.823,15.074-.4,17.94a6.583,6.583,0,0,0,.935,2.585c.965,1.516,2.853,3.083,5.916.132C420.933,239.041,417.49,225.927,421.677,215.294Z" transform="translate(-366.9 -168.08)" fill="#7224c7" stroke="#7224c7" stroke-miterlimit="10" stroke-width="1"/>
      </g>
      <g transform="matrix(1, 0, 0, 1, 182.98, 69.19)" filter="url(#Path_2251)">
        <path id="Path_2251-2" data-name="Path 2251" d="M432.667,215.172c-1.045,1.958-5.523,11.605-.8,25.54a.182.182,0,0,1-.213.238c-.816-.2-3.237-1.52-3.549-6.9-.373-6.429-1.473-17.434,4.345-19.143A.185.185,0,0,1,432.667,215.172Z" transform="translate(-381.39 -168.39)" fill="#ff730b" stroke="#ff730b" stroke-miterlimit="10" stroke-width="1"/>
      </g>
      <g id="Group_1431" data-name="Group 1431" transform="translate(-11220.084 525.02)">
        <g transform="matrix(1, 0, 0, 1, 11403.07, -455.83)" filter="url(#Path_2103)">
          <path id="Path_2103-2" data-name="Path 2103" d="M612.738,150.547a40.148,40.148,0,1,0-51.089,38.638l-.007.008c.833,3.952,5.278,10.663,10.825,11.5,4.171.626,10.61-11.061,10.816-11.437A40.163,40.163,0,0,0,612.738,150.547Z" transform="translate(-480.02 -90.4)" fill="#ff8d4e"/>
        </g>
        <g transform="matrix(1, 0, 0, 1, 11403.07, -455.83)" filter="url(#Path_2104)">
          <path id="Path_2104-2" data-name="Path 2104" d="M621.682,173.385c0,19.894-16.127,11.238-36.021,11.238s-36.021,8.655-36.021-11.238a36.021,36.021,0,1,1,72.042,0Z" transform="translate(-493.09 -110.89)" fill="#fff"/>
        </g>
        <g transform="matrix(1, 0, 0, 1, 11403.07, -455.83)" filter="url(#Path_2105)">
          <path id="Path_2105-2" data-name="Path 2105" d="M553.488,178.405c-9.579.787-16.918-.453-16.918-12.885A36.028,36.028,0,0,1,557.8,132.668a30.829,30.829,0,0,0-2.8-5.587,40.158,40.158,0,0,0-2.041,71.12c-.017-.513,2.27-4.568,2.978-7.167C557,187.144,558.011,182.972,553.488,178.405Z" transform="translate(-480.02 -103.08)" fill="#a264ea"/>
        </g>
        <g transform="matrix(1, 0, 0, 1, 11403.07, -455.83)" filter="url(#Path_2106)">
          <path id="Path_2106-2" data-name="Path 2106" d="M765.727,178.405c9.579.787,16.918-.453,16.918-12.885a36.028,36.028,0,0,0-21.228-32.853,30.822,30.822,0,0,1,2.8-5.587,40.158,40.158,0,0,1,2.041,71.12c.017-.513-2.27-4.568-2.978-7.167C762.219,187.144,761.2,182.972,765.727,178.405Z" transform="translate(-654.05 -103.08)" fill="#a264ea"/>
        </g>
        <g transform="matrix(1, 0, 0, 1, 11403.07, -455.83)" filter="url(#Path_2107)">
          <path id="Path_2107-2" data-name="Path 2107" d="M869.152,349.281" transform="translate(-735.94 -271.96)" fill="#bc86ff"/>
        </g>
        <g transform="matrix(1, 0, 0, 1, 11403.07, -455.83)" filter="url(#Path_2108)">
          <path id="Path_2108-2" data-name="Path 2108" d="M858.275,221.294s4.58-3.148,7.195,3.091c2.184,5.212.823,15.075.4,17.94a6.584,6.584,0,0,1-.935,2.585c-.965,1.516-2.853,3.084-5.916.132C859.02,245.042,862.462,231.927,858.275,221.294Z" transform="translate(-727.67 -174.08)" fill="#7224c7" stroke="#7224c7" stroke-miterlimit="10" stroke-width="1"/>
        </g>
        <g transform="matrix(1, 0, 0, 1, 11403.07, -455.83)" filter="url(#Path_2109)">
          <path id="Path_2109-2" data-name="Path 2109" d="M872.8,221.172c1.045,1.958,5.523,11.606.8,25.541a.182.182,0,0,0,.213.238c.816-.2,3.238-1.52,3.549-6.9.373-6.429,1.473-17.434-4.345-19.143A.185.185,0,0,0,872.8,221.172Z" transform="translate(-738.69 -174.39)" fill="#ff730b" stroke="#ff730b" stroke-miterlimit="10" stroke-width="1"/>
        </g>
        <g transform="matrix(1, 0, 0, 1, 11403.07, -455.83)" filter="url(#Path_2110)">
          <path id="Path_2110-2" data-name="Path 2110" d="M621.763,117a35.856,35.856,0,0,1,21.289,6.964c1.206-1.592,2.411-3.184,3.671-4.732a40.148,40.148,0,0,0-49.667-.2c.958,1.79,1.749,3.525,2.622,5.358A36.173,36.173,0,0,1,621.763,117Z" transform="translate(-529.13 -90.5)" fill="#ff8d4e"/>
        </g>
        <g transform="matrix(1, 0, 0, 1, 11403.07, -455.83)" filter="url(#Path_2111)">
          <path id="Path_2111-2" data-name="Path 2111" d="M659.683,263.072c2.7.518,10.949,1.836,15.529-.148a.507.507,0,0,1,.731.439c-.188,1.964-1.217,6.763-6.77,6.959-7.177.254-9.493-4.711-10.123-6.657C658.936,263.314,659.276,262.994,659.683,263.072Z" transform="translate(-576.23 -206.29)" fill="#1d1d1b"/>
        </g>
        <g transform="matrix(1, 0, 0, 1, 11403.07, -455.83)" filter="url(#Path_2112)">
          <path id="Path_2112-2" data-name="Path 2112" d="M528.982,304.41s-1.552,9.5,10.244,5.886,11.676-5.3,14.445-4.818,11.917-.214,6.38-6.786c-4.384-5.2-6.73-.1-7.518,2.251a3.489,3.489,0,0,1-1.339,1.781c-2.643,1.8-9.854,6.242-15.726,5.453a4.1,4.1,0,0,1-3.3-2.752l-.9-2.6S529.213,303.1,528.982,304.41Z" transform="translate(-477.34 -231.8)" fill="#ff730b" stroke="#ff8d4e" stroke-miterlimit="10" stroke-width="1"/>
        </g>
        <g transform="matrix(1, 0, 0, 1, 11403.07, -455.83)" filter="url(#Path_2115)">
          <path id="Path_2115-2" data-name="Path 2115" d="M630.563,306.113s2.092-6.231,5.8-2.963" transform="translate(-554.59 -236.18)" fill="none" stroke="#fff" stroke-linecap="round" stroke-miterlimit="10" stroke-width="1"/>
        </g>
        <g transform="matrix(1, 0, 0, 1, 11403.07, -455.83)" filter="url(#Ellipse_150)">
          <circle id="Ellipse_150-2" data-name="Ellipse 150" cx="6.686" cy="6.686" r="6.686" transform="translate(70.16 38.68)"/>
        </g>
        <g transform="matrix(1, 0, 0, 1, 11403.07, -455.83)" filter="url(#Ellipse_151)">
          <ellipse id="Ellipse_151-2" data-name="Ellipse 151" cx="2.059" cy="3.916" rx="2.059" ry="3.916" transform="translate(73.93 42.56) rotate(-48.71)" fill="#fff"/>
        </g>
        <g transform="matrix(1, 0, 0, 1, 11403.07, -455.83)" filter="url(#Ellipse_152)">
          <ellipse id="Ellipse_152-2" data-name="Ellipse 152" cx="1.467" cy="2.334" rx="1.467" ry="2.334" transform="translate(72.28 47.28) rotate(-48.71)" fill="#fff"/>
        </g>
        <g transform="matrix(1, 0, 0, 1, 11403.07, -455.83)" filter="url(#Ellipse_153)">
          <circle id="Ellipse_153-2" data-name="Ellipse 153" cx="6.686" cy="6.686" r="6.686" transform="translate(102.38 37.9)"/>
        </g>
        <g transform="matrix(1, 0, 0, 1, 11403.07, -455.83)" filter="url(#Ellipse_154)">
          <ellipse id="Ellipse_154-2" data-name="Ellipse 154" cx="2.059" cy="3.916" rx="2.059" ry="3.916" transform="translate(106.15 41.78) rotate(-48.71)" fill="#fff"/>
        </g>
        <g transform="matrix(1, 0, 0, 1, 11403.07, -455.83)" filter="url(#Ellipse_155)">
          <ellipse id="Ellipse_155-2" data-name="Ellipse 155" cx="1.467" cy="2.334" rx="1.467" ry="2.334" transform="translate(104.49 46.5) rotate(-48.71)" fill="#fff"/>
        </g>
      </g>
      <text id="_YoloAyudo" data-name="#YoloAyudo" transform="translate(182.982 203.501)" fill="#4f2fac" font-size="25" font-family="Montserrat-Bold, Montserrat" font-weight="700" letter-spacing="0.075em"><tspan x="0" y="0">#YoloAyudo</tspan></text>
    </g>
  </g>
</svg>
